<?xml version="1.0" encoding="UTF-8" standalone="no"?>
<!DOCTYPE svg PUBLIC "-//W3C//DTD SVG 1.1//EN" "http://www.w3.org/Graphics/SVG/1.1/DTD/svg11.dtd">
<svg width="100%" height="100%" viewBox="0 0 26 26" version="1.1" xmlns="http://www.w3.org/2000/svg" xmlns:xlink="http://www.w3.org/1999/xlink" xml:space="preserve" xmlns:serif="http://www.serif.com/" style="fill-rule:evenodd;clip-rule:evenodd;stroke-linejoin:round;stroke-miterlimit:1.41421;">
    <path id="path4" d="M20.401,13.623L18.877,13.621L18.868,20.218L17.228,18.57L16.145,19.651L19.627,23.145L23.12,19.663L22.039,18.58L20.392,20.219L20.401,13.623ZM15.034,12.122L15.034,13.376L10.691,19.609L10.691,19.684L15.1,19.684L15.1,21.481L7.847,21.481L7.847,20.302L12.292,13.967L12.292,13.91L8.268,13.91L8.268,12.122L15.034,12.122ZM13.051,1.85L15.981,11.208L13.678,11.208L12.949,8.68L10.244,8.68L9.571,11.208L7.352,11.208L10.244,1.85L13.051,1.85ZM12.64,7.165L12.05,5.182L11.807,4.273L11.573,3.374L11.545,3.374L11.339,4.283L11.114,5.2L10.553,7.165L12.64,7.165Z" style="fill:rgb(117,117,117);fill-rule:nonzero;"/>
</svg>
