<?xml version="1.0" encoding="UTF-8" standalone="no"?>
<svg
   xmlns:dc="http://purl.org/dc/elements/1.1/"
   xmlns:cc="http://creativecommons.org/ns#"
   xmlns:rdf="http://www.w3.org/1999/02/22-rdf-syntax-ns#"
   xmlns:svg="http://www.w3.org/2000/svg"
   xmlns="http://www.w3.org/2000/svg"
   xmlns:sodipodi="http://sodipodi.sourceforge.net/DTD/sodipodi-0.dtd"
   xmlns:inkscape="http://www.inkscape.org/namespaces/inkscape"
   version="1.1"
   width="24"
   height="24"
   viewBox="0 0 24 24"
   id="svg2"
   inkscape:version="0.91 r13725"
   sodipodi:docname="alphabetical_asc.svg"
   inkscape:export-filename="C:\DEV\src\Android\Nextcloud\newSortingLayout\res\drawable-xxxhdpi\ic_alphabetical_asc.png"
   inkscape:export-xdpi="360"
   inkscape:export-ydpi="360">
  <metadata
     id="metadata10">
    <rdf:RDF>
      <cc:Work
         rdf:about="">
        <dc:format>image/svg+xml</dc:format>
        <dc:type
           rdf:resource="http://purl.org/dc/dcmitype/StillImage" />
      </cc:Work>
    </rdf:RDF>
  </metadata>
  <defs
     id="defs8" />
  <sodipodi:namedview
     pagecolor="#ffffff"
     bordercolor="#666666"
     borderopacity="1"
     objecttolerance="10"
     gridtolerance="10"
     guidetolerance="10"
     inkscape:pageopacity="0"
     inkscape:pageshadow="2"
     inkscape:window-width="1920"
     inkscape:window-height="1005"
     id="namedview6"
     showgrid="false"
     inkscape:zoom="27.81"
     inkscape:cx="2.3451996"
     inkscape:cy="12"
     inkscape:window-x="-9"
     inkscape:window-y="-9"
     inkscape:window-maximized="1"
     inkscape:current-layer="svg2" />
  <g
     id="g4174"
     transform="matrix(0.92801764,0,0,0.92801764,3.1474097,-0.40986228)"
     style="fill:#757575;fill-opacity:1">
    <path
       inkscape:connector-curvature="0"
       id="path4"
       d="m 4.9604453,12.687998 0,1.805869 4.0659743,0 0,0.05724 -4.4906676,6.399939 0,1.190987 7.326878,0 0,-1.815101 -4.4537366,0 0,-0.07571 4.3872636,-6.296537 0,-1.266693 -6.8357117,0 z"
       style="fill:#757575;fill-opacity:1" />
    <path
       inkscape:connector-curvature="0"
       id="path4-2"
       d="m 6.9569297,2.3102604 -2.9211499,9.4540376 2.2416409,0 0.679509,-2.5536989 2.7328076,0 0.7367497,2.5536989 2.326579,0 -2.9599252,-9.4540376 -2.8362111,0 z m 1.314702,1.539974 0.027698,0 0.2363509,0.9084738 0.2455834,0.9177062 0.5964168,2.0034438 -2.1086935,0 0.566873,-1.9849791 0.2271185,-0.9269383 0.2086535,-0.9177064 z"
       style="fill:#757575;fill-opacity:1" />
  </g>
  <path
     inkscape:connector-curvature="0"
     d="m 19.12569,21.6966 -1.428741,0.0014 -0.0086,-6.184289 -1.53692,1.544835 -1.015429,-1.013386 3.263957,-3.275355 3.275354,3.263958 -1.013385,1.015428 -1.544836,-1.53692 z"
     id="path4-3"
     sodipodi:nodetypes="cccccccccc"
     style="fill:#757575;fill-opacity:1" />
</svg>
