<?xml version="1.0" encoding="UTF-8" standalone="no"?>
<!DOCTYPE svg PUBLIC "-//W3C//DTD SVG 1.1//EN" "http://www.w3.org/Graphics/SVG/1.1/DTD/svg11.dtd">
<svg width="100%" height="100%" viewBox="0 0 26 26" version="1.1" xmlns="http://www.w3.org/2000/svg" xmlns:xlink="http://www.w3.org/1999/xlink" xml:space="preserve" xmlns:serif="http://www.serif.com/" style="fill-rule:evenodd;clip-rule:evenodd;stroke-linejoin:round;stroke-miterlimit:1.41421;">
    <path id="path4-2" d="M10.244,12.122L7.352,21.481L9.571,21.481L10.244,18.953L12.949,18.953L13.678,21.481L15.981,21.481L13.051,12.122L10.244,12.122ZM11.545,13.647L11.573,13.647L11.807,14.546L12.05,15.454L12.64,17.437L10.553,17.437L11.114,15.473L11.339,14.555L11.545,13.647L11.545,13.647Z" style="fill:rgb(117,117,117);fill-rule:nonzero;"/>
    <path id="path4" d="M20.401,13.623L18.877,13.621L18.868,20.218L17.228,18.57L16.145,19.651L19.627,23.145L23.12,19.663L22.039,18.58L20.392,20.219L20.401,13.623ZM15.034,1.85L15.034,3.104L10.691,9.337L10.691,9.412L15.1,9.412L15.1,11.209L7.847,11.209L7.847,10.03L12.292,3.694L12.292,3.638L8.268,3.638L8.268,1.85L15.034,1.85Z" style="fill:rgb(117,117,117);fill-rule:nonzero;"/>
</svg>
