<?xml version="1.0" encoding="UTF-8" standalone="no"?>
<!-- Created with Inkscape (http://www.inkscape.org/) -->

<svg
    xmlns:dc="http://purl.org/dc/elements/1.1/"
    xmlns:cc="http://creativecommons.org/ns#"
    xmlns:rdf="http://www.w3.org/1999/02/22-rdf-syntax-ns#"
    xmlns="http://www.w3.org/2000/svg"
    xmlns:sodipodi="http://sodipodi.sourceforge.net/DTD/sodipodi-0.dtd"
    xmlns:inkscape="http://www.inkscape.org/namespaces/inkscape"
    width="16mm"
    height="16mm"
    viewBox="0 0 16 16"
    version="1.1"
    id="svg829"
    inkscape:version="0.92.2 2405546, 2018-03-11"
    sodipodi:docname="first_run_talk.svg">
    <defs
        id="defs823"/>
    <sodipodi:namedview
        id="base"
        pagecolor="#ffffff"
        bordercolor="#666666"
        borderopacity="1.0"
        inkscape:pageopacity="0.0"
        inkscape:pageshadow="2"
        inkscape:zoom="5.6"
        inkscape:cx="-19.200952"
        inkscape:cy="38.084396"
        inkscape:document-units="mm"
        inkscape:current-layer="layer1"
        showgrid="false"
        inkscape:pagecheckerboard="true"
        fit-margin-top="2"
        fit-margin-left="2"
        fit-margin-right="2"
        fit-margin-bottom="2"
        inkscape:window-width="1600"
        inkscape:window-height="835"
        inkscape:window-x="0"
        inkscape:window-y="0"
        inkscape:window-maximized="1"/>
    <metadata
        id="metadata826">
        <rdf:RDF>
            <cc:Work
                rdf:about="">
                <dc:format>image/svg+xml</dc:format>
                <dc:type
                    rdf:resource="http://purl.org/dc/dcmitype/StillImage"/>
                <dc:title></dc:title>
            </cc:Work>
        </rdf:RDF>
    </metadata>
    <g
        inkscape:label="Layer 1"
        inkscape:groupmode="layer"
        id="layer1"
        transform="translate(-15.580506,-164.12649)">
        <path
            inkscape:connector-curvature="0"
            style="fill:#ffffff;stroke-width:0.13229023"
            d="m 23.579679,165.51155 a 6.6138496,6.6139445 0 0 0 -6.613756,6.61414 6.6138496,6.6139445 0 0 0 6.613756,6.61394 6.6138496,6.6139445 0 0 0 3.430853,-0.96761 c 0.812866,0.32302 2.633614,1.28133 3.066959,0.86739 0.452829,-0.43245 -0.531627,-2.46778 -0.767642,-3.2241 a 6.6138496,6.6139445 0 0 0 0.88351,-3.28968 6.6138496,6.6139445 0 0 0 -6.613662,-6.61385 z m 7.69e-4,2.51456 a 4.1009972,4.1010914 0 0 1 4.100984,4.10109 4.1009972,4.1010914 0 0 1 -4.100997,4.10081 4.1009972,4.1010914 0 0 1 -4.100997,-4.10081 4.1009972,4.1010914 0 0 1 4.100997,-4.10109 z"
            id="path2"/>
    </g>
</svg>
