<?xml version="1.0" encoding="UTF-8" standalone="no"?>
<svg
    xmlns:dc="http://purl.org/dc/elements/1.1/"
    xmlns:cc="http://creativecommons.org/ns#"
    xmlns:rdf="http://www.w3.org/1999/02/22-rdf-syntax-ns#"
    xmlns="http://www.w3.org/2000/svg"
    xmlns:sodipodi="http://sodipodi.sourceforge.net/DTD/sodipodi-0.dtd"
    xmlns:inkscape="http://www.inkscape.org/namespaces/inkscape"
    height="16"
    viewBox="0 0 16 16"
    width="16"
    version="1.1"
    id="svg4"
    sodipodi:docname="first_run_files.svg"
    inkscape:version="0.92.2 2405546, 2018-03-11">
    <metadata
        id="metadata10">
        <rdf:RDF>
            <cc:Work
                rdf:about="">
                <dc:format>image/svg+xml</dc:format>
                <dc:type
                    rdf:resource="http://purl.org/dc/dcmitype/StillImage"/>
                <dc:title></dc:title>
            </cc:Work>
        </rdf:RDF>
    </metadata>
    <defs
        id="defs8"/>
    <sodipodi:namedview
        pagecolor="#ffffff"
        bordercolor="#666666"
        borderopacity="1"
        objecttolerance="10"
        gridtolerance="10"
        guidetolerance="10"
        inkscape:pageopacity="0"
        inkscape:pageshadow="2"
        inkscape:window-width="1600"
        inkscape:window-height="835"
        id="namedview6"
        showgrid="false"
        inkscape:pagecheckerboard="true"
        inkscape:zoom="14.75"
        inkscape:cx="-3.8305085"
        inkscape:cy="8"
        inkscape:window-x="0"
        inkscape:window-y="0"
        inkscape:window-maximized="1"
        inkscape:current-layer="svg4"/>
    <path
        fill="#0082c9"
        d="m1.5 2c-0.25 0-0.5 0.25-0.5 0.5v11c0 0.26 0.24 0.5 0.5 0.5h13c0.26 0 0.5-0.241 0.5-0.5v-9c0-0.25-0.25-0.5-0.5-0.5h-6.5l-2-2h-4.5zm8.75 3.5a1.25 1.25 0 0 1 1.25 1.25 1.25 1.25 0 0 1 -1.25 1.25 1.25 1.25 0 0 1 -0.8008 -0.291l-2.4512 1.2265a1.25 1.25 0 0 1 0.002 0.0645 1.25 1.25 0 0 1 -0.0039 0.0645l2.4531 1.2265a1.25 1.25 0 0 1 0.8008 -0.291 1.25 1.25 0 0 1 1.25 1.25 1.25 1.25 0 0 1 -1.25 1.25 1.25 1.25 0 0 1 -1.25 -1.25 1.25 1.25 0 0 1 0.0039 -0.064l-2.4531-1.227a1.25 1.25 0 0 1 -0.8008 0.291 1.25 1.25 0 0 1 -1.25 -1.25 1.25 1.25 0 0 1 1.25 -1.25 1.25 1.25 0 0 1 0.8008 0.291l2.4512-1.2265a1.25 1.25 0 0 1 -0.002 -0.0645 1.25 1.25 0 0 1 1.25 -1.25z"
        id="path2"
        style="fill:#ffffff;fill-opacity:1"/>
</svg>
