<?xml version="1.0" encoding="UTF-8" standalone="no"?>
<svg
   xmlns:dc="http://purl.org/dc/elements/1.1/"
   xmlns:cc="http://creativecommons.org/ns#"
   xmlns:rdf="http://www.w3.org/1999/02/22-rdf-syntax-ns#"
   xmlns:svg="http://www.w3.org/2000/svg"
   xmlns="http://www.w3.org/2000/svg"
   xmlns:sodipodi="http://sodipodi.sourceforge.net/DTD/sodipodi-0.dtd"
   xmlns:inkscape="http://www.inkscape.org/namespaces/inkscape"
   version="1.1"
   width="24"
   height="24"
   viewBox="0 0 24 24"
   id="svg3738"
   sodipodi:docname="folder-shared.svg"
   inkscape:version="0.92.4 (5da689c313, 2019-01-14)">
  <metadata
     id="metadata3744">
    <rdf:RDF>
      <cc:Work
         rdf:about="">
        <dc:format>image/svg+xml</dc:format>
        <dc:type
           rdf:resource="http://purl.org/dc/dcmitype/StillImage" />
      </cc:Work>
    </rdf:RDF>
  </metadata>
  <defs
     id="defs3742" />
  <sodipodi:namedview
     pagecolor="#ffffff"
     bordercolor="#666666"
     borderopacity="1"
     objecttolerance="10"
     gridtolerance="10"
     guidetolerance="10"
     inkscape:pageopacity="0"
     inkscape:pageshadow="2"
     inkscape:window-width="2520"
     inkscape:window-height="1481"
     id="namedview3740"
     showgrid="false"
     showguides="true"
     inkscape:guide-bbox="true"
     inkscape:zoom="27.812867"
     inkscape:cx="-0.64166953"
     inkscape:cy="11.271299"
     inkscape:window-x="2869"
     inkscape:window-y="-11"
     inkscape:window-maximized="1"
     inkscape:current-layer="svg3738">
    <sodipodi:guide
       position="12.025424,12.737288"
       orientation="1,0"
       id="guide3746"
       inkscape:locked="false" />
    <sodipodi:guide
       position="1.0606602,11.020079"
       orientation="0,1"
       id="guide3748"
       inkscape:locked="false" />
  </sodipodi:namedview>
  <path
     d="M 4 4 C 2.89 4 2 4.89 2 6 L 2 18 A 2 2 0 0 0 4 20 L 20 20 A 2 2 0 0 0 22 18 L 22 8 C 22 6.89 21.1 6 20 6 L 12 6 L 10 4 L 4 4 z M 14.933594 8.1679688 A 1.449999 1.449999 0 0 1 16.382812 9.6191406 A 1.449999 1.449999 0 0 1 14.933594 11.068359 C 14.55176 11.068359 14.208265 10.9194 13.947266 10.677734 L 10.539062 12.664062 C 10.563222 12.77523 10.583984 12.885951 10.583984 13.001953 C 10.583984 13.117952 10.563223 13.228676 10.539062 13.339844 L 13.986328 15.345703 C 14.237662 15.118536 14.566259 14.974609 14.933594 14.974609 A 1.4113325 1.4113325 0 0 1 16.345703 16.384766 C 16.345703 17.162932 15.711761 17.791016 14.933594 17.791016 C 14.155428 17.791016 13.521484 17.162932 13.521484 16.384766 C 13.521484 16.273599 13.536387 16.167908 13.560547 16.066406 L 10.119141 14.060547 C 9.8581421 14.302213 9.5146455 14.451172 9.1328125 14.451172 A 1.449999 1.449999 0 0 1 7.6835938 13.001953 A 1.449999 1.449999 0 0 1 9.1328125 11.552734 C 9.5146455 11.552734 9.8581421 11.701692 10.119141 11.943359 L 13.527344 9.9570312 C 13.503184 9.8458632 13.484375 9.7351412 13.484375 9.6191406 A 1.449999 1.449999 0 0 1 14.933594 8.1679688 z "
     id="path3736" />
</svg>
