<?xml version="1.0" encoding="UTF-8" standalone="no"?>
<!DOCTYPE svg PUBLIC "-//W3C//DTD SVG 1.1//EN" "http://www.w3.org/Graphics/SVG/1.1/DTD/svg11.dtd">
<svg width="100%" height="100%" viewBox="0 0 24 24" version="1.1" xmlns="http://www.w3.org/2000/svg" xmlns:xlink="http://www.w3.org/1999/xlink" xml:space="preserve" xmlns:serif="http://www.serif.com/" style="fill-rule:evenodd;clip-rule:evenodd;stroke-linejoin:round;stroke-miterlimit:2;">
    <path id="path5" d="M19.303,8C20.403,8 21.303,7.1 21.303,6C21.303,4.9 20.403,4 19.303,4C18.203,4 17.303,4.9 17.303,6C17.303,7.1 18.203,8 19.303,8ZM19.303,10C18.203,10 17.303,10.9 17.303,12C17.303,13.1 18.203,14 19.303,14C20.403,14 21.303,13.1 21.303,12C21.303,10.9 20.403,10 19.303,10ZM19.303,16C18.203,16 17.303,16.9 17.303,18C17.303,19.1 18.203,20 19.303,20C20.403,20 21.303,19.1 21.303,18C21.303,16.9 20.403,16 19.303,16Z" style="fill:rgb(117,117,117);fill-rule:nonzero;"/>
    <g transform="matrix(0.0164063,0,0,0.0164063,0.075,20.1938)">
        <path d="M240,-80C218,-80 199.167,-87.833 183.5,-103.5C167.833,-119.167 160,-138 160,-160L160,-560C160,-582 167.833,-600.833 183.5,-616.5C199.167,-632.167 218,-640 240,-640L280,-640L280,-720C280,-775.333 299.5,-822.5 338.5,-861.5C377.5,-900.5 424.667,-920 480,-920C535.333,-920 582.5,-900.5 621.5,-861.5C660.5,-822.5 680,-775.333 680,-720L680,-640L720,-640C742,-640 760.833,-632.167 776.5,-616.5C792.167,-600.833 800,-582 800,-560L800,-160C800,-138 792.167,-119.167 776.5,-103.5C760.833,-87.833 742,-80 720,-80L240,-80ZM240,-160L720,-160L720,-560L240,-560L240,-160ZM480,-280C502,-280 520.833,-287.833 536.5,-303.5C552.167,-319.167 560,-338 560,-360C560,-382 552.167,-400.833 536.5,-416.5C520.833,-432.167 502,-440 480,-440C458,-440 439.167,-432.167 423.5,-416.5C407.833,-400.833 400,-382 400,-360C400,-338 407.833,-319.167 423.5,-303.5C439.167,-287.833 458,-280 480,-280ZM360,-640L600,-640L600,-720C600,-753.333 588.333,-781.667 565,-805C541.667,-828.333 513.333,-840 480,-840C446.667,-840 418.333,-828.333 395,-805C371.667,-781.667 360,-753.333 360,-720L360,-640ZM240,-160L240,-560L240,-160Z" style="fill:rgb(117,117,117);fill-rule:nonzero;"/>
    </g>
</svg>
