<?xml version="1.0" encoding="UTF-8" standalone="no"?>
<svg
   xmlns:dc="http://purl.org/dc/elements/1.1/"
   xmlns:cc="http://creativecommons.org/ns#"
   xmlns:rdf="http://www.w3.org/1999/02/22-rdf-syntax-ns#"
   xmlns:svg="http://www.w3.org/2000/svg"
   xmlns="http://www.w3.org/2000/svg"
   xmlns:sodipodi="http://sodipodi.sourceforge.net/DTD/sodipodi-0.dtd"
   xmlns:inkscape="http://www.inkscape.org/namespaces/inkscape"
   height="16"
   width="16"
   version="1"
   id="svg2"
   inkscape:version="0.91 r13725"
   sodipodi:docname="ic_list_empty_create_folder.svg"
   inkscape:export-filename="C:\DEV\src\Android\Nextcloud\designTweaks\res\drawable-mdpi\ic_list_empty_create_folder.png"
   inkscape:export-xdpi="405"
   inkscape:export-ydpi="405">
  <metadata
     id="metadata10">
    <rdf:RDF>
      <cc:Work
         rdf:about="">
        <dc:format>image/svg+xml</dc:format>
        <dc:type
           rdf:resource="http://purl.org/dc/dcmitype/StillImage" />
        <dc:title />
      </cc:Work>
    </rdf:RDF>
  </metadata>
  <defs
     id="defs8" />
  <sodipodi:namedview
     pagecolor="#ffffff"
     bordercolor="#666666"
     borderopacity="1"
     objecttolerance="10"
     gridtolerance="10"
     guidetolerance="10"
     inkscape:pageopacity="0"
     inkscape:pageshadow="2"
     inkscape:window-width="1920"
     inkscape:window-height="1005"
     id="namedview6"
     showgrid="false"
     inkscape:zoom="29.5"
     inkscape:cx="-12.171603"
     inkscape:cy="13.899981"
     inkscape:window-x="-9"
     inkscape:window-y="-9"
     inkscape:window-maximized="1"
     inkscape:current-layer="svg2" />
  <path
     style="fill:#99cde9;fill-opacity:1"
     d="M 1.4570312 1.9960938 C 1.2070312 1.9960938 0.99609375 2.2070313 0.99609375 2.4570312 L 0.99609375 13.537109 C 0.99609375 13.797109 1.1990312 13.996094 1.4570312 13.996094 L 14.537109 13.996094 C 14.795109 13.996094 14.996094 13.797109 14.996094 13.537109 L 14.996094 4.4609375 C 14.996094 4.2109375 14.787109 3.9960937 14.537109 3.9960938 L 7.9960938 3.9960938 L 5.9960938 1.9960938 L 1.4570312 1.9960938 z M 9.9707031 6.2363281 L 11.306641 6.2363281 L 11.306641 8.25 L 13.314453 8.25 L 13.314453 9.5859375 L 11.306641 9.5859375 L 11.306641 11.589844 L 9.9707031 11.589844 L 9.9707031 9.5859375 L 7.9589844 9.5859375 L 7.9589844 8.25 L 9.9707031 8.25 L 9.9707031 6.2363281 z "
     id="path4" />
</svg>
