<?xml version="1.0" encoding="UTF-8" standalone="no"?>
<!DOCTYPE svg PUBLIC "-//W3C//DTD SVG 1.1//EN" "http://www.w3.org/Graphics/SVG/1.1/DTD/svg11.dtd">
<svg width="100%" height="100%" viewBox="0 0 32 32" version="1.1" xmlns="http://www.w3.org/2000/svg" xmlns:xlink="http://www.w3.org/1999/xlink" xml:space="preserve" xmlns:serif="http://www.serif.com/" style="fill-rule:evenodd;clip-rule:evenodd;stroke-linejoin:round;stroke-miterlimit:2;">
    <g transform="matrix(0.0138277,0,0,0.0138277,17.2649,14.6269)">
        <path d="M-19,-99L-19,-242C-19,-269.333 -12.437,-293.95 0.69,-315.85C13.817,-337.757 31.253,-354.473 53,-366C97,-388.667 142.423,-405.667 189.27,-417C236.117,-428.333 283.693,-434 332,-434C380.08,-434 427.433,-428.333 474.06,-417C520.687,-405.667 566,-388.667 610,-366C631.753,-354.473 649.19,-337.757 662.31,-315.85C675.437,-293.95 682,-269.333 682,-242L682,-99L-19,-99ZM767,-99L767,-254C767,-282 759.333,-312.667 744,-346C728.667,-379.333 704.667,-407.667 672,-431C714,-427 753.5,-419.5 790.5,-408.5C827.5,-397.5 861.667,-383.333 893,-366C920.893,-350.153 942.2,-332.527 956.92,-313.12C971.64,-293.707 979,-274 979,-254L979,-99L767,-99ZM331,-487C279.3,-487 235.043,-505.407 198.23,-542.22C161.41,-579.04 143,-623.3 143,-675C143,-726.7 161.41,-770.96 198.23,-807.78C235.043,-844.593 279.3,-863 331,-863C382.7,-863 426.957,-844.593 463.77,-807.78C500.59,-770.96 519,-726.7 519,-675C519,-623.3 500.59,-579.04 463.77,-542.22C426.957,-505.407 382.7,-487 331,-487ZM816,-675C816,-623.3 797.593,-579.04 760.78,-542.22C723.96,-505.407 679.7,-487 628,-487C618,-487 604.333,-488.167 587,-490.5C569.667,-492.833 556,-495.667 546,-499C565.333,-524.333 579.833,-551.95 589.5,-581.85C599.167,-611.75 604,-642.8 604,-675C604,-707.2 599.167,-738.25 589.5,-768.15C579.833,-798.05 565.333,-825.667 546,-851C559.333,-855.667 573,-858.833 587,-860.5C601,-862.167 614.667,-863 628,-863C679.7,-863 723.96,-844.593 760.78,-807.78C797.593,-770.96 816,-726.7 816,-675Z" style="fill-rule:nonzero;"/>
    </g>
    <g transform="matrix(0.0162037,0,0,0.0162037,0.230375,31.7207)">
        <path d="M154,-130C124.853,-130 99.9,-140.38 79.14,-161.14C58.38,-181.893 48,-206.847 48,-236L48,-724C48,-753.147 58.38,-778.1 79.14,-798.86C99.9,-819.62 124.853,-830 154,-830L806,-830C835.147,-830 860.1,-819.62 880.86,-798.86C901.62,-778.1 912,-753.147 912,-724L912,-236C912,-206.847 901.62,-181.893 880.86,-161.14C860.1,-140.38 835.147,-130 806,-130L154,-130ZM480,-417L806,-616L806,-724L480,-520L154,-724L154,-616L480,-417Z" style="fill-rule:nonzero;"/>
    </g>
    <g transform="matrix(0.0195946,0,0,0.0195946,14.5994,33.3865)">
        <path d="M203.84,-386C177.947,-386 155.833,-395.22 137.5,-413.66C119.167,-432.1 110,-454.267 110,-480.16C110,-506.053 119.22,-528.167 137.66,-546.5C156.1,-564.833 178.267,-574 204.16,-574C230.053,-574 252.167,-564.78 270.5,-546.34C288.833,-527.9 298,-505.733 298,-479.84C298,-453.947 288.78,-431.833 270.34,-413.5C251.9,-395.167 229.733,-386 203.84,-386ZM479.84,-386C453.947,-386 431.833,-395.22 413.5,-413.66C395.167,-432.1 386,-454.267 386,-480.16C386,-506.053 395.22,-528.167 413.66,-546.5C432.1,-564.833 454.267,-574 480.16,-574C506.053,-574 528.167,-564.78 546.5,-546.34C564.833,-527.9 574,-505.733 574,-479.84C574,-453.947 564.78,-431.833 546.34,-413.5C527.9,-395.167 505.733,-386 479.84,-386ZM755.84,-386C729.947,-386 707.833,-395.22 689.5,-413.66C671.167,-432.1 662,-454.267 662,-480.16C662,-506.053 671.22,-528.167 689.66,-546.5C708.1,-564.833 730.267,-574 756.16,-574C782.053,-574 804.167,-564.78 822.5,-546.34C840.833,-527.9 850,-505.733 850,-479.84C850,-453.947 840.78,-431.833 822.34,-413.5C803.9,-395.167 781.733,-386 755.84,-386Z" style="fill-rule:nonzero;"/>
    </g>
    <g transform="matrix(0.0173611,0,0,0.0173611,-0.330337,16.2994)">
        <path d="M200,-80C178,-80 159.167,-87.833 143.5,-103.5C127.833,-119.167 120,-138 120,-160L120,-720C120,-742 127.833,-760.833 143.5,-776.5C159.167,-792.167 178,-800 200,-800L240,-800L240,-880L320,-880L320,-800L640,-800L640,-880L720,-880L720,-800L760,-800C782,-800 800.833,-792.167 816.5,-776.5C832.167,-760.833 840,-742 840,-720L840,-160C840,-138 832.167,-119.167 816.5,-103.5C800.833,-87.833 782,-80 760,-80L200,-80ZM200,-160L760,-160L760,-560L200,-560L200,-160Z" style="fill-rule:nonzero;"/>
    </g>
</svg>
