<?xml version="1.0" encoding="UTF-8" standalone="no"?>
<svg
   xmlns:dc="http://purl.org/dc/elements/1.1/"
   xmlns:cc="http://creativecommons.org/ns#"
   xmlns:rdf="http://www.w3.org/1999/02/22-rdf-syntax-ns#"
   xmlns:svg="http://www.w3.org/2000/svg"
   xmlns="http://www.w3.org/2000/svg"
   xmlns:sodipodi="http://sodipodi.sourceforge.net/DTD/sodipodi-0.dtd"
   xmlns:inkscape="http://www.inkscape.org/namespaces/inkscape"
   height="16"
   width="16"
   version="1.1"
   viewBox="0 0 16 16"
   id="svg4"
   sodipodi:docname="ic_notification_light_grey.svg"
   inkscape:version="0.92.1 r15371"
   inkscape:export-filename="C:\DEV\src\Android\Nextcloud\notifications\src\main\res\drawable-mdpi\ic_notification_light_grey.png"
   inkscape:export-xdpi="432"
   inkscape:export-ydpi="432">
  <metadata
     id="metadata10">
    <rdf:RDF>
      <cc:Work
         rdf:about="">
        <dc:format>image/svg+xml</dc:format>
        <dc:type
           rdf:resource="http://purl.org/dc/dcmitype/StillImage" />
      </cc:Work>
    </rdf:RDF>
  </metadata>
  <defs
     id="defs8" />
  <sodipodi:namedview
     pagecolor="#ffffff"
     bordercolor="#666666"
     borderopacity="1"
     objecttolerance="10"
     gridtolerance="10"
     guidetolerance="10"
     inkscape:pageopacity="0"
     inkscape:pageshadow="2"
     inkscape:window-width="1920"
     inkscape:window-height="1005"
     id="namedview6"
     showgrid="false"
     inkscape:zoom="14.75"
     inkscape:cx="-10.20339"
     inkscape:cy="8"
     inkscape:window-x="-9"
     inkscape:window-y="-9"
     inkscape:window-maximized="1"
     inkscape:current-layer="svg4" />
  <path
     d="m8 2c-0.5523 0-1 0.4477-1 1 0 0.0472 0.021 0.0873 0.0273 0.1328-1.7366 0.4362-3.0273 1.9953-3.0273 3.8672v2l-1 1v1h10v-1l-1-1v-2c0-1.8719-1.291-3.431-3.0273-3.8672 0.0063-0.0455 0.0273-0.0856 0.0273-0.1328 0-0.5523-0.4477-1-1-1zm-2 10c0 1.1046 0.8954 2 2 2s2-0.8954 2-2z"
     fill="#fff"
     id="path2"
     style="fill:#000000;fill-opacity:1;opacity:0.5" />
</svg>
