<?xml version="1.0" encoding="UTF-8" standalone="no"?><!DOCTYPE svg PUBLIC "-//W3C//DTD SVG 1.1//EN"
    "http://www.w3.org/Graphics/SVG/1.1/DTD/svg11.dtd">
<svg style="fill-rule:evenodd;clip-rule:evenodd;stroke-linejoin:round;stroke-miterlimit:2;" height="100%" version="1.1"
    viewBox="0 0 24 24" width="100%" xmlns="http://www.w3.org/2000/svg" xml:space="preserve">
    <g transform="matrix(1.1,0,0,1.1,-1.2,-1.2)">
        <path style="fill-rule:nonzero;"
            d="M22,20.333C22,21.248 21.248,22 20.333,22L17,22L17,20.333L20.333,20.333L20.333,17L22,17L22,20.333ZM3.667,22C2.752,22 2,21.248 2,20.333L2,17L3.667,17L3.667,20.333L7,20.333L7,22L3.667,22ZM6.953,5.5C6.695,5.5 6.493,5.704 6.493,5.964L6.493,18.036C6.493,18.296 6.695,18.5 6.953,18.5L17.056,18.5C17.313,18.5 17.515,18.296 17.515,18.036L17.515,8.286L14.76,5.5L6.953,5.5ZM8.33,15.714L12.004,15.714L12.004,16.643L8.33,16.643L8.33,15.714ZM8.33,12.929L15.678,12.929L15.678,13.857L8.33,13.857L8.33,12.929ZM8.33,10.143L12.923,10.143L12.923,11.071L8.33,11.071L8.33,10.143ZM8.33,7.357L13.841,7.357L13.841,8.286L8.33,8.286L8.33,7.357ZM2,3.667C2,2.752 2.752,2 3.667,2L7,2L7,3.667L3.667,3.667L3.667,7L2,7L2,3.667ZM20.333,2C21.248,2 22,2.752 22,3.667L22,7L20.333,7L20.333,3.667L17,3.667L17,2L20.333,2Z" />
    </g>
</svg>