<?xml version="1.0" encoding="UTF-8" standalone="no"?>
<!DOCTYPE svg PUBLIC "-//W3C//DTD SVG 1.1//EN" "http://www.w3.org/Graphics/SVG/1.1/DTD/svg11.dtd">
<svg width="100%" height="100%" viewBox="0 0 24 24" version="1.1" xmlns="http://www.w3.org/2000/svg" xmlns:xlink="http://www.w3.org/1999/xlink" xml:space="preserve" xmlns:serif="http://www.serif.com/" style="fill-rule:evenodd;clip-rule:evenodd;stroke-linejoin:round;stroke-miterlimit:2;">
    <g transform="matrix(1.1,0,0,1.1,-1.2,-1.2)">
        <path d="M22,20.333C22,21.248 21.248,22 20.333,22L17,22L17,20.333L20.333,20.333L20.333,17L22,17L22,20.333ZM3.667,22C2.752,22 2,21.248 2,20.333L2,17L3.667,17L3.667,20.333L7,20.333L7,22L3.667,22ZM2,3.667C2,2.752 2.752,2 3.667,2L7,2L7,3.667L3.667,3.667L3.667,7L2,7L2,3.667ZM20.333,2C21.248,2 22,2.752 22,3.667L22,7L20.333,7L20.333,3.667L17,3.667L17,2L20.333,2Z" style="fill-rule:nonzero;"/>
        <g transform="matrix(0.720878,0,0,0.720878,3.34947,3.34947)">
            <path d="M5,21C4.45,21 3.979,20.804 3.588,20.413C3.196,20.021 3,19.55 3,19L3,5C3,4.45 3.196,3.979 3.588,3.587C3.979,3.196 4.45,3 5,3L19,3C19.55,3 20.021,3.196 20.413,3.587C20.804,3.979 21,4.45 21,5L21,19C21,19.55 20.804,20.021 20.413,20.413C20.021,20.804 19.55,21 19,21L5,21ZM7,17L14,17L14,15L7,15L7,17ZM7,13L17,13L17,11L7,11L7,13ZM7,9L17,9L17,7L7,7L7,9Z" style="fill-rule:nonzero;"/>
        </g>
    </g>
</svg>
