<?xml version="1.0" encoding="UTF-8" standalone="no"?>
<svg
   xmlns:dc="http://purl.org/dc/elements/1.1/"
   xmlns:cc="http://creativecommons.org/ns#"
   xmlns:rdf="http://www.w3.org/1999/02/22-rdf-syntax-ns#"
   xmlns:svg="http://www.w3.org/2000/svg"
   xmlns="http://www.w3.org/2000/svg"
   xmlns:sodipodi="http://sodipodi.sourceforge.net/DTD/sodipodi-0.dtd"
   xmlns:inkscape="http://www.inkscape.org/namespaces/inkscape"
   enable-background="new 0 0 595.275 311.111"
   xml:space="preserve"
   height="32"
   width="32"
   version="1.1"
   y="0px"
   x="0px"
   viewBox="0 0 32 31.999997"
   id="svg2"
   inkscape:version="0.91 r13725"
   sodipodi:docname="launcher_beta.svg"
   inkscape:export-filename="C:\DEV\src\Android\nextcloud_android_beta\res\mipmap-xhdpi\ic_launcher.png"
   inkscape:export-xdpi="270"
   inkscape:export-ydpi="270"><metadata
     id="metadata12"><rdf:RDF><cc:Work
         rdf:about=""><dc:format>image/svg+xml</dc:format><dc:type
           rdf:resource="http://purl.org/dc/dcmitype/StillImage" /><dc:title></dc:title></cc:Work></rdf:RDF></metadata><defs
     id="defs10" /><sodipodi:namedview
     pagecolor="#ffffff"
     bordercolor="#666666"
     borderopacity="1"
     objecttolerance="10"
     gridtolerance="10"
     guidetolerance="10"
     inkscape:pageopacity="0"
     inkscape:pageshadow="2"
     inkscape:window-width="1920"
     inkscape:window-height="1005"
     id="namedview8"
     showgrid="false"
     inkscape:zoom="3.6875"
     inkscape:cx="1.0680032"
     inkscape:cy="40.080182"
     inkscape:window-x="-9"
     inkscape:window-y="-9"
     inkscape:window-maximized="1"
     inkscape:current-layer="svg2" /><rect
     rx="5"
     ry="5"
     height="32"
     width="32"
     y="-.0000052588"
     x="0"
     fill="#0082c9"
     id="rect4" /><path
     style="enable-background:accumulate;color-rendering:auto;text-decoration-color:#000000;color:#000000;isolation:auto;mix-blend-mode:normal;shape-rendering:auto;solid-color:#000000;block-progression:tb;text-decoration-line:none;image-rendering:auto;white-space:normal;text-indent:0;text-transform:none;text-decoration-style:solid"
     d="m16.023 9.342c-3.1256 0.0003-5.7501 2.1404-6.552 5.0194-0.69991-1.5399-2.2405-2.6312-4.0305-2.6314-2.4366 0.000277-4.44 2.0038-4.4403 4.4405-0.00048201 2.4372 2.0032 4.4411 4.4403 4.4414 1.7902-0.000217 3.3298-1.0922 4.0296-2.6323 0.80161 2.8795 3.427 5.02 6.553 5.0203 3.1085 0.00024 5.7201-2.117 6.5383-4.9719 0.71125 1.5116 2.2282 2.5836 3.9976 2.5838 2.4376 0.000431 4.4416-2.0037 4.4412-4.4414-0.000235-2.4372-2.0041-4.4409-4.4412-4.4405-1.7695 0.000205-3.2873 1.072-3.9985 2.5838-0.8182-2.8548-3.4289-4.9721-6.5374-4.9719zm0 2.6067c2.3473-0.000156 4.2224 1.8745 4.2226 4.2219 0.000118 2.3477-1.875 4.223-4.2226 4.2228-2.3473-0.000228-4.2219-1.8754-4.2217-4.2228 0.000247-2.3471 1.8747-4.2216 4.2217-4.2219zm-10.583 2.388c1.0283 0.000118 1.8336 0.8055 1.8337 1.8338 0.000182 1.0285-0.80524 1.8346-1.8337 1.8347-1.0285-0.00012-1.8339-0.8062-1.8337-1.8347 0.000118-1.0283 0.80546-1.8337 1.8337-1.8338zm21.119 0c1.0285-0.00018 1.8345 0.80527 1.8346 1.8338 0.000245 1.0288-0.8059 1.8349-1.8346 1.8347-1.0285-0.00012-1.8339-0.8062-1.8338-1.8347 0.000118-1.0283 0.80549-1.8337 1.8338-1.8338z"
     fill="#fff"
     id="path6" /><text
     xml:space="preserve"
     style="font-style:normal;font-variant:normal;font-weight:normal;font-stretch:normal;font-size:5px;line-height:125%;font-family:Roboto;-inkscape-font-specification:'Roboto, Normal';text-align:start;letter-spacing:0px;word-spacing:0px;writing-mode:lr-tb;text-anchor:start;fill:#ffffff;fill-opacity:1;stroke:none;stroke-width:1px;stroke-linecap:butt;stroke-linejoin:miter;stroke-opacity:1"
     x="8.3471136"
     y="31.050848"
     id="text4140"
     sodipodi:linespacing="125%"><tspan
       sodipodi:role="line"
       id="tspan4144"
       x="8.3471136"
       y="31.050848">B E T A</tspan></text>
</svg>