<?xml version="1.0" encoding="UTF-8" standalone="no"?>
<!DOCTYPE svg PUBLIC "-//W3C//DTD SVG 1.1//EN" "http://www.w3.org/Graphics/SVG/1.1/DTD/svg11.dtd">
<svg width="100%" height="100%" viewBox="0 0 1064 1064" version="1.1" xmlns="http://www.w3.org/2000/svg" xmlns:xlink="http://www.w3.org/1999/xlink" xml:space="preserve" xmlns:serif="http://www.serif.com/" style="fill-rule:evenodd;clip-rule:evenodd;stroke-linejoin:round;stroke-miterlimit:1.41421;">
    <g id="path6" transform="matrix(1,0,0,1,0,11.9359)">
        <path d="M532.681,316.07C439.33,316.079 360.945,379.999 336.995,465.988C316.091,419.995 270.078,387.4 216.617,387.394C143.844,387.402 84.009,447.243 84,520.022C83.986,592.815 143.829,652.667 216.617,652.676C270.084,652.669 316.067,620.055 336.968,574.055C360.909,660.059 439.321,723.991 532.684,724C625.524,724.01 703.524,660.77 727.961,575.501C749.204,620.649 794.51,652.667 847.356,652.673C920.159,652.686 980.012,592.827 980,520.019C979.99,447.225 920.144,387.379 847.356,387.391C794.507,387.397 749.176,419.409 727.934,464.563C703.497,379.297 625.524,316.058 532.684,316.064L532.681,316.07ZM532.681,393.926C602.787,393.921 658.79,449.913 658.796,520.025C658.8,590.145 602.796,646.156 532.681,646.15C462.575,646.143 406.587,590.136 406.593,520.025C406.6,449.922 462.584,393.935 532.681,393.926ZM216.602,465.25C247.314,465.254 271.366,489.309 271.369,520.022C271.374,550.741 247.319,574.817 216.602,574.82C185.884,574.816 161.83,550.741 161.836,520.022C161.84,489.309 185.892,465.253 216.602,465.25ZM847.356,465.25C878.074,465.245 902.147,489.302 902.15,520.022C902.16,550.75 878.08,574.826 847.356,574.82C816.638,574.816 792.584,550.741 792.587,520.022C792.587,489.309 816.644,465.253 847.356,465.25Z" style="fill:white;fill-rule:nonzero;"/>
    </g>
</svg>
