<?xml version="1.0" encoding="UTF-8" standalone="no"?>
<svg xmlns:dc="http://purl.org/dc/elements/1.1/" xmlns:cc="http://creativecommons.org/ns#"
    xmlns:rdf="http://www.w3.org/1999/02/22-rdf-syntax-ns#" xmlns="http://www.w3.org/2000/svg"
    xmlns:sodipodi="http://sodipodi.sourceforge.net/DTD/sodipodi-0.dtd"
    xmlns:inkscape="http://www.inkscape.org/namespaces/inkscape" width="100%" height="100%" viewBox="0 0 1064 1064"
    version="1.1" xml:space="preserve"
    style="fill-rule:evenodd;clip-rule:evenodd;stroke-linejoin:round;stroke-miterlimit:1.41421;" id="svg15"
    sodipodi:docname="logo_qa.svg" inkscape:version="0.92.4 5da689c313, 2019-01-14"><metadata
     id="metadata21"><rdf:RDF><cc:Work
         rdf:about=""><dc:format>image/svg+xml</dc:format><dc:type
    rdf:resource="http://purl.org/dc/dcmitype/StillImage" /><dc:title></dc:title></cc:Work></rdf:RDF></metadata>
    <defs id="defs19" />
    <sodipodi:namedview pagecolor="#ffffff" bordercolor="#666666" borderopacity="1" objecttolerance="10"
        gridtolerance="10" guidetolerance="10" inkscape:pageopacity="0" inkscape:pageshadow="2"
        inkscape:window-width="1920" inkscape:window-height="1171" id="namedview17" showgrid="false"
        inkscape:zoom="0.44360902" inkscape:cx="322.43529" inkscape:cy="149.39575" inkscape:window-x="1920"
        inkscape:window-y="0" inkscape:window-maximized="1" inkscape:current-layer="svg15"
        inkscape:pagecheckerboard="true" />
    <g id="path6" transform="translate(-140,-136.064)"><path
       d="M 672.681,456.07 C 579.33,456.08 500.945,519.999 476.995,605.988 456.091,559.995 410.078,527.4 356.617,527.394 283.844,527.404 224.009,587.243 224,660.022 c -0.014,72.793 59.829,132.645 132.617,132.654 53.467,-0.01 99.45,-32.621 120.351,-78.621 23.941,86.004 102.353,149.936 195.716,149.945 92.84,0.01 170.84,-63.23 195.277,-148.499 21.243,45.148 66.549,77.166 119.395,77.172 72.804,0.013 132.654,-59.846 132.644,-132.654 -0.01,-72.794 -59.86,-132.64 -132.644,-132.628 -52.849,0.01 -98.18,32.018 -119.422,77.172 -24.437,-85.266 -102.41,-148.505 -195.25,-148.499 z m 0,77.856 c 70.106,0 126.109,55.987 126.115,126.099 0,70.12 -56,126.131 -126.115,126.125 -70.106,-0.01 -126.094,-56.014 -126.088,-126.125 0.01,-70.103 55.991,-126.09 126.088,-126.099 z M 356.602,605.25 c 30.712,0 54.764,24.059 54.767,54.772 0,30.719 -24.05,54.795 -54.767,54.798 -30.718,0 -54.772,-24.079 -54.766,-54.798 0,-30.713 24.056,-54.769 54.766,-54.772 z m 630.754,0 c 30.714,-0.01 54.794,24.052 54.794,54.772 0.01,30.728 -24.07,54.804 -54.794,54.798 -30.718,0 -54.772,-24.079 -54.769,-54.798 0,-30.713 24.057,-54.769 54.769,-54.772 z"
       style="fill:#ffffff;fill-rule:nonzero"
       id="path12"
       inkscape:connector-curvature="0" /></g>
    <g aria-label="QA"
        style="font-style:normal;font-variant:normal;font-weight:normal;font-stretch:normal;font-size:163.70762634px;line-height:125%;font-family:Helvetica;-inkscape-font-specification:Helvetica;text-align:center;letter-spacing:0px;word-spacing:0px;text-anchor:middle;clip-rule:evenodd;fill:#ffffff;fill-opacity:1;fill-rule:evenodd;stroke:none;stroke-width:8.18538094px;stroke-linecap:butt;stroke-linejoin:miter;stroke-miterlimit:1.41420996;stroke-opacity:1"
        id="text828" transform="translate(3e-5,-2.7252)"><path
       d="m 521.96809,867.9572 q 0,11.35082 -3.99677,21.023 -3.99677,9.67218 -11.19095,16.38675 l 19.74403,18.62494 -10.79127,10.31166 -22.06216,-20.54339 q -4.47638,1.83851 -9.35244,2.7178 -4.79612,0.95923 -9.91199,0.95923 -20.38351,0 -33.17317,-14.06863 -12.70973,-14.06862 -12.70973,-35.41136 v -20.70326 q 0,-21.26281 12.70973,-35.41137 12.78966,-14.14856 33.17317,-14.14856 21.10294,0 34.29228,14.14856 13.26927,14.06863 13.26927,35.41137 z m -15.74727,-20.86313 q 0,-15.98708 -8.63302,-26.2188 -8.63302,-10.23173 -23.18126,-10.23173 -13.74888,0 -21.98222,10.23173 -8.15341,10.23172 -8.15341,26.2188 v 20.86313 q 0,16.14694 8.15341,26.37867 8.23334,10.23172 21.98222,10.23172 14.62818,0 23.18126,-10.15179 8.63302,-10.23172 8.63302,-26.4586 z"
       style="font-style:normal;font-variant:normal;font-weight:normal;font-stretch:normal;font-family:Roboto;-inkscape-font-specification:Roboto;fill:#ffffff;stroke-width:8.18538094px"
       id="path815"
       inkscape:connector-curvature="0" />
        <path
            d="m 608.53808,885.78278 h -48.76057 l -11.03108,29.97576 h -16.06701 l 45.00361,-116.38589 h 13.50908 L 635.4763,915.75854 H 619.40929 Z M 564.65357,872.59345 H 603.8219 L 584.63741,819.5963 h -0.47961 z"
            style="font-style:normal;font-variant:normal;font-weight:normal;font-stretch:normal;font-family:Roboto;-inkscape-font-specification:Roboto;fill:#ffffff;stroke-width:8.18538094px"
            id="path817" inkscape:connector-curvature="0" /></g></svg>
