<?xml version="1.0" encoding="UTF-8" standalone="no"?>
<!DOCTYPE svg PUBLIC "-//W3C//DTD SVG 1.1//EN" "http://www.w3.org/Graphics/SVG/1.1/DTD/svg11.dtd">
<svg width="100%" height="100%" viewBox="0 0 900 450" version="1.1" xmlns="http://www.w3.org/2000/svg" xmlns:xlink="http://www.w3.org/1999/xlink" xml:space="preserve" xmlns:serif="http://www.serif.com/" style="fill-rule:evenodd;clip-rule:evenodd;stroke-linejoin:round;stroke-miterlimit:2;">
    <g transform="matrix(1,0,0,1.00016,-222,-435.136)">
        <g id="path6">
            <path id="path2" d="M672.681,456.07C579.33,456.08 500.945,519.999 476.995,605.988C456.091,559.995 410.078,527.4 356.617,527.394C283.844,527.404 224.009,587.243 224,660.022C223.986,732.815 283.829,792.667 356.617,792.676C410.084,792.666 456.067,760.055 476.968,714.055C500.909,800.059 579.321,863.991 672.684,864C765.524,864.01 843.524,800.77 867.961,715.501C889.204,760.649 934.51,792.667 987.356,792.673C1060.16,792.686 1120.01,732.827 1120,660.019C1119.99,587.225 1060.14,527.379 987.356,527.391C934.507,527.401 889.176,559.409 867.934,604.563C843.497,519.297 765.524,456.058 672.684,456.064L672.681,456.07ZM672.681,533.926C742.787,533.926 798.79,589.913 798.796,660.025C798.796,730.145 742.796,786.156 672.681,786.15C602.575,786.14 546.587,730.136 546.593,660.025C546.603,589.922 602.584,533.935 672.681,533.926ZM356.602,605.25C387.314,605.25 411.366,629.309 411.369,660.022C411.369,690.741 387.319,714.817 356.602,714.82C325.884,714.82 301.83,690.741 301.836,660.022C301.836,629.309 325.892,605.253 356.602,605.25ZM987.356,605.25C1018.07,605.24 1042.15,629.302 1042.15,660.022C1042.16,690.75 1018.08,714.826 987.356,714.82C956.638,714.82 932.584,690.741 932.587,660.022C932.587,629.309 956.644,605.253 987.356,605.25Z" style="fill:white;fill-rule:nonzero;"/>
        </g>
    </g>
</svg>
