<?xml version="1.0" encoding="UTF-8" standalone="no"?>
<!DOCTYPE svg PUBLIC "-//W3C//DTD SVG 1.1//EN" "http://www.w3.org/Graphics/SVG/1.1/DTD/svg11.dtd">
<svg width="100%" height="100%" viewBox="0 0 26 26" version="1.1" xmlns="http://www.w3.org/2000/svg" xmlns:xlink="http://www.w3.org/1999/xlink" xml:space="preserve" xmlns:serif="http://www.serif.com/" style="fill-rule:evenodd;clip-rule:evenodd;stroke-linejoin:round;stroke-miterlimit:1.41421;">
    <path id="path4" d="M23.563,22.69L14.635,22.69L14.635,20.838L23.563,20.838L23.563,22.69ZM11.59,2.133C16.177,2.138 20.131,5.479 20.902,10L18.979,10C18.232,6.53 15.139,4.029 11.59,4.025C7.44,4.026 4.026,7.44 4.025,11.59C4.025,15.74 7.44,19.156 11.59,19.156C12.068,19.155 12.546,19.109 13.016,19.018L13.016,20.922C12.544,21 12.068,21.043 11.59,21.049C6.36,21.049 2.133,16.791 2.133,11.59C2.133,6.402 6.402,2.133 11.59,2.133ZM20.587,18.06L14.635,18.06L14.635,16.208L20.587,16.208L20.587,18.06ZM12.062,6.863L12.062,11.826L13.016,12.393L13.016,13.957L10.645,12.535L10.645,6.863L12.062,6.863ZM17.611,13.429L14.635,13.429L14.635,11.577L17.611,11.577L17.611,13.429Z" style="fill:rgb(117,117,117);fill-rule:nonzero;"/>
</svg>
