<?xml version="1.0" encoding="UTF-8" standalone="no"?>
<!DOCTYPE svg PUBLIC "-//W3C//DTD SVG 1.1//EN" "http://www.w3.org/Graphics/SVG/1.1/DTD/svg11.dtd">
<svg width="100%" height="100%" viewBox="0 0 160 160" version="1.1" xmlns="http://www.w3.org/2000/svg" xmlns:xlink="http://www.w3.org/1999/xlink" xml:space="preserve" xmlns:serif="http://www.serif.com/" style="fill-rule:evenodd;clip-rule:evenodd;stroke-linejoin:round;stroke-miterlimit:2;">
    <g id="path1052" transform="matrix(1.28411,0,0,1.28411,-22.9758,-22.7698)">
        <path d="M80.093,39.773C67.5,39.773 56.827,48.31 53.519,59.876C50.644,53.741 44.414,49.443 37.238,49.443C27.37,49.443 19.257,57.556 19.257,67.424C19.257,77.293 27.37,85.409 37.238,85.409C44.414,85.409 50.644,81.108 53.519,74.972C56.827,86.539 67.5,95.079 80.093,95.079C92.592,95.079 103.21,86.668 106.603,75.231C109.531,81.228 115.684,85.409 122.758,85.409C132.627,85.409 140.742,77.293 140.742,67.424C140.742,57.556 132.627,49.443 122.758,49.443C115.684,49.443 109.531,53.622 106.603,59.617C103.21,48.181 92.592,39.773 80.093,39.773ZM80.093,50.329C89.598,50.329 97.192,57.919 97.192,67.424C97.192,76.93 89.598,84.524 80.093,84.524C70.587,84.524 62.997,76.93 62.997,67.424C62.997,57.919 70.587,50.329 80.093,50.329ZM37.238,59.999C41.403,59.999 44.668,63.26 44.668,67.424C44.668,71.589 41.403,74.854 37.238,74.854C33.074,74.854 29.813,71.589 29.813,67.424C29.813,63.26 33.074,59.999 37.238,59.999ZM122.758,59.999C126.923,59.999 130.187,63.26 130.187,67.424C130.187,71.589 126.923,74.854 122.758,74.854C118.593,74.854 115.332,71.589 115.332,67.424C115.332,63.26 118.593,59.999 122.758,59.999Z" style="fill:white;fill-rule:nonzero;"/>
    </g>
    <g id="path1174" transform="matrix(1.28411,0,0,1.28411,-22.9758,-22.7698)">
        <path d="M31.909,103.42C31.558,103.42 31.406,103.62 31.406,103.972L31.406,118.524C31.406,118.875 31.558,119.073 31.909,119.073L32.312,119.073C32.663,119.073 32.861,118.875 32.861,118.524L32.861,106.44L40.805,118.768C40.839,118.822 40.877,118.858 40.915,118.897C40.926,118.911 40.934,118.925 40.946,118.936C40.98,118.967 41.017,118.983 41.054,119.002C41.074,119.013 41.09,119.029 41.112,119.036C41.128,119.042 41.145,119.039 41.161,119.043C41.217,119.057 41.275,119.072 41.342,119.072L41.742,119.072C42.094,119.072 42.245,118.874 42.245,118.523L42.245,103.972C42.245,103.62 42.094,103.42 41.742,103.42L41.342,103.42C40.991,103.42 40.79,103.62 40.79,103.972L40.79,116.056L32.846,103.728C32.819,103.686 32.787,103.66 32.756,103.628C32.664,103.498 32.519,103.42 32.312,103.42L31.909,103.42ZM127.29,103.62C126.939,103.62 127.09,103.821 127.09,104.172L127.09,109.14C127.09,109.642 127.139,109.992 127.139,109.992L127.09,109.992C127.09,109.992 126.136,107.785 123.477,107.785C120.567,107.785 118.509,110.093 118.609,113.505C118.609,116.917 120.466,119.276 123.426,119.276C126.286,119.276 127.239,116.966 127.239,116.966L127.29,116.966C127.29,116.966 127.19,117.268 127.19,117.67L127.19,118.521C127.19,118.873 127.391,119.024 127.742,119.024L128.093,119.024C128.445,119.024 128.594,118.824 128.594,118.473L128.594,104.172C128.594,103.821 128.042,103.62 127.691,103.62L127.29,103.62ZM88.304,103.672C87.953,103.672 88.155,103.872 88.155,104.223L88.155,116.515C88.155,118.923 89.759,119.225 90.662,119.225C91.064,119.225 91.214,119.024 91.214,118.673L91.214,118.321C91.214,117.97 91.013,117.821 90.762,117.821C90.26,117.771 89.61,117.619 89.61,116.215L89.61,104.223C89.61,103.872 89.058,103.672 88.707,103.672L88.304,103.672ZM70.292,104.975C69.941,104.975 69.741,105.176 69.741,105.527L69.741,115.06C69.741,117.669 71.197,119.125 73.605,119.125C74.057,119.125 74.206,118.975 74.206,118.624L74.206,118.321C74.206,117.92 74.057,117.82 73.605,117.77C72.752,117.72 71.196,117.419 71.196,114.86L71.196,109.34L73.454,109.34C73.805,109.34 74.006,109.191 74.006,108.84L74.006,108.688C74.006,108.337 73.805,108.137 73.454,108.137L71.196,108.137L71.196,105.527C71.196,105.176 71.046,104.975 70.695,104.975L70.292,104.975ZM50.308,107.785C47.298,107.785 44.888,109.944 44.838,113.556C44.838,116.968 47.347,119.325 50.609,119.325C52.365,119.325 53.669,118.573 54.271,118.121C54.522,117.921 54.572,117.669 54.422,117.418L54.271,117.169C54.12,116.868 53.871,116.817 53.57,117.018C53.068,117.419 52.062,118.021 50.658,118.021C48.4,118.021 46.443,116.415 46.393,113.605L54.371,113.605C54.672,113.605 54.922,113.354 54.922,113.053C54.922,109.892 53.269,107.785 50.308,107.785ZM81.481,107.785C78.219,107.785 75.711,110.193 75.661,113.605C75.661,117.017 78.17,119.376 81.432,119.376C83.439,119.376 84.793,118.421 85.345,117.97C85.596,117.719 85.645,117.519 85.494,117.218L85.345,117.018C85.144,116.717 84.943,116.666 84.642,116.866C84.14,117.318 83.087,118.021 81.532,118.021C79.124,118.021 77.216,116.214 77.216,113.605C77.216,110.946 79.124,109.14 81.532,109.14C82.836,109.14 83.789,109.792 84.29,110.143C84.592,110.344 84.842,110.344 85.042,110.043L85.194,109.792C85.445,109.491 85.393,109.241 85.142,109.04C84.591,108.588 83.387,107.785 81.481,107.785L81.481,107.785ZM98.44,107.785C95.229,107.785 92.62,110.244 92.62,113.505C92.62,116.816 95.229,119.325 98.44,119.325C101.651,119.325 104.26,116.816 104.26,113.505C104.26,110.244 101.651,107.785 98.44,107.785ZM65.981,107.953C65.858,107.973 65.74,108.056 65.627,108.19L63.596,110.61L62.078,112.421L59.776,109.679L58.528,108.19C58.415,108.056 58.287,107.982 58.155,107.971C58.022,107.96 57.884,108.009 57.749,108.122L57.442,108.381C57.173,108.606 57.187,108.856 57.412,109.125L59.444,111.545L61.128,113.554L58.662,116.49C58.66,116.493 58.659,116.496 58.658,116.497L57.412,117.979C57.187,118.248 57.212,118.532 57.481,118.757L57.788,119.014C58.057,119.24 58.302,119.183 58.528,118.914L60.557,116.494L62.078,114.683L64.38,117.427C64.381,117.429 64.383,117.431 64.385,117.432L65.627,118.917C65.853,119.186 66.137,119.208 66.406,118.982L66.714,118.726C66.983,118.5 66.969,118.25 66.743,117.981L64.712,115.56L63.027,113.553L65.493,110.614C65.496,110.612 65.497,110.609 65.498,110.607L66.743,109.126C66.969,108.856 66.944,108.573 66.675,108.347L66.367,108.09C66.232,107.978 66.104,107.934 65.981,107.954L65.981,107.953ZM107.221,108.037C106.87,108.037 106.718,108.237 106.718,108.588L106.718,115.06C106.718,117.92 108.826,119.325 111.435,119.325C114.044,119.325 116.151,117.92 116.151,115.06L116.151,108.588C116.201,108.237 116.002,108.037 115.651,108.037L115.248,108.037C114.897,108.037 114.696,108.237 114.696,108.588L114.696,114.66C114.696,116.366 113.592,117.921 111.435,117.921C109.327,117.921 108.173,116.366 108.173,114.66L108.173,108.588C108.173,108.237 107.973,108.037 107.621,108.037L107.221,108.037ZM50.257,109.04C51.863,109.04 53.267,110.194 53.367,112.502L46.444,112.502C46.795,110.244 48.401,109.04 50.257,109.04ZM98.44,109.14C100.798,109.14 102.705,110.996 102.705,113.505C102.705,116.114 100.798,118.021 98.44,118.021C96.082,118.021 94.174,116.064 94.124,113.505C94.124,111.046 96.082,109.14 98.44,109.14ZM123.577,109.14C125.935,109.14 127.09,111.298 127.09,113.556C127.09,116.717 125.382,118.021 123.526,118.021C121.469,118.021 120.066,116.266 120.016,113.556C120.016,110.747 121.62,109.14 123.577,109.14Z" style="fill:white;fill-rule:nonzero;"/>
    </g>
</svg>
