<?xml version="1.0" encoding="UTF-8" standalone="no"?>
<!DOCTYPE svg PUBLIC "-//W3C//DTD SVG 1.1//EN" "http://www.w3.org/Graphics/SVG/1.1/DTD/svg11.dtd">
<svg width="100%" height="100%" viewBox="0 0 116 116" version="1.1" xmlns="http://www.w3.org/2000/svg" xmlns:xlink="http://www.w3.org/1999/xlink" xml:space="preserve" xmlns:serif="http://www.serif.com/" style="fill-rule:evenodd;clip-rule:evenodd;stroke-linejoin:round;stroke-miterlimit:2;">
    <g transform="matrix(0.934491,0,0,0.934491,-16.6897,-5.00788)">
        <path id="logo" d="M80.093,39.773C67.5,39.773 56.827,48.31 53.519,59.876C50.644,53.741 44.414,49.443 37.238,49.443C27.37,49.443 19.257,57.556 19.257,67.424C19.257,77.293 27.37,85.409 37.238,85.409C44.414,85.409 50.644,81.108 53.519,74.972C56.827,86.539 67.5,95.079 80.093,95.079C92.592,95.079 103.21,86.668 106.603,75.231C109.531,81.228 115.684,85.409 122.758,85.409C132.627,85.409 140.742,77.293 140.742,67.424C140.742,57.556 132.627,49.443 122.758,49.443C115.684,49.443 109.531,53.622 106.603,59.617C103.21,48.181 92.592,39.773 80.093,39.773ZM80.093,50.329C89.598,50.329 97.192,57.919 97.192,67.424C97.192,76.93 89.598,84.524 80.093,84.524C70.587,84.524 62.997,76.93 62.997,67.424C62.997,57.919 70.587,50.329 80.093,50.329ZM37.238,59.999C41.403,59.999 44.668,63.26 44.668,67.424C44.668,71.589 41.403,74.854 37.238,74.854C33.074,74.854 29.813,71.589 29.813,67.424C29.813,63.26 33.074,59.999 37.238,59.999ZM122.758,59.999C126.923,59.999 130.187,63.26 130.187,67.424C130.187,71.589 126.923,74.854 122.758,74.854C118.593,74.854 115.332,71.589 115.332,67.424C115.332,63.26 118.593,59.999 122.758,59.999Z" style="fill:white;fill-rule:nonzero;"/>
    </g>
</svg>
