<?xml version="1.0" encoding="utf-8"?><!-- Generator: Adobe Illustrator 23.0.1, SVG Export Plug-In . SVG Version: 6.00 Build 0)  -->
<svg version="1.1" xmlns="http://www.w3.org/2000/svg" x="0px" y="0px" width="24px" height="24px" viewBox="0 0 24 24"
    enable-background="new 0 0 24 24" xml:space="preserve">
<g id="Bounding_Box">
	<rect fill="none" width="24" height="24" />
</g>
    <g id="Flat">
	<g id="ui_x5F_spec_x5F_header_copy_2">
	</g>
        <g>
		<path d="M17,19.22H5V7h7V5H5C3.9,5,3,5.9,3,7v12c0,1.1,0.9,2,2,2h12c1.1,0,2-0.9,2-2v-7h-2V19.22z" />
            <path d="M19,2h-2v3h-3c0.01,0.01,0,2,0,2h3v2.99c0.01,0.01,2,0,2,0V7h3V5h-3V2z" />
            <rect x="7" y="9" width="8" height="2" />
            <polygon points="7,12 7,14 15,14 15,12 12,12 		" />
            <rect x="7" y="15" width="8" height="2" />
	</g>
</g>
</svg>
