<?xml version="1.0" encoding="UTF-8" standalone="no"?>
<svg xmlns:dc="http://purl.org/dc/elements/1.1/" xmlns:cc="http://creativecommons.org/ns#"
    xmlns:rdf="http://www.w3.org/1999/02/22-rdf-syntax-ns#" xmlns="http://www.w3.org/2000/svg"
    xmlns:sodipodi="http://sodipodi.sourceforge.net/DTD/sodipodi-0.dtd"
    xmlns:inkscape="http://www.inkscape.org/namespaces/inkscape" inkscape:export-ydpi="384" inkscape:export-xdpi="384"
    inkscape:export-filename="C:\DEV\src\Android\Nextcloud\greySharedIndicator\res\drawable-xxxhdpi\shared_via_link.png"
    inkscape:version="1.0 (4035a4fb49, 2020-05-01)" sodipodi:docname="shared_via_link.svg" id="svg8" version="1.1"
    width="16" height="16">
  <metadata
     id="metadata14">
    <rdf:RDF>
      <cc:Work
         rdf:about="">
        <dc:format>image/svg+xml</dc:format>
        <dc:type
           rdf:resource="http://purl.org/dc/dcmitype/StillImage" />
      </cc:Work>
    </rdf:RDF>
  </metadata>
  <defs
     id="defs12" />
  <sodipodi:namedview inkscape:document-rotation="0" inkscape:current-layer="g6" inkscape:window-maximized="1"
      inkscape:window-y="0" inkscape:window-x="0" inkscape:cy="8.0173062" inkscape:cx="5.9813853"
      inkscape:zoom="41.7193" showgrid="false" id="namedview10" inkscape:window-height="1141"
      inkscape:window-width="1920" inkscape:pageshadow="2" inkscape:pageopacity="0" guidetolerance="10"
      gridtolerance="10" objecttolerance="10" borderopacity="1" bordercolor="#666666" pagecolor="#ffffff" />
  <g style="fill:#000000;fill-opacity:1;stroke:#ffffff;stroke-opacity:1;stroke-width:0.2;stroke-miterlimit:4;stroke-dasharray:none;opacity:0.8"
      id="g6" color="#000">
    <path id="path2"
        d="M5.99 5.318a3.332 3.332 0 0 0 0 4.693c.116.118.226.22.355.315l1.383-1.383A1.4 1.4 0 0 1 7.33 6.66l3.352-3.352c.568-.57 1.442-.57 2.01 0s.57 1.442 0 2.01l-1.13 1.132c.34.725.464 1.518.377 2.304l2.094-2.095c1.288-1.29 1.288-3.406 0-4.694s-3.405-1.288-4.693 0L5.99 5.318z"
        style="block-progression:tb;text-transform:none;text-indent:0;fill:#000000;fill-opacity:1;stroke:none;stroke-opacity:1;stroke-width:0;stroke-miterlimit:4;stroke-dasharray:none" />
    <path id="path4"
        d="M10.01 10.68a3.332 3.332 0 0 0 0-4.692 3.126 3.126 0 0 0-.355-.314L8.272 7.057A1.4 1.4 0 0 1 8.67 9.34l-3.35 3.35c-.57.57-1.444.57-2.013.002s-.568-1.442 0-2.01L4.44 9.55a4.288 4.288 0 0 1-.38-2.305L1.967 9.34c-1.288 1.29-1.288 3.405 0 4.693s3.405 1.29 4.693 0l3.35-3.352z"
        style="block-progression:tb;text-transform:none;text-indent:0;fill:#000000;fill-opacity:1;stroke:none;stroke-opacity:1;stroke-width:0.2;stroke-miterlimit:4;stroke-dasharray:none" />
  </g>
</svg>
