<?xml version="1.0" encoding="UTF-8" standalone="no"?>
<svg
   xmlns:dc="http://purl.org/dc/elements/1.1/"
   xmlns:cc="http://creativecommons.org/ns#"
   xmlns:rdf="http://www.w3.org/1999/02/22-rdf-syntax-ns#"
   xmlns:svg="http://www.w3.org/2000/svg"
   xmlns="http://www.w3.org/2000/svg"
   xmlns:sodipodi="http://sodipodi.sourceforge.net/DTD/sodipodi-0.dtd"
   xmlns:inkscape="http://www.inkscape.org/namespaces/inkscape"
   version="1.1"
   width="24"
   height="24"
   viewBox="0 0 24 24"
   id="svg2"
   inkscape:version="0.91 r13725"
   sodipodi:docname="size_asc.svg"
   inkscape:export-filename="C:\DEV\src\Android\Nextcloud\newSortingLayout\res\drawable-xxxhdpi\ic_size_asc.png"
   inkscape:export-xdpi="360"
   inkscape:export-ydpi="360">
  <metadata
     id="metadata10">
    <rdf:RDF>
      <cc:Work
         rdf:about="">
        <dc:format>image/svg+xml</dc:format>
        <dc:type
           rdf:resource="http://purl.org/dc/dcmitype/StillImage" />
        <dc:title />
      </cc:Work>
    </rdf:RDF>
  </metadata>
  <defs
     id="defs8" />
  <sodipodi:namedview
     pagecolor="#ffffff"
     bordercolor="#666666"
     borderopacity="1"
     objecttolerance="10"
     gridtolerance="10"
     guidetolerance="10"
     inkscape:pageopacity="0"
     inkscape:pageshadow="2"
     inkscape:window-width="1920"
     inkscape:window-height="1005"
     id="namedview6"
     showgrid="false"
     inkscape:zoom="11.313709"
     inkscape:cx="-26.982302"
     inkscape:cy="7.1318512"
     inkscape:window-x="-9"
     inkscape:window-y="-9"
     inkscape:window-maximized="1"
     inkscape:current-layer="svg2" />
  <g
     inkscape:groupmode="layer"
     id="layer3"
     inkscape:label="Layer 3" />
  <g
     inkscape:groupmode="layer"
     id="layer2"
     inkscape:label="Layer 2"
     style="display:inline" />
  <g
     inkscape:groupmode="layer"
     id="layer1"
     inkscape:label="Layer 1" />
  <path
     inkscape:connector-curvature="0"
     d="m 16.137059,17.154209 4.770256,0 0,1.484309 -4.770256,0 m 0,3.71077 0,-1.484309 7.155385,0 0,1.484309 m -7.155385,-8.905849 2.385129,0 0,1.484307 -2.385129,0 0,-1.484307 z"
     id="path4-8"
     style="fill:#757575;fill-opacity:1" />
  <path
     style="fill:#757575;fill-opacity:1"
     d="M 9.7616806,1.690984 A 8.866,8.866 0 0 0 0.89449351,10.556218 8.866,8.866 0 0 0 9.7616806,19.423406 8.866,8.866 0 0 0 14.642541,17.94489 l 0,-2.265625 A 7.0928,7.0928 0 0 1 9.7616806,17.649968 7.0928,7.0928 0 0 1 2.667931,10.556218 7.0928,7.0928 0 0 1 9.7616806,3.4644215 7.0928,7.0928 0 0 1 16.853478,10.556218 7.0928,7.0928 0 0 1 16.714806,11.950749 l 1.796875,0 A 8.866,8.866 0 0 0 18.626916,10.556218 8.866,8.866 0 0 0 9.7616806,1.690984 Z m 0,3.546875 0,5.318359 -3.7597652,3.759766 c 2.0746439,2.074644 5.4429346,2.074644 7.5175786,0 2.08351,-2.074644 2.08351,-5.4429341 0,-7.5175781 C 12.482172,5.7522179 11.118179,5.237859 9.7616806,5.237859 Z"
     id="path4-88"
     inkscape:connector-curvature="0" />
</svg>
