<?xml version="1.0" encoding="UTF-8" standalone="no"?><!DOCTYPE svg PUBLIC "-//W3C//DTD SVG 1.1//EN" "http://www.w3.org/Graphics/SVG/1.1/DTD/svg11.dtd"><svg width="100%" height="100%" viewBox="0 0 26 26" version="1.1" xmlns="http://www.w3.org/2000/svg" xmlns:xlink="http://www.w3.org/1999/xlink" xml:space="preserve" xmlns:serif="http://www.serif.com/" style="fill-rule:evenodd;clip-rule:evenodd;stroke-linejoin:round;stroke-miterlimit:1.41421;"><path id="path4-88" d="M17.611,20.838l0,1.852l-2.976,0l0,-1.852l2.976,0Zm-7.199,-19.033c4.71,0.005 8.733,3.528 9.361,8.195l-1.904,0c-0.612,-3.624 -3.782,-6.303 -7.457,-6.305c-4.15,0 -7.566,3.415 -7.566,7.565c0,0 0,0 0,0.001c0,4.15 3.415,7.565 7.565,7.565c0.001,0 0.001,0 0.001,0c0.889,-0.004 1.77,-0.165 2.604,-0.474l0,1.986c-0.846,0.248 -1.723,0.376 -2.604,0.381c-5.188,0 -9.457,-4.269 -9.457,-9.457c0,-0.001 0,-0.002 0,-0.002c0.001,-5.187 4.27,-9.455 9.457,-9.455Zm10.175,14.403l0,1.852l-5.952,0l0,-1.852l5.952,0Zm-10.175,-10.62l0,5.672l-4.01,4.01c1.789,1.788 4.479,2.13 6.614,1.027l0,-6.297l2.925,0c-0.229,-1.007 -0.734,-1.964 -1.521,-2.748c-1.107,-1.116 -2.561,-1.664 -4.008,-1.664Zm13.151,5.989l0,1.852l-8.928,0l0,-1.852l8.928,0Z" style="fill:#757575;fill-rule:nonzero;"/></svg>