<?xml version="1.0" encoding="UTF-8" standalone="no"?>
<svg
   xmlns:dc="http://purl.org/dc/elements/1.1/"
   xmlns:cc="http://creativecommons.org/ns#"
   xmlns:rdf="http://www.w3.org/1999/02/22-rdf-syntax-ns#"
   xmlns:svg="http://www.w3.org/2000/svg"
   xmlns="http://www.w3.org/2000/svg"
   xmlns:sodipodi="http://sodipodi.sourceforge.net/DTD/sodipodi-0.dtd"
   xmlns:inkscape="http://www.inkscape.org/namespaces/inkscape"
   version="1.1"
   width="24"
   height="24"
   viewBox="0 0 24 24"
   id="svg2"
   inkscape:version="0.91 r13725"
   sodipodi:docname="modified_asc.svg"
   inkscape:export-filename="C:\DEV\src\Android\Nextcloud\newSortingLayout\res\drawable-xxxhdpi\modified_asc.png"
   inkscape:export-xdpi="360"
   inkscape:export-ydpi="360">
  <metadata
     id="metadata10">
    <rdf:RDF>
      <cc:Work
         rdf:about="">
        <dc:format>image/svg+xml</dc:format>
        <dc:type
           rdf:resource="http://purl.org/dc/dcmitype/StillImage" />
      </cc:Work>
    </rdf:RDF>
  </metadata>
  <defs
     id="defs8" />
  <sodipodi:namedview
     pagecolor="#ffffff"
     bordercolor="#666666"
     borderopacity="1"
     objecttolerance="10"
     gridtolerance="10"
     guidetolerance="10"
     inkscape:pageopacity="0"
     inkscape:pageshadow="2"
     inkscape:window-width="1920"
     inkscape:window-height="1005"
     id="namedview6"
     showgrid="false"
     inkscape:zoom="27.812867"
     inkscape:cx="-1.58817"
     inkscape:cy="9.6980337"
     inkscape:window-x="-9"
     inkscape:window-y="-9"
     inkscape:window-maximized="1"
     inkscape:current-layer="svg2" />
  <g
     inkscape:groupmode="layer"
     id="layer3"
     inkscape:label="Layer 3" />
  <g
     inkscape:groupmode="layer"
     id="layer2"
     inkscape:label="Layer 2"
     style="display:inline" />
  <path
     inkscape:connector-curvature="0"
     d="M 10.865904,2 A 8.8659039,8.8659039 0 0 0 2,10.865904 a 8.8659039,8.8659039 0 0 0 8.865904,8.865904 8.8659039,8.8659039 0 0 0 2.810422,-0.465807 l -0.06234,-1.868419 a 7.0927231,7.0927231 0 0 1 -2.748086,0.561045 7.0927231,7.0927231 0 0 1 -7.0927232,-7.092723 7.0927231,7.0927231 0 0 1 7.0927232,-7.0927232 7.0927231,7.0927231 0 0 1 7.092723,7.0927232 7.0927231,7.0927231 0 0 1 -0.01559,0.294375 l 1.781839,0 a 8.8659039,8.8659039 0 0 0 0.0069,-0.294375 A 8.8659039,8.8659039 0 0 0 10.865904,2 Z m 0,3.5463616 0,5.3195424 -3.7593512,3.759351 c 2.0746219,2.074621 5.4440802,2.074621 7.5187022,0 2.083487,-2.074622 2.083487,-5.4440803 0,-7.5187022 C 13.587944,6.0603762 12.222387,5.5463616 10.865904,5.5463616 Z"
     id="path4"
     style="fill:#757575;fill-opacity:1" />
  <path
     inkscape:connector-curvature="0"
     d="m 19.125863,21.696362 -1.428741,0.0014 -0.0086,-6.184289 -1.53692,1.544835 -1.015429,-1.013386 3.263957,-3.275355 3.275354,3.263958 -1.013385,1.015428 -1.544836,-1.53692 z"
     id="path4-3"
     sodipodi:nodetypes="cccccccccc"
     style="fill:#757575;fill-opacity:1" />
  <g
     inkscape:groupmode="layer"
     id="layer1"
     inkscape:label="Layer 1" />
</svg>
