<?xml version="1.0" encoding="UTF-8" standalone="no"?>
<svg
   xmlns:dc="http://purl.org/dc/elements/1.1/"
   xmlns:cc="http://creativecommons.org/ns#"
   xmlns:rdf="http://www.w3.org/1999/02/22-rdf-syntax-ns#"
   xmlns:svg="http://www.w3.org/2000/svg"
   xmlns="http://www.w3.org/2000/svg"
   xmlns:sodipodi="http://sodipodi.sourceforge.net/DTD/sodipodi-0.dtd"
   xmlns:inkscape="http://www.inkscape.org/namespaces/inkscape"
   version="1.1"
   width="25.6"
   height="25.6"
   viewBox="0 0 24 24"
   id="svg2"
   inkscape:version="0.92.0 r15299"
   sodipodi:docname="size_asc.svg"
   inkscape:export-filename="C:\DEV\src\Android\Nextcloud\newSortingLayout\res\drawable-xxxhdpi\ic_size_asc.png"
   inkscape:export-xdpi="360"
   inkscape:export-ydpi="360">
  <metadata
     id="metadata10">
    <rdf:RDF>
      <cc:Work
         rdf:about="">
        <dc:format>image/svg+xml</dc:format>
        <dc:type
           rdf:resource="http://purl.org/dc/dcmitype/StillImage" />
        <dc:title />
      </cc:Work>
    </rdf:RDF>
  </metadata>
  <defs
     id="defs8" />
  <sodipodi:namedview
     pagecolor="#ffffff"
     bordercolor="#666666"
     borderopacity="1"
     objecttolerance="10"
     gridtolerance="10"
     guidetolerance="10"
     inkscape:pageopacity="0"
     inkscape:pageshadow="2"
     inkscape:window-width="1920"
     inkscape:window-height="1005"
     id="namedview6"
     showgrid="false"
     inkscape:zoom="22.627418"
     inkscape:cx="15.398362"
     inkscape:cy="7.3901816"
     inkscape:window-x="-9"
     inkscape:window-y="-9"
     inkscape:window-maximized="1"
     inkscape:current-layer="svg2" />
  <g
     inkscape:groupmode="layer"
     id="layer3"
     inkscape:label="Layer 3" />
  <g
     inkscape:groupmode="layer"
     id="layer2"
     inkscape:label="Layer 2"
     style="display:inline" />
  <g
     inkscape:groupmode="layer"
     id="layer1"
     inkscape:label="Layer 1" />
  <path
     inkscape:connector-curvature="0"
     d="m 13.720501,15.194819 h 5.580275 v 1.736354 h -5.580275 m 0,4.340882 v -1.736354 h 8.370414 v 1.736354 M 13.720501,10.853937 h 2.790138 v 1.736351 h -2.790138 z"
     id="path4-8"
     style="fill:#757575;fill-opacity:1;stroke-width:1.16980636" />
  <path
     style="fill:#757575;fill-opacity:1;stroke-width:1.06666672"
     d="M 10.412109 1.8046875 A 9.4570668 9.4570668 0 0 0 0.95507812 11.259766 A 9.4570668 9.4570668 0 0 0 10.412109 20.71875 A 9.4570668 9.4570668 0 0 0 13.015625 20.337891 L 13.015625 18.351562 A 7.5656534 7.5656534 0 0 1 10.412109 18.826172 A 7.5656534 7.5656534 0 0 1 2.8457031 11.259766 A 7.5656534 7.5656534 0 0 1 10.412109 3.6953125 A 7.5656534 7.5656534 0 0 1 17.869141 10 L 19.773438 10 A 9.4570668 9.4570668 0 0 0 10.412109 1.8046875 z M 10.412109 5.5878906 L 10.412109 11.259766 L 6.4023438 15.269531 C 8.191236 17.058424 10.881148 17.400168 13.015625 16.296875 L 13.015625 10 L 15.941406 10 C 15.711784 8.9928477 15.206905 8.0355871 14.419922 7.2519531 C 13.313445 6.1360192 11.859041 5.5878906 10.412109 5.5878906 z "
     transform="scale(0.93749999)"
     id="path4-88" />
</svg>
