<?xml version="1.0" encoding="UTF-8" standalone="no"?>
<!DOCTYPE svg PUBLIC "-//W3C//DTD SVG 1.1//EN" "http://www.w3.org/Graphics/SVG/1.1/DTD/svg11.dtd">
<svg width="100%" height="100%" viewBox="0 0 24 24" version="1.1" xmlns="http://www.w3.org/2000/svg" xmlns:xlink="http://www.w3.org/1999/xlink" xml:space="preserve" xmlns:serif="http://www.serif.com/" style="fill-rule:evenodd;clip-rule:evenodd;stroke-linejoin:round;stroke-miterlimit:1.41421;">
    <path d="M18.425,16.743L20.164,17.746C18.346,20.312 15.354,22 12,22C8.682,22 5.72,20.349 3.897,17.831L5.637,16.826C7.104,18.75 9.418,20 12,20C14.62,20 16.962,18.713 18.425,16.743Z" style="fill:rgb(208,208,208);fill-opacity:0.6;"/>
    <path d="M2.891,16.103C2.319,14.848 2,13.458 2,12C2,6.836 6,2.533 11.046,2.046L11.046,4.057C7.1,4.535 4,7.934 4,12C4,13.096 4.225,14.143 4.631,15.098L2.891,16.103Z" style="fill:rgb(208,208,208);fill-opacity:0.3;"/>
    <path d="M19.409,15.001C19.79,14.073 20,13.059 20,12C20,7.965 16.948,4.588 13.046,4.069L13.046,2.055C18.048,2.585 22,6.867 22,12C22,13.422 21.697,14.778 21.152,16.008L19.409,15.001Z" style="fill:rgb(208,208,208);"/>
</svg>
