<?xml version="1.0" encoding="UTF-8" standalone="no"?>
<svg xmlns:dc="http://purl.org/dc/elements/1.1/" xmlns:cc="http://creativecommons.org/ns#"
    xmlns:rdf="http://www.w3.org/1999/02/22-rdf-syntax-ns#" xmlns="http://www.w3.org/2000/svg"
    xmlns:sodipodi="http://sodipodi.sourceforge.net/DTD/sodipodi-0.dtd"
    xmlns:inkscape="http://www.inkscape.org/namespaces/inkscape" width="858.763" height="429.86121"
    viewBox="0 0 858.763 429.86121" version="1.1" id="svg4" sodipodi:docname="whats_new_device_credentials.svg"
    inkscape:version="0.92.2 2405546, 2018-03-11" inkscape:export-filename="/tmp/device_credentials.png"
    inkscape:export-xdpi="96" inkscape:export-ydpi="96">
    <metadata id="metadata10">
        <rdf:RDF>
            <cc:Work rdf:about="">
                <dc:format>image/svg+xml</dc:format>
                <dc:type rdf:resource="http://purl.org/dc/dcmitype/StillImage" />
                <dc:title />
            </cc:Work>
        </rdf:RDF>
    </metadata>
    <defs id="defs8" />
    <sodipodi:namedview pagecolor="#000000" bordercolor="#666666" borderopacity="1" objecttolerance="10"
        gridtolerance="10" guidetolerance="10" inkscape:pageopacity="0" inkscape:pageshadow="2"
        inkscape:window-width="1600" inkscape:window-height="835" id="namedview6" showgrid="false"
        inkscape:zoom="0.43457604" inkscape:cx="55.463573" inkscape:cy="381.67998" inkscape:window-x="0"
        inkscape:window-y="0" inkscape:window-maximized="1" inkscape:current-layer="svg4" fit-margin-top="10"
        fit-margin-left="10" fit-margin-right="10" fit-margin-bottom="10" />
    <g id="g841" transform="translate(92.156453)">
    <path style="fill:#ffffff;stroke-width:16.58121872" inkscape:connector-curvature="0" id="path2"
        d="m 255.62025,115.19225 c -1.32645,0 -2.65299,-0.3322 -3.81368,-0.99448 C 219.97063,97.78252 192.44582,90.8183 159.44919,90.8183 c -32.83082,0 -64.003538,7.79322 -92.357423,23.37947 -3.979493,2.15565 -8.953847,0.66228 -11.275209,-3.31623 -2.155574,-3.97935 -0.663327,-9.11967 3.316223,-11.27512 30.841074,-16.747017 64.666769,-25.369249 100.316409,-25.369249 35.31798,0 66.15905,7.793013 99.98474,25.203359 4.14532,2.15566 5.63763,7.1299 3.48206,11.10944 -1.49232,2.98468 -4.31111,4.64268 -7.29574,4.64268 z M 18.342997,202.24374 c -1.658007,0 -3.316245,-0.49828 -4.808557,-1.49276 -3.8136906,-2.65288 -4.6427369,-7.79321 -1.989777,-11.60688 16.415411,-23.21359 37.307759,-41.45293 62.179581,-54.2206 52.065026,-26.86157 118.721556,-27.02725 170.952386,-0.16609 24.87182,12.76766 45.76417,30.84113 62.17959,53.88904 2.65297,3.64777 1.82388,8.95378 -1.98979,11.60689 -3.81366,2.65289 -8.95385,1.82493 -11.60685,-1.98895 -14.92308,-20.89224 -33.82566,-37.30769 -56.21032,-48.7487 -47.58809,-24.37457 -108.44118,-24.37457 -155.863457,0.16609 -22.550465,11.60668 -41.453054,28.18803 -56.376153,49.08026 -1.326449,2.32155 -3.813692,3.48211 -6.466673,3.48211 z M 121.97561,402.3791 c -2.15557,0 -4.31113,-0.82837 -5.80344,-2.48722 C 101.74651,385.46621 93.953364,376.18065 82.843935,356.1174 71.402907,335.72262 65.433651,310.85081 65.433651,284.15491 c 0,-49.24615 42.116299,-89.37263 93.849719,-89.37263 51.73342,0 93.84972,40.12648 93.84972,89.37263 0,4.64288 -3.64787,8.29068 -8.29063,8.29068 -4.64274,0 -8.29061,-3.6478 -8.29061,-8.29068 0,-40.12647 -34.65474,-72.79149 -77.26848,-72.79149 -42.61375,0 -77.268501,32.66502 -77.268501,72.79149 0,23.87691 5.306001,45.93013 15.420537,63.83772 10.611974,19.06834 17.907714,27.19313 30.675254,40.12669 3.15044,3.31621 3.15044,8.45635 0,11.77256 -1.82389,1.65885 -3.97949,2.48722 -6.13505,2.48722 z m 118.88735,-30.67524 c -19.73164,0 -37.14191,-4.97445 -51.40177,-14.75725 -24.70601,-16.74721 -39.46332,-43.94034 -39.46332,-72.7917 0,-4.64267 3.64787,-8.29047 8.29063,-8.29047 4.64274,0 8.29061,3.6478 8.29061,8.29047 0,23.37968 11.93847,45.43269 32.16755,59.02916 11.77268,7.95911 25.53508,11.77277 42.1163,11.77277 3.9795,0 10.61199,-0.49826 17.24447,-1.65884 4.47694,-0.82837 8.78806,2.15545 9.61711,6.79814 0.829,4.477 -2.15557,8.7881 -6.7983,9.61711 -9.45129,1.82492 -17.74191,1.98895 -20.06328,1.98895 z m -33.32824,34.15735 c -0.66332,0 -1.49233,-0.16609 -2.15555,-0.33218 -26.36415,-7.29577 -43.60862,-17.07878 -61.68215,-34.82068 -23.21374,-23.04791 -35.98126,-53.72315 -35.98126,-86.55385 0,-26.86158 22.8821,-48.74891 51.07015,-48.74891 28.18809,0 51.07017,21.88733 51.07017,48.74891 0,17.7419 15.42054,32.16757 34.48896,32.16757 19.06839,0 34.48893,-14.42567 34.48893,-32.16757 0,-62.51127 -53.88897,-113.24975 -120.21385,-113.24975 -47.09068,0 -90.201837,26.19826 -109.601876,66.82218 -6.466673,13.43078 -9.782918,29.1831 -9.782918,46.42757 0,12.93334 1.160772,33.32815 11.109429,59.85815 1.658009,4.31113 -0.497444,9.11968 -4.808558,10.612 -4.311116,1.65886 -9.119673,-0.66436 -10.611987,-4.80855 -8.124804,-21.72144 -12.104296,-43.27703 -12.104296,-65.6616 0,-19.89757 3.81369,-37.97103 11.27523,-53.72315 22.053037,-46.26169 70.967626,-76.27361 124.524976,-76.27361 75.44455,0 136.79505,58.19993 136.79505,129.83088 0,26.86157 -22.88208,48.7487 -51.07013,48.7487 -28.18809,0 -51.07017,-21.88713 -51.07017,-48.7487 0,-17.74191 -15.42053,-32.16758 -34.48896,-32.16758 -19.06839,0 -34.48893,14.42567 -34.48893,32.16758 0,28.3539 10.94361,54.8837 31.00689,74.78127 15.75217,15.58646 30.84107,24.20868 54.22059,30.67524 4.47693,1.16058 6.96413,5.80345 5.80344,10.11456 -0.829,3.81368 -4.31111,6.3009 -7.79318,6.3009 z" />
        <g transform="matrix(0.73707241,0,0,0.73707241,10.310182,16.19179)" id="g848">
            <path
                style="color:#000000;display:inline;overflow:visible;visibility:visible;opacity:1;vector-effect:none;fill:#ffffff;fill-opacity:1;stroke:#fffcfc;stroke-width:9.63877487;stroke-linecap:butt;stroke-linejoin:miter;stroke-miterlimit:4;stroke-dasharray:none;stroke-dashoffset:0;stroke-opacity:1;marker:none;enable-background:accumulate"
                id="path823-2" sodipodi:type="arc" sodipodi:cx="565.53778" sodipodi:cy="149.75388"
                sodipodi:rx="9.2415485" sodipodi:ry="9.2415485" sodipodi:start="3.9460498" sodipodi:end="3.9452295"
                sodipodi:open="true"
                d="m 559.12874,143.09576 a 9.2415485,9.2415485 0 0 1 13.06584,0.24771 9.2415485,9.2415485 0 0 1 -0.24503,13.06589 9.2415485,9.2415485 0 0 1 -13.06594,-0.24235 9.2415485,9.2415485 0 0 1 0.23967,-13.06599" />
            <path
                style="color:#000000;display:inline;overflow:visible;visibility:visible;opacity:1;vector-effect:none;fill:#ffffff;fill-opacity:1;stroke:#fffcfc;stroke-width:9.63877487;stroke-linecap:butt;stroke-linejoin:miter;stroke-miterlimit:4;stroke-dasharray:none;stroke-dashoffset:0;stroke-opacity:1;marker:none;enable-background:accumulate"
                id="path823-2-9" sodipodi:type="arc" sodipodi:cx="719.49548" sodipodi:cy="149.75388"
                sodipodi:rx="9.2415485" sodipodi:ry="9.2415485" sodipodi:start="3.9460498" sodipodi:end="3.9452295"
                sodipodi:open="true"
                d="m 713.08645,143.09576 a 9.2415485,9.2415485 0 0 1 13.06583,0.24771 9.2415485,9.2415485 0 0 1 -0.24503,13.06589 9.2415485,9.2415485 0 0 1 -13.06594,-0.24235 9.2415485,9.2415485 0 0 1 0.23968,-13.06599" />
            <path
                style="color:#000000;display:inline;overflow:visible;visibility:visible;opacity:1;vector-effect:none;fill:#ffffff;fill-opacity:1;stroke:#fffcfc;stroke-width:9.63877487;stroke-linecap:butt;stroke-linejoin:miter;stroke-miterlimit:4;stroke-dasharray:none;stroke-dashoffset:0;stroke-opacity:1;marker:none;enable-background:accumulate"
                id="path823-2-9-7" sodipodi:type="arc" sodipodi:cx="873.45319" sodipodi:cy="149.75388"
                sodipodi:rx="9.2415485" sodipodi:ry="9.2415485" sodipodi:start="3.9460498" sodipodi:end="3.9452295"
                sodipodi:open="true"
                d="m 867.04415,143.09576 a 9.2415485,9.2415485 0 0 1 13.06583,0.24771 9.2415485,9.2415485 0 0 1 -0.24503,13.06589 9.2415485,9.2415485 0 0 1 -13.06593,-0.24235 9.2415485,9.2415485 0 0 1 0.23967,-13.06599" />
            <path
                style="color:#000000;display:inline;overflow:visible;visibility:visible;opacity:1;vector-effect:none;fill:#fff6f6;fill-opacity:1;stroke:#fffcfc;stroke-width:9.63877487;stroke-linecap:butt;stroke-linejoin:miter;stroke-miterlimit:4;stroke-dasharray:none;stroke-dashoffset:0;stroke-opacity:1;marker:none;enable-background:accumulate"
                id="path823-2-4" sodipodi:type="arc" sodipodi:cx="565.53778" sodipodi:cy="303.71155"
                sodipodi:rx="9.2415485" sodipodi:ry="9.2415485" sodipodi:start="3.9460498" sodipodi:end="3.9452295"
                sodipodi:open="true"
                d="m 559.12874,297.05343 a 9.2415485,9.2415485 0 0 1 13.06584,0.24772 9.2415485,9.2415485 0 0 1 -0.24503,13.06588 9.2415485,9.2415485 0 0 1 -13.06594,-0.24235 9.2415485,9.2415485 0 0 1 0.23967,-13.06599" />
            <path
                style="color:#000000;display:inline;overflow:visible;visibility:visible;opacity:1;vector-effect:none;fill:#ffe7e7;fill-opacity:1;stroke:#fffcfc;stroke-width:9.63877487;stroke-linecap:butt;stroke-linejoin:miter;stroke-miterlimit:4;stroke-dasharray:none;stroke-dashoffset:0;stroke-opacity:1;marker:none;enable-background:accumulate"
                id="path823-2-9-3" sodipodi:type="arc" sodipodi:cx="719.49548" sodipodi:cy="303.71155"
                sodipodi:rx="9.2415485" sodipodi:ry="9.2415485" sodipodi:start="3.9460498" sodipodi:end="3.9452295"
                sodipodi:open="true"
                d="m 713.08645,297.05343 a 9.2415485,9.2415485 0 0 1 13.06583,0.24772 9.2415485,9.2415485 0 0 1 -0.24503,13.06588 9.2415485,9.2415485 0 0 1 -13.06594,-0.24235 9.2415485,9.2415485 0 0 1 0.23968,-13.06599" />
            <path
                style="color:#000000;display:inline;overflow:visible;visibility:visible;opacity:1;vector-effect:none;fill:#ffe7e7;fill-opacity:1;stroke:#fffcfc;stroke-width:9.63877487;stroke-linecap:butt;stroke-linejoin:miter;stroke-miterlimit:4;stroke-dasharray:none;stroke-dashoffset:0;stroke-opacity:1;marker:none;enable-background:accumulate"
                id="path823-2-9-7-5" sodipodi:type="arc" sodipodi:cx="873.45319" sodipodi:cy="303.71155"
                sodipodi:rx="9.2415485" sodipodi:ry="9.2415485" sodipodi:start="3.9460498" sodipodi:end="3.9452295"
                sodipodi:open="true"
                d="m 867.04415,297.05343 a 9.2415485,9.2415485 0 0 1 13.06583,0.24772 9.2415485,9.2415485 0 0 1 -0.24503,13.06588 9.2415485,9.2415485 0 0 1 -13.06593,-0.24235 9.2415485,9.2415485 0 0 1 0.23967,-13.06599" />
            <path
                style="color:#000000;display:inline;overflow:visible;visibility:visible;opacity:1;vector-effect:none;fill:#fff6f6;fill-opacity:1;stroke:#fffcfc;stroke-width:9.63877487;stroke-linecap:butt;stroke-linejoin:miter;stroke-miterlimit:4;stroke-dasharray:none;stroke-dashoffset:0;stroke-opacity:1;marker:none;enable-background:accumulate"
                id="path823-2-4-6" sodipodi:type="arc" sodipodi:cx="565.53778" sodipodi:cy="457.66922"
                sodipodi:rx="9.2415485" sodipodi:ry="9.2415485" sodipodi:start="3.9460498" sodipodi:end="3.9452295"
                sodipodi:open="true"
                d="m 559.12874,451.01111 a 9.2415485,9.2415485 0 0 1 13.06584,0.24771 9.2415485,9.2415485 0 0 1 -0.24503,13.06588 9.2415485,9.2415485 0 0 1 -13.06594,-0.24235 9.2415485,9.2415485 0 0 1 0.23967,-13.06598" />
            <path
                style="color:#000000;display:inline;overflow:visible;visibility:visible;opacity:1;vector-effect:none;fill:#fff6f6;fill-opacity:1;stroke:#fffcfc;stroke-width:9.63877487;stroke-linecap:butt;stroke-linejoin:miter;stroke-miterlimit:4;stroke-dasharray:none;stroke-dashoffset:0;stroke-opacity:1;marker:none;enable-background:accumulate"
                id="path823-2-9-3-1" sodipodi:type="arc" sodipodi:cx="719.49548" sodipodi:cy="457.66922"
                sodipodi:rx="9.2415485" sodipodi:ry="9.2415485" sodipodi:start="3.9460498" sodipodi:end="3.9452295"
                sodipodi:open="true"
                d="m 713.08645,451.01111 a 9.2415485,9.2415485 0 0 1 13.06583,0.24771 9.2415485,9.2415485 0 0 1 -0.24503,13.06588 9.2415485,9.2415485 0 0 1 -13.06594,-0.24235 9.2415485,9.2415485 0 0 1 0.23968,-13.06598" />
            <path
                style="color:#000000;display:inline;overflow:visible;visibility:visible;opacity:1;vector-effect:none;fill:#ffe7e7;fill-opacity:1;stroke:#fffcfc;stroke-width:9.63877487;stroke-linecap:butt;stroke-linejoin:miter;stroke-miterlimit:4;stroke-dasharray:none;stroke-dashoffset:0;stroke-opacity:1;marker:none;enable-background:accumulate"
                id="path823-2-9-7-5-4" sodipodi:type="arc" sodipodi:cx="873.45319" sodipodi:cy="457.66922"
                sodipodi:rx="9.2415485" sodipodi:ry="9.2415485" sodipodi:start="3.9460498" sodipodi:end="3.9452295"
                sodipodi:open="true"
                d="m 867.04415,451.01111 a 9.2415485,9.2415485 0 0 1 13.06583,0.24771 9.2415485,9.2415485 0 0 1 -0.24503,13.06588 9.2415485,9.2415485 0 0 1 -13.06593,-0.24235 9.2415485,9.2415485 0 0 1 0.23967,-13.06598" />
            <path
                style="fill:none;fill-rule:evenodd;stroke:#fffcfc;stroke-width:5.77341413;stroke-linecap:butt;stroke-linejoin:miter;stroke-miterlimit:4;stroke-dasharray:none;stroke-opacity:1"
                d="M 565.3017,149.30908 H 719.60332" id="path1066" inkscape:connector-curvature="0" />
            <path
                style="fill:none;fill-rule:evenodd;stroke:#fffcfc;stroke-width:5.77341413;stroke-linecap:butt;stroke-linejoin:miter;stroke-miterlimit:4;stroke-dasharray:none;stroke-opacity:1"
                d="M 720.54662,304.23964 H 874.84825" id="path1066-0" inkscape:connector-curvature="0" />
            <path
                style="fill:none;fill-rule:evenodd;stroke:#fffcfc;stroke-width:5.77341413;stroke-linecap:butt;stroke-linejoin:miter;stroke-miterlimit:4;stroke-dasharray:none;stroke-opacity:1"
                d="M 719.60332,303.61067 V 149.30908" id="path1066-3" inkscape:connector-curvature="0" />
            <path
                style="fill:none;fill-rule:evenodd;stroke:#fffcfc;stroke-width:5.77341413;stroke-linecap:butt;stroke-linejoin:miter;stroke-miterlimit:4;stroke-dasharray:none;stroke-opacity:1"
                d="M 873.60332,457.56838 V 303.26658" id="path1066-3-1" inkscape:connector-curvature="0" />
        </g>
    </g>
</svg>
