<?xml version="1.0" encoding="UTF-8" standalone="no"?>
<svg xmlns:dc="http://purl.org/dc/elements/1.1/" xmlns:cc="http://creativecommons.org/ns#"
    xmlns:rdf="http://www.w3.org/1999/02/22-rdf-syntax-ns#" xmlns="http://www.w3.org/2000/svg"
    xmlns:xlink="http://www.w3.org/1999/xlink" xmlns:sodipodi="http://sodipodi.sourceforge.net/DTD/sodipodi-0.dtd"
    xmlns:inkscape="http://www.inkscape.org/namespaces/inkscape" width="64" height="64" viewBox="0 0 64 64"
    version="1.1" id="svg928" sodipodi:docname="end-to-end encryption.svg" inkscape:version="0.92.2 (unknown)"
    inkscape:export-filename="end-to-end-encryption.png" inkscape:export-xdpi="384" inkscape:export-ydpi="384">
    <metadata id="metadata932">
        <rdf:RDF>
            <cc:Work rdf:about="">
                <dc:format>image/svg+xml</dc:format>
                <dc:type rdf:resource="http://purl.org/dc/dcmitype/StillImage" />
                <dc:title>Canvas</dc:title>
            </cc:Work>
        </rdf:RDF>
    </metadata>
    <sodipodi:namedview pagecolor="#0082c9" bordercolor="#666666" borderopacity="1" objecttolerance="10"
        gridtolerance="10" guidetolerance="10" inkscape:pageopacity="0" inkscape:pageshadow="2"
        inkscape:window-width="1920" inkscape:window-height="1046" id="namedview930" showgrid="false"
        inkscape:snap-global="true" inkscape:snap-bbox="true" inkscape:bbox-paths="true" inkscape:bbox-nodes="true"
        inkscape:snap-bbox-edge-midpoints="true" inkscape:snap-bbox-midpoints="true" inkscape:snap-midpoints="true"
        inkscape:snap-smooth-nodes="true" inkscape:snap-object-midpoints="true" inkscape:snap-center="true"
        inkscape:snap-text-baseline="true" showguides="false" inkscape:zoom="22.627418" inkscape:cx="44.969353"
        inkscape:cy="17.724946" inkscape:window-x="0" inkscape:window-y="34" inkscape:window-maximized="1"
        inkscape:current-layer="svg928" />
    <title id="title2">Canvas</title>
    <desc id="desc4">Created using Figma</desc>
    <use height="100%" width="100%" y="0" x="0" style="fill:#ffffff;fill-opacity:0.30000001" id="use59"
        transform="translate(7,16)" xlink:href="#path11_fill" />
    <use xlink:href="#path12_fill" transform="translate(4,56)" id="use62" style="fill:#ffffff;fill-opacity:1" x="0"
        y="0" width="100%" height="100%" />
    <use xlink:href="#path13_fill" transform="translate(0,4)" id="use65" style="fill:#ffffff;fill-opacity:1" x="0" y="0"
        width="100%" height="100%" />
    <use height="100%" width="100%" y="0" x="0" style="fill:#ffffff;fill-opacity:1" id="use69"
        transform="translate(38,36)" xlink:href="#path14_fill" />
    <use height="100%" width="100%" y="0" x="0" style="fill:#ffffff;fill-opacity:1" id="use72"
        transform="translate(12,20)" xlink:href="#path15_fill" />
    <use height="100%" width="100%" y="0" x="0" style="fill:#ffffff;fill-opacity:1" id="use75"
        transform="translate(16,24)" xlink:href="#path16_fill" />
    <use height="100%" width="100%" y="0" x="0" style="fill:#ffffff;fill-opacity:1" id="use78"
        transform="translate(20,24)" xlink:href="#path16_fill" />
    <use height="100%" width="100%" y="0" x="0" style="fill:#ffffff;fill-opacity:1" id="use81"
        transform="translate(24,24)" xlink:href="#path16_fill" />
    <use height="100%" width="100%" y="0" x="0" style="fill:#ffffff;fill-opacity:1" id="use84"
        transform="translate(28,24)" xlink:href="#path16_fill" />
    <use height="100%" width="100%" y="0" x="0" style="fill:#ffffff;fill-opacity:1" id="use87"
        transform="translate(32,24)" xlink:href="#path16_fill" />
    <use height="100%" width="100%" y="0" x="0" style="fill:#ffffff;fill-opacity:1" id="use90"
        transform="translate(36,24)" xlink:href="#path16_fill" />
    <use height="100%" width="100%" y="0" x="0" style="fill:#ffffff;fill-opacity:1" id="use93"
        transform="translate(40,24)" xlink:href="#path16_fill" />
    <use height="100%" width="100%" y="0" x="0" style="fill:#ffffff;fill-opacity:1" id="use96"
        transform="translate(12,34)" xlink:href="#path17_fill" />
    <use height="100%" width="100%" y="0" x="0" style="fill:#ffffff;fill-opacity:1" id="use99"
        transform="translate(12,38)" xlink:href="#path17_fill" />
    <use height="100%" width="100%" y="0" x="0" style="fill:#0082c9;fill-opacity:1" id="use102"
        transform="translate(37,47)" xlink:href="#path18_fill" />
    <use height="100%" width="100%" y="0" x="0" style="fill:#ffffff;fill-opacity:1" id="use105"
        transform="translate(36,46)" xlink:href="#path19_fill" />
    <use height="100%" width="100%" y="0" x="0" style="fill:none;fill-opacity:1" id="use108"
        transform="translate(44,51)" xlink:href="#path20_fill" />
    <use height="100%" width="100%" y="0" x="0" style="fill:#ffffff;fill-opacity:1" id="use110"
        transform="translate(44,51)" xlink:href="#path21_stroke" />
    <defs id="defs926">
        <path id="path0_fill"
            d="M 2,26 C 0.895,26 0,25.105 0,24 V 2 C 0,0.895 0.895,0 2,0 h 22 c 1.105,0 2,0.895 2,2 v 22 c 0,1.105 -0.895,2 -2,2 z"
            inkscape:connector-curvature="0" style="fill-rule:evenodd" />
        <path id="path1_stroke"
            d="M 2,25 C 1.44728,25 1,24.5527 1,24 h -2 c 0,1.6573 1.342715,3 3,3 z M 1,24 V 2 H -1 V 24 Z M 1,2 C 1,1.44728 1.44728,1 2,1 V -1 C 0.342715,-1 -1,0.342715 -1,2 Z M 2,1 H 24 V -1 H 2 Z m 22,0 c 0.5527,0 1,0.44728 1,1 h 2 c 0,-1.657285 -1.3427,-3 -3,-3 z m 1,1 v 22 h 2 V 2 Z m 0,22 c 0,0.5527 -0.4473,1 -1,1 v 2 c 1.6573,0 3,-1.3427 3,-3 z m -1,1 H 2 v 2 h 22 z"
            inkscape:connector-curvature="0" />
        <path id="path2_fill"
            d="M 26,3 C 26,4.657 20.18,6 13,6 5.82,6 0,4.657 0,3 0,1.343 5.82,0 13,0 20.18,0 26,1.343 26,3 Z"
            inkscape:connector-curvature="0" style="fill-rule:evenodd" />
        <path id="path3_stroke"
            d="M 25,3 C 25,2.8938 25.051,2.86979 24.9877,2.94122 24.8881,3.0618 24.7698,3.1451 24.4995,3.28997 23.9189,3.61096 23.0952,3.88808 21.9676,4.14698 19.6759,4.67781 16.5386,5.00132 13,5 v 2 c 3.6414,-0.00132 7.0041,-0.34931 9.4174,-0.90423 1.2249,-0.28397 2.305,-0.6533 3.04,-1.05014 0.3875,-0.21405 0.78,-0.50753 1.0267,-0.77756 C 26.7671,3.9489 27,3.52045 27,3 Z M 13,5 C 9.46145,5.00132 6.32412,4.67781 4.03236,4.14698 2.90479,3.88808 2.08111,3.61096 1.50053,3.28997 1.23019,3.1451 1.11191,3.0618 1.01234,2.94122 0.94901,2.86979 1,2.8938 1,3 h -2 c 0,0.52045 0.232865,0.9489 0.515859,1.26807 C -0.237374,4.5381 0.15512,4.83158 0.542592,5.04563 1.27764,5.44247 2.35771,5.8118 3.58264,6.09577 5.99588,6.65069 9.35855,6.99868 13,7 Z M 1,3 C 1,3.1062 0.94901,3.13021 1.01234,3.05878 1.11191,2.9382 1.23019,2.8549 1.50053,2.71003 2.08111,2.38904 2.90479,2.11192 4.03236,1.85302 6.32412,1.32219 9.46145,0.998676 13,1 V -1 C 9.35855,-0.998676 5.99588,-0.65069 3.58264,-0.095767 2.35771,0.188201 1.27764,0.557526 0.542592,0.954372 0.15512,1.16842 -0.237374,1.4619 -0.484141,1.73193 -0.767135,2.0511 -1,2.47955 -1,3 Z M 13,1 c 3.5386,-0.001324 6.6759,0.32219 8.9676,0.85302 1.1276,0.2589 1.9513,0.53602 2.5319,0.85701 0.2703,0.14487 0.3886,0.22817 0.4882,0.34875 C 25.051,3.13021 25,3.1062 25,3 h 2 C 27,2.47955 26.7671,2.0511 26.4841,1.73193 26.2374,1.4619 25.8449,1.16842 25.4574,0.954372 24.7224,0.557526 23.6423,0.188201 22.4174,-0.095767 20.0041,-0.65069 16.6414,-0.998676 13,-1 Z"
            inkscape:connector-curvature="0" />
        <path id="path4_stroke"
            d="M 13,2 C 9.46145,2.00132 6.32412,1.67781 4.03236,1.14698 2.90479,0.888076 2.08111,0.610964 1.50053,0.289966 1.23019,0.145096 1.11191,0.0618023 1.01234,-0.0587787 0.94901,-0.130211 1,-0.106195 1,0 h -2 c 0,0.520445 0.232865,0.948898 0.515859,1.26807 C -0.237374,1.5381 0.15512,1.83158 0.542592,2.04563 1.27764,2.44247 2.35771,2.8118 3.58264,3.09577 5.99588,3.65069 9.35855,3.99868 13,4 Z M -1,0 V 6 H 1 V 0 Z m 0,6 c 0,0.52045 0.232865,0.9489 0.515859,1.26807 C -0.237374,7.5381 0.15512,7.83158 0.542592,8.04563 1.27764,8.44247 2.35771,8.8118 3.58264,9.09577 5.99588,9.65069 9.35855,9.99868 13,10 V 8 C 9.46145,8.00132 6.32412,7.67781 4.03236,7.14698 2.90479,6.88808 2.08111,6.61096 1.50053,6.28997 1.23019,6.1451 1.11191,6.0618 1.01234,5.94122 0.94901,5.86979 1,5.8938 1,6 Z m 14,4 c 3.6414,-0.00132 7.0041,-0.34931 9.4174,-0.90423 1.2249,-0.28397 2.305,-0.6533 3.04,-1.05014 0.3875,-0.21405 0.78,-0.50753 1.0267,-0.77756 C 26.7671,6.9489 27,6.52045 27,6 H 25 C 25,5.8938 25.051,5.86979 24.9877,5.94122 24.8881,6.0618 24.7698,6.1451 24.4995,6.28997 23.9189,6.61096 23.0952,6.88808 21.9676,7.14698 19.6759,7.67781 16.5386,8.00132 13,8 Z M 27,6 V 0 H 25 V 6 Z M 25,0 C 25,-0.106195 25.051,-0.130211 24.9877,-0.0587787 24.8881,0.0618023 24.7698,0.145096 24.4995,0.289966 23.9189,0.610964 23.0952,0.888076 21.9676,1.14698 19.6759,1.67781 16.5386,2.00132 13,2 v 2 c 3.6414,-0.00132 7.0041,-0.34931 9.4174,-0.90423 1.2249,-0.28397 2.305,-0.6533 3.04,-1.05014 0.3875,-0.21405 0.78,-0.50753 1.0267,-0.77756 C 26.7671,0.948898 27,0.520445 27,0 Z"
            inkscape:connector-curvature="0" />
        <path id="path5_stroke" d="M 0,1 H 10 V -1 H 0 Z" inkscape:connector-curvature="0" />
        <path id="path6_stroke" d="M 0,1 H 11 V -1 H 0 Z" inkscape:connector-curvature="0" />
        <path id="path7_stroke" d="M 0,1 H 4 V -1 H 0 Z" inkscape:connector-curvature="0" />
        <path id="path8_stroke" d="M 0,1 H 8 V -1 H 0 Z" inkscape:connector-curvature="0" />
        <path id="path9_fill" d="M 90,0 H 35 V 51 H 90 Z M 29,51 H 0 v 52 h 29 z" inkscape:connector-curvature="0"
            style="fill-rule:evenodd" />
        <path id="path10_stroke"
            d="m 48.2574,12.5533 0.4277,-0.2589 v 0 z M 23.499,51.379 c -0.2748,-0.0268 -0.5193,0.1743 -0.5461,0.4492 -0.0267,0.2748 0.1744,0.5193 0.4492,0.546 z m -5.194,-0.0136 c 0.2643,0.0801 0.5435,-0.0693 0.6235,-0.3335 0.0801,-0.2643 -0.0692,-0.5435 -0.3335,-0.6235 z m -4.3275,-2.8715 c -0.2434,-0.1304 -0.5464,-0.0388 -0.6768,0.2046 -0.1304,0.2435 -0.0387,0.5465 0.2047,0.6769 z M 9.18805,46.4854 c 0.21336,0.1753 0.52844,0.1445 0.70374,-0.0689 0.17531,-0.2133 0.14441,-0.5284 -0.06891,-0.7037 z M 6.28723,42.1771 C 6.11192,41.9638 5.79685,41.9329 5.58348,42.1082 5.37012,42.2835 5.33927,42.5986 5.51457,42.8119 Z M 2.62462,38.4946 C 2.755,38.738 3.05803,38.8297 3.30145,38.6993 3.54488,38.5689 3.63652,38.2659 3.50614,38.0225 Z M 1.59164,33.405 C 1.51157,33.1407 1.23242,32.9914 0.968144,33.0715 0.703864,33.1515 0.55453,33.4307 0.634598,33.695 Z m -1.965888,-4.8071 c 0.026747,0.2748 0.271235,0.4759 0.546079,0.4492 C 0.446675,29.0203 0.647797,28.7759 0.62105,28.501 Z M 0.62105,23.499 C 0.647797,23.2242 0.446675,22.9797 0.171831,22.9529 -0.103013,22.9262 -0.347501,23.1273 -0.374248,23.4021 Z M 0.634598,18.305 C 0.55453,18.5693 0.703864,18.8485 0.968144,18.9285 1.23242,19.0086 1.51157,18.8593 1.59164,18.595 Z M 3.50614,13.9775 C 3.63652,13.7341 3.54488,13.4311 3.30145,13.3007 3.05803,13.1703 2.755,13.262 2.62462,13.5054 Z M 5.51457,9.18805 C 5.33927,9.40141 5.37012,9.71649 5.58348,9.89179 5.79685,10.0671 6.11192,10.0362 6.28723,9.82288 Z M 9.82288,6.28723 C 10.0362,6.11192 10.0671,5.79685 9.89179,5.58348 9.71649,5.37012 9.40141,5.33927 9.18805,5.51457 Z M 13.5054,2.62462 C 13.262,2.755 13.1703,3.05803 13.3007,3.30145 c 0.1304,0.24343 0.4334,0.33507 0.6768,0.20469 z M 18.595,1.59164 C 18.8593,1.51157 19.0086,1.23242 18.9285,0.968144 18.8485,0.703864 18.5693,0.55453 18.305,0.634598 Z m 4.8071,-1.965888 c -0.2748,0.026747 -0.4759,0.271235 -0.4492,0.546079 0.0268,0.274844 0.2712,0.475966 0.5461,0.449219 z m 4.7799,0.966266 c 0.2752,0.023311 0.5171,-0.18085 0.5404,-0.456006 0.0234,-0.275157 -0.1808,-0.517113 -0.456,-0.540424 z M 32.7332,0.363069 C 32.4661,0.2931 32.1928,0.452931 32.1229,0.720062 c -0.07,0.267131 0.0898,0.540408 0.3569,0.610378 z m 3.8539,2.431541 c 0.2511,0.11478 0.5478,0.00421 0.6625,-0.24695 0.1148,-0.25116 0.0043,-0.5478 -0.2469,-0.66258 z m 4.3614,1.32095 C 40.7206,3.9596 40.4094,4.01792 40.2535,4.2458 c -0.156,0.22789 -0.0977,0.53906 0.1302,0.69501 z m 2.8118,3.58621 C 43.9585,7.89412 44.275,7.88942 44.4674,7.69129 44.6597,7.49315 44.655,7.17661 44.4569,6.98426 Z m 3.6681,2.70423 c -0.1626,-0.2232 -0.4754,-0.2722 -0.6985,-0.1095 -0.2232,0.1626 -0.2722,0.4754 -0.1096,0.6985 z m 1.9887,5.4831 c 0.1096,0.2535 0.4039,0.3701 0.6574,0.2606 0.2534,-0.1096 0.3701,-0.4039 0.2605,-0.6574 z m 2.8418,6.5211 c -0.0371,-0.2736 -0.289,-0.4654 -0.5626,-0.4283 -0.2737,0.037 -0.4655,0.2889 -0.4284,0.5626 z M 51.379,28.501 c -0.0268,0.2748 0.1743,0.5193 0.4492,0.5461 0.2748,0.0267 0.5193,-0.1744 0.546,-0.4492 z m -0.0136,5.194 c 0.0801,-0.2643 -0.0693,-0.5435 -0.3335,-0.6235 -0.2643,-0.0801 -0.5435,0.0692 -0.6235,0.3335 z m -2.8715,4.3275 c -0.1304,0.2434 -0.0388,0.5464 0.2046,0.6768 0.2435,0.1304 0.5465,0.0387 0.6769,-0.2047 z m -2.0085,4.7894 c 0.1753,-0.2133 0.1445,-0.5284 -0.0689,-0.7037 -0.2133,-0.1753 -0.5284,-0.1444 -0.7037,0.0689 z m -4.3083,2.9009 c -0.2133,0.1753 -0.2442,0.4904 -0.0689,0.7037 0.1753,0.2134 0.4904,0.2442 0.7037,0.0689 z m -3.6825,3.6626 c 0.2434,-0.1304 0.3351,-0.4334 0.2047,-0.6769 -0.1304,-0.2434 -0.4334,-0.335 -0.6768,-0.2046 z m -5.0896,1.033 c -0.2643,0.08 -0.4136,0.3592 -0.3335,0.6235 0.08,0.2642 0.3592,0.4136 0.6235,0.3335 z m -4.8071,1.9658 c 0.2748,-0.0267 0.4759,-0.2712 0.4492,-0.546 -0.0268,-0.2749 -0.2712,-0.476 -0.5461,-0.4493 z M 26,51.5 c -0.8479,2e-4 -1.6742,-0.0404 -2.501,-0.121 l -0.0969,0.9952 C 24.2528,52.4569 25.1275,52.4998 26,52.5 Z m -7.405,-1.0916 c -1.6204,-0.4903 -3.1503,-1.128 -4.6175,-1.9145 l -0.4721,0.8815 c 1.5104,0.8083 3.1314,1.4839 4.7996,1.99 z M 9.82288,45.7128 C 8.52558,44.6477 7.35234,43.4744 6.28723,42.1771 l -0.77266,0.6348 c 1.097,1.3343 2.33924,2.5765 3.67348,3.6735 z M 3.50614,38.0225 C 2.71964,36.5553 2.08191,35.0254 1.59164,33.405 l -0.957042,0.29 C 1.14068,35.3632 1.81631,36.9842 2.62462,38.4946 Z M 0.62105,28.501 C 0.54044,27.6742 0.499849,26.8479 0.5,26 h -1 c 1.51e-4,0.8725 0.043106,1.7472 0.125752,2.5979 z M 0.5,26 C 0.499849,25.1521 0.54044,24.3258 0.62105,23.499 L -0.374248,23.4021 C -0.456894,24.2528 -0.499849,25.1275 -0.5,26 Z m 1.09164,-7.405 c 0.49027,-1.6204 1.128,-3.1503 1.9145,-4.6175 L 2.62462,13.5054 C 1.81631,15.0158 1.14068,16.6368 0.634598,18.305 Z M 6.28723,9.82288 C 7.35234,8.52558 8.52558,7.35234 9.82288,6.28723 L 9.18805,5.51457 C 7.85381,6.61157 6.61157,7.85381 5.51457,9.18805 Z M 13.9775,3.50614 c 1.4672,-0.7865 2.9971,-1.42423 4.6175,-1.9145 L 18.305,0.634598 C 16.6368,1.14068 15.0158,1.81631 13.5054,2.62462 Z M 23.499,0.62105 C 24.3258,0.54044 25.1521,0.499849 26,0.5 v -1 c -0.8725,1.51e-4 -1.7472,0.043106 -2.5979,0.125752 z M 26,0.5 c 0.7386,-1.14e-4 1.4593,0.030679 2.182,0.092018 l 0.0844,-0.99643 C 27.5229,-0.467299 26.7599,-0.499886 26,-0.5 Z m 6.4798,0.83044 c 1.4283,0.37359 2.7877,0.86066 4.1073,1.46417 L 37.0027,1.88508 C 35.6443,1.2648 34.2037,0.748723 32.7332,0.363069 Z m 7.9039,3.61037 c 1.2099,0.82743 2.3285,1.74285 3.3766,2.76096 L 44.4569,6.98426 C 43.3778,5.93728 42.1932,4.96793 40.9485,4.11556 Z m 6.2366,6.05419 c 0.4303,0.5901 0.83,1.1905 1.2093,1.8173 l 0.8555,-0.5179 c -0.3907,-0.6451 -0.814,-1.281 -1.2567,-1.8884 z m 1.2093,1.8173 c 0.5991,0.9889 1.125,2.0064 1.5875,3.0768 l 0.9179,-0.3968 c -0.4767,-1.1019 -1.0339,-2.18 -1.6499,-3.1979 z m 3.4383,9.7322 C 51.422,23.68 51.5003,24.8223 51.5,26 h 1 c -3e-4,-1.2119 -0.0832,-2.4214 -0.2411,-3.5898 z M 51.5,26 c 2e-4,0.8479 -0.0404,1.6742 -0.121,2.501 l 0.9952,0.0969 C 52.4569,27.7472 52.4998,26.8725 52.5,26 Z m -1.0916,7.405 c -0.4903,1.6204 -1.128,3.1503 -1.9145,4.6175 l 0.8815,0.4721 c 0.8083,-1.5104 1.4839,-3.1314 1.99,-4.7996 z m -4.6956,8.7721 c -1.0651,1.2973 -2.2384,2.4706 -3.5357,3.5357 l 0.6348,0.7726 c 1.3343,-1.097 2.5765,-2.3392 3.6735,-3.6735 z m -7.6903,6.3168 c -1.4672,0.7865 -2.9971,1.4242 -4.6175,1.9145 l 0.29,0.957 c 1.6682,-0.5061 3.2892,-1.1817 4.7996,-1.99 z m -9.5215,2.885 C 27.6742,51.4596 26.8479,51.5002 26,51.5 v 1 c 0.8725,-2e-4 1.7472,-0.0431 2.5979,-0.1258 z"
            inkscape:connector-curvature="0" />
        <path id="path11_fill" d="M 0,0 H 56 V 42 H 0 Z" inkscape:connector-curvature="0" style="fill-rule:evenodd" />
        <path id="path12_fill" d="M 0,2 H 30 V 0 H 0 Z" inkscape:connector-curvature="0" style="fill-rule:evenodd" />
        <path id="path13_fill"
            d="m 63,54 h -5 v -2 h 4 V 12 H 8 V 50 C 8,52.206 6.206,54 4,54 1.794,54 0,52.206 0,50 V 1 C 0,0.447 0.447,0 1,0 h 18 c 0.266,0 0.52,0.105 0.707,0.293 L 23.414,4 H 59 c 0.553,0 1,0.447 1,1 V 8 H 58 V 6 H 23 C 22.734,6 22.48,5.895 22.293,5.707 L 18.586,2 H 2 v 48 c 0,1.103 0.897,2 2,2 1.103,0 2,-0.897 2,-2 V 11 c 0,-0.553 0.447,-1 1,-1 h 56 c 0.553,0 1,0.447 1,1 v 42 c 0,0.553 -0.447,1 -1,1"
            inkscape:connector-curvature="0" style="fill-rule:evenodd" />
        <path id="path14_fill"
            d="M 16,11 H 14 V 7 C 14,4.243 11.757,2 9,2 H 7 C 4.243,2 2,4.243 2,7 v 4 H 0 V 7 C 0,3.141 3.141,0 7,0 h 2 c 3.859,0 7,3.141 7,7 v 4"
            inkscape:connector-curvature="0" style="fill-rule:evenodd" />
        <path id="path15_fill"
            d="M 2,8 H 44 V 2 H 2 Z m 43,2 H 1 C 0.447,10 0,9.553 0,9 V 1 C 0,0.447 0.447,0 1,0 h 44 c 0.553,0 1,0.447 1,1 v 8 c 0,0.553 -0.447,1 -1,1 z"
            inkscape:connector-curvature="0" style="fill-rule:evenodd" />
        <path id="path16_fill" d="M 0,2 H 2 V 0 H 0 Z" inkscape:connector-curvature="0" style="fill-rule:evenodd" />
        <path id="path17_fill" d="M 0,1 H 18 V 0 H 0 Z" inkscape:connector-curvature="0" style="fill-rule:evenodd" />
        <path id="path18_fill"
            d="M 0,4 C 0,1.79086 1.79086,0 4,0 h 10 c 2.2091,0 4,1.79086 4,4 v 8 c 0,2.2091 -1.7909,4 -4,4 H 4 C 1.79086,16 0,14.2091 0,12 Z"
            inkscape:connector-curvature="0" style="fill-rule:evenodd" />
        <path id="path19_fill"
            d="M 3,2 C 2.448,2 2,2.448 2,3 v 12 c 0,0.552 0.448,1 1,1 h 14 c 0.552,0 1,-0.448 1,-1 V 3 C 18,2.448 17.552,2 17,2 Z M 17,18 H 3 C 1.346,18 0,16.654 0,15 V 3 C 0,1.346 1.346,0 3,0 h 14 c 1.654,0 3,1.346 3,3 v 12 c 0,1.654 -1.346,3 -3,3 z"
            inkscape:connector-curvature="0" style="fill-rule:evenodd" />
        <path id="path20_fill"
            d="M 1,3.73169 C 0.402588,3.3855 0,2.73901 0,2 0,0.896973 0.896973,0 2,0 3.10303,0 4,0.896973 4,2 4,2.73901 3.59741,3.3855 3,3.73169 V 8 H 1 Z"
            inkscape:connector-curvature="0" style="fill-rule:evenodd" />
        <path id="path21_stroke"
            d="M 1,3.73169 H 1.5 V 3.44355 L 1.25069,3.29908 Z m 2,0 L 2.74931,3.29908 2.5,3.44355 V 3.73169 Z M 3,8 V 8.5 H 3.5 V 8 Z M 1,8 H 0.5 V 8.5 H 1 Z M 1.25069,3.29908 C 0.800829,3.03839 0.5,2.55299 0.5,2 h -1 c 0,0.92504 0.50434667,1.73261 1.249308,2.1643 z M 0.5,2 C 0.5,1.17312 1.17312,0.5 2,0.5 v -1 C 0.62083,-0.5 -0.5,0.62083 -0.5,2 Z M 2,0.5 c 0.82688,0 1.5,0.67312 1.5,1.5 h 1 C 4.5,0.62083 3.37917,-0.5 2,-0.5 Z M 3.5,2 C 3.5,2.55299 3.19917,3.03839 2.74931,3.29908 L 3.25069,4.1643 C 3.99565,3.73261 4.5,2.92504 4.5,2 Z m 0,6 V 3.73169 h -1 V 8 Z M 1,8.5 h 2 v -1 H 1 Z M 0.5,3.73169 V 8 h 1 V 3.73169 Z"
            inkscape:connector-curvature="0" />
        <path id="path22_fill"
            d="M 5.414,6 H 58.586 L 62,2.586 V 2 H 39.414 L 37.707,3.707 C 37.52,3.895 37.266,4 37,4 H 27 C 26.734,4 26.48,3.895 26.293,3.707 L 24.586,2 H 2 V 2.586 Z M 59,8 H 5 C 4.734,8 4.48,7.895 4.293,7.707 l -4,-4 C 0.105,3.52 0,3.265 0,3 V 1 C 0,0.448 0.447,0 1,0 h 24 c 0.266,0 0.52,0.105 0.707,0.293 L 27.414,2 h 9.172 L 38.293,0.293 C 38.48,0.105 38.734,0 39,0 h 24 c 0.553,0 1,0.448 1,1 v 2 c 0,0.265 -0.105,0.52 -0.293,0.707 l -4,4 C 59.52,7.895 59.266,8 59,8 Z"
            inkscape:connector-curvature="0" style="fill-rule:evenodd" />
        <path id="path23_fill" d="M 2,34 H 0 V 4 C 0,1.794 1.794,0 4,0 h 7 V 2 H 4 C 2.897,2 2,2.897 2,4 v 30"
            inkscape:connector-curvature="0" style="fill-rule:evenodd" />
        <path id="path24_fill" d="M 11,34 H 9 V 4 C 9,2.897 8.103,2 7,2 H 0 V 0 h 7 c 2.206,0 4,1.794 4,4 v 30"
            inkscape:connector-curvature="0" style="fill-rule:evenodd" />
        <path id="path25_fill"
            d="M 12,28 H 0 V 26 H 11 V 2 H 6 V 0 h 6 c 0.553,0 1,0.448 1,1 v 26 c 0,0.552 -0.447,1 -1,1"
            inkscape:connector-curvature="0" style="fill-rule:evenodd" />
        <path id="path26_fill"
            d="M 13,28 H 1 C 0.447,28 0,27.552 0,27 V 1 C 0,0.448 0.447,0 1,0 H 7 V 2 H 2 v 24 h 11 v 2"
            inkscape:connector-curvature="0" style="fill-rule:evenodd" />
        <path id="path27_fill" d="M 38,42 H 36 V 9.414 L 28.586,2 H 2 V 42 H 0 V 0 H 29.414 L 38,8.586 V 36"
            inkscape:connector-curvature="0" style="fill-rule:evenodd" />
        <path id="path28_fill" d="m 0,0 h 28 v 6 h 6 V 40 H 0 Z" inkscape:connector-curvature="0"
            style="fill-rule:evenodd" />
        <path id="path29_fill"
            d="M 3,6 C 4.65685,6 6,4.65685 6,3 6,1.34315 4.65685,0 3,0 1.34315,0 0,1.34315 0,3 0,4.65685 1.34315,6 3,6 Z"
            inkscape:connector-curvature="0" style="fill-rule:evenodd" />
        <path id="path30_stroke"
            d="M 3,6.5 C 4.933,6.5 6.5,4.933 6.5,3 h -1 C 5.5,4.38071 4.38071,5.5 3,5.5 Z M 6.5,3 C 6.5,1.067 4.933,-0.5 3,-0.5 v 1 C 4.38071,0.5 5.5,1.61929 5.5,3 Z M 3,-0.5 c -1.933,0 -3.5,1.567 -3.5,3.5 h 1 C 0.5,1.61929 1.61929,0.5 3,0.5 Z M -0.5,3 c 0,1.933 1.567,3.5 3.5,3.5 v -1 C 1.61929,5.5 0.5,4.38071 0.5,3 Z"
            inkscape:connector-curvature="0" />
        <path id="path31_fill"
            d="M 6,2 C 4.427,2 2,4.577 2,8 c 0,3.423 2.427,6 4,6 1.573,0 4,-2.577 4,-6 C 10,4.577 7.573,2 6,2 Z M 6,16 C 3.282,16 0,12.432 0,8 0,3.568 3.282,0 6,0 c 2.718,0 6,3.568 6,8 0,4.432 -3.282,8 -6,8 z"
            inkscape:connector-curvature="0" style="fill-rule:evenodd" />
        <path id="path32_fill" d="M 0,2 H 5 V 0 H 0 Z" inkscape:connector-curvature="0" style="fill-rule:evenodd" />
        <path id="path33_fill" d="M 6.707,4.707 H 3.293 L 0,1.414 1.414,0 4.121,2.707 h 2.586 v 2"
            inkscape:connector-curvature="0" style="fill-rule:evenodd" />
        <path id="path34_fill" d="M 1.414,4.707 0,3.293 3.293,0 H 6.707 V 2 H 4.121 L 1.414,4.707"
            inkscape:connector-curvature="0" style="fill-rule:evenodd" />
        <path id="path35_fill" d="M 0,1 H 1 V 0 H 0 Z" inkscape:connector-curvature="0" style="fill-rule:evenodd" />
        <path id="path36_fill" d="M 9,9 H 0 V 0 h 2 v 7 h 7 v 2" inkscape:connector-curvature="0"
            style="fill-rule:evenodd" />
        <path id="path37_fill"
            d="M 4,2 C 2.897,2 2,2.897 2,4 2,5.103 2.897,6 4,6 5.103,6 6,5.103 6,4 6,2.897 5.103,2 4,2 Z M 4,8 C 1.794,8 0,6.206 0,4 0,1.794 1.794,0 4,0 6.206,0 8,1.794 8,4 8,6.206 6.206,8 4,8 Z"
            inkscape:connector-curvature="0" style="fill-rule:evenodd" />
        <path id="path38_fill" d="M 3.414,4.707 H 0 v -2 H 2.586 L 5.293,0 6.707,1.414 3.414,4.707"
            inkscape:connector-curvature="0" style="fill-rule:evenodd" />
        <path id="path39_fill" d="M 5.293,4.707 2.586,2 H 0 V 0 H 3.414 L 6.707,3.293 5.293,4.707"
            inkscape:connector-curvature="0" style="fill-rule:evenodd" />
        <path id="path40_fill" d="M 0,14 H 2 V 0 H 0 Z" inkscape:connector-curvature="0" style="fill-rule:evenodd" />
        <path id="path41_fill" d="m 0,0 7,3 4,-3 h 6 l 4,3 7,-3 V 28 L 14,37 0,28 Z" inkscape:connector-curvature="0"
            style="fill-rule:evenodd" />
        <path id="path42_fill"
            d="m 2,28.485 13,9.286 13,-9.286 V 2.443 L 21.352,4.937 C 20.985,5.072 20.569,4.985 20.293,4.707 L 17.586,2 H 12.414 L 9.707,4.707 C 9.43,4.985 9.019,5.072 8.648,4.937 L 2,2.443 Z M 15,40 c -0.204,0 -0.407,-0.062 -0.581,-0.186 l -14,-10 C 0.156,29.626 0,29.323 0,29 V 1 C 0,0.672 0.161,0.365 0.431,0.178 0.698,-0.008 1.043,-0.051 1.352,0.063 L 8.748,2.837 11.293,0.293 C 11.48,0.105 11.734,0 12,0 h 6 c 0.266,0 0.52,0.105 0.707,0.293 l 2.545,2.544 7.396,-2.774 c 0.309,-0.114 0.654,-0.071 0.921,0.115 C 29.839,0.365 30,0.672 30,1 v 28 c 0,0.323 -0.156,0.626 -0.419,0.814 l -14,10 C 15.407,39.938 15.204,40 15,40 Z"
            inkscape:connector-curvature="0" style="fill-rule:evenodd" />
        <path id="path43_fill" d="M 0,4 H 2 V 0 H 0 Z" inkscape:connector-curvature="0" style="fill-rule:evenodd" />
        <path id="path44_fill"
            d="m 8,16 c 4.4183,0 8,-3.5817 8,-8 C 16,3.58172 12.4183,0 8,0 3.58172,0 0,3.58172 0,8 c 0,4.4183 3.58172,8 8,8 z"
            inkscape:connector-curvature="0" style="fill-rule:evenodd" />
        <path id="path45_fill"
            d="M 3.707,6.707 C 3.451,6.707 3.195,6.609 3,6.414 L 0,3.414 1.414,2 3.707,4.293 8,0 l 1.414,1.414 -5,5 C 4.219,6.609 3.963,6.707 3.707,6.707"
            inkscape:connector-curvature="0" style="fill-rule:evenodd" />
        <path id="path46_fill"
            d="M 9,2 C 5.141,2 2,5.14 2,9 c 0,3.86 3.141,7 7,7 3.859,0 7,-3.14 7,-7 C 16,5.14 12.859,2 9,2 Z M 9,18 C 4.037,18 0,13.962 0,9 0,4.038 4.037,0 9,0 c 4.963,0 9,4.038 9,9 0,4.962 -4.037,9 -9,9 z"
            inkscape:connector-curvature="0" style="fill-rule:evenodd" />
        <path id="path47_fill" d="M 0,0 H 29 V 47 H 0 Z" inkscape:connector-curvature="0" style="fill-rule:evenodd" />
        <path id="path48_fill" d="M 9,34 V 4 C 9,2.897 8.103,2 7,2 H 0 V 0 h 7 c 2.206,0 4,1.794 4,4 v 30 z"
            inkscape:connector-curvature="0" style="fill-rule:evenodd" />
        <path id="path49_fill"
            d="m 4.24004,2.53052 c -0.96158,0 -1.73601,0.79119 -1.73601,1.75894 0,0.96774 0.77443,1.75894 1.73601,1.75894 0.95512,0 1.72955,-0.7912 1.72955,-1.75894 0,-0.96775 -0.77443,-1.75894 -1.72955,-1.75894 z m -5e-5,6.05494 C 1.9038,8.58546 0,6.65651 0,4.28946 0,1.92241 1.9038,0 4.23999,0 c 2.33619,0 4.23354,1.92241 4.23354,4.28946 0,2.36705 -1.89735,4.296 -4.23354,4.296 z"
            inkscape:connector-curvature="0" style="fill-rule:evenodd" />
        <path id="path50_fill"
            d="M 0.381426,8.92976 C 0.252004,8.92976 0.128465,8.86653 0.0559103,8.75349 -0.0539022,8.57721 0.00296502,8.3492 0.183371,8.24191 L 6.50739,4.46541 0.183371,0.688915 C 0.00296502,0.581617 -0.0539022,0.353609 0.0559103,0.177335 0.165723,0.0029759 0.399074,-0.052589 0.579481,0.0547087 L 7.43296,4.14927 c 0.11373,0.06706 0.18236,0.18777 0.18236,0.31614 0,0.13029 -0.06863,0.24909 -0.18236,0.31615 L 0.579481,8.87611 C 0.516731,8.91252 0.448098,8.92976 0.381426,8.92976"
            inkscape:connector-curvature="0" style="fill-rule:evenodd" />
        <path id="path51_fill"
            d="m 0.380422,0.736475 c -0.098047,0 -0.198055,-0.03832 -0.268649,-0.107297 C 0.0411797,0.558285 0,0.464399 0,0.364766 0,0.268964 0.0411797,0.171246 0.111773,0.104185 c 0.141188,-0.1379538 0.39611,-0.1398698 0.539258,0 0.068633,0.067061 0.109813,0.164779 0.109813,0.260581 0,0.099633 -0.04118,0.193519 -0.109813,0.264412 C 0.578477,0.698155 0.48043,0.736475 0.380422,0.736475"
            inkscape:connector-curvature="0" style="fill-rule:evenodd" />
        <path id="path52_fill"
            d="M 9.73619,0.566289 C 9.62834,0.390014 9.68325,0.162006 9.86365,0.0547087 10.0421,-0.052589 10.2774,0.0029759 10.3872,0.177335 c 0.1079,0.174358 0.051,0.404282 -0.1274,0.51158 -0.0608,0.036404 -0.1314,0.053649 -0.1981,0.053649 -0.12745,0 -0.25295,-0.063229 -0.32551,-0.176275 z M 8.35375,1.39209 C 8.24589,1.21582 8.3008,0.987808 8.48121,0.882426 8.65965,0.773213 8.893,0.828778 9.00282,1.00505 9.11263,1.17941 9.05576,1.40742 8.87536,1.51472 8.81457,1.55304 8.74789,1.56837 8.67926,1.56837 8.5518,1.56837 8.4263,1.50514 8.35375,1.39209 Z M 6.97127,2.21603 C 6.86146,2.04167 6.91833,1.81366 7.09677,1.70637 7.27522,1.60099 7.51053,1.65463 7.62034,1.83091 7.7282,2.00527 7.67329,2.23328 7.49288,2.34057 7.43209,2.37889 7.36346,2.39422 7.29483,2.39422 7.16737,2.39422 7.04187,2.33099 6.97127,2.21603 Z M 5.58883,3.04371 C 5.47902,2.86935 5.53588,2.63943 5.71433,2.53213 5.89277,2.42675 6.12612,2.4804 6.23594,2.65476 6.34771,2.83103 6.28888,3.05904 6.11044,3.16825 6.04769,3.20466 5.97905,3.2219 5.91434,3.2219 5.78492,3.2219 5.65942,3.15867 5.58883,3.04371 Z m -1.3844,0.8258 C 4.09462,3.69515 4.15148,3.46715 4.32993,3.35793 4.50837,3.25063 4.74369,3.3062 4.8535,3.48056 4.96331,3.65683 4.90644,3.88676 4.728,3.99214 4.66525,4.02854 4.59662,4.0477 4.52994,4.0477 4.40052,4.0477 4.27502,3.98447 4.20443,3.86951 Z M 2.82198,4.69535 C 2.71217,4.52099 2.76904,4.29298 2.94748,4.18569 3.12789,4.07647 3.36124,4.13395 3.46909,4.30831 3.58086,4.48459 3.52204,4.71259 3.34359,4.81798 3.28084,4.8563 3.21221,4.87354 3.14554,4.87354 c -0.12746,0 -0.251,-0.06323 -0.32356,-0.17819 z M 1.43744,5.52116 C 1.32959,5.34489 1.3845,5.11688 1.56294,5.0115 1.74335,4.9042 1.9767,4.95976 2.08651,5.13412 2.19633,5.3104 2.13946,5.5384 1.96101,5.64379 1.90023,5.68211 1.82963,5.69935 1.76296,5.69935 1.6355,5.69935 1.51,5.63612 1.43744,5.52116 Z M 0.0550396,6.34888 C -0.052812,6.17261 0.00209425,5.94268 0.1825,5.8373 0.360946,5.73 0.594297,5.78557 0.70411,5.95993 0.811961,6.13429 0.755094,6.36229 0.576649,6.47151 0.51586,6.50791 0.447227,6.52516 0.378594,6.52516 c -0.1255,0 -0.251,-0.06323 -0.3235544,-0.17628 z"
            inkscape:connector-curvature="0" style="fill-rule:evenodd" />
        <path id="path53_fill"
            d="m 0.380422,0.736235 c -0.101969,0 -0.198055,-0.040237 -0.27061,-0.109214 C 0.0392187,0.55996 0,0.462242 0,0.366441 0,0.266807 0.0392187,0.171006 0.109812,0.102029 c 0.141188,-0.1360385 0.39611,-0.1360385 0.537297,0 0.070594,0.068977 0.113735,0.164778 0.113735,0.264412 0,0.095801 -0.043141,0.193519 -0.113735,0.26058 -0.070593,0.068977 -0.16864,0.109214 -0.266687,0.109214"
            inkscape:connector-curvature="0" style="fill-rule:evenodd" />
        <path id="path54_fill"
            d="M 0.181491,0.688915 C 0.00304566,0.581617 -0.0538215,0.351693 0.055991,0.177335 0.167764,0.0029759 0.401116,-0.052589 0.579561,0.0547087 0.758007,0.162006 0.814874,0.390014 0.705061,0.566289 0.632507,0.679335 0.508968,0.742564 0.379546,0.742564 0.312874,0.742564 0.244241,0.725319 0.181491,0.688915 Z M 1.56589,1.51476 C 1.38745,1.40747 1.33058,1.17946 1.44039,1.0051 1.54824,0.828825 1.78159,0.77326 1.962,0.880558 2.14241,0.987855 2.19927,1.21586 2.0875,1.39022 2.01691,1.50518 1.89337,1.56841 1.76395,1.56841 1.69727,1.56841 1.62864,1.55308 1.56589,1.51476 Z M 2.94834,2.34049 C 2.76989,2.2332 2.71302,2.00519 2.82284,1.83083 2.93265,1.65647 3.166,1.60091 3.34641,1.70629 3.52485,1.81358 3.57976,2.04159 3.47191,2.21595 3.39935,2.33091 3.27385,2.39414 3.14639,2.39414 3.07776,2.39414 3.00913,2.37881 2.94834,2.34049 Z m 1.38443,0.8278 C 4.15236,3.05908 4.09746,2.83107 4.20531,2.65671 4.31512,2.48044 4.54847,2.42679 4.72692,2.53217 4.90928,2.63947 4.96419,2.86939 4.85438,3.04375 4.78378,3.15871 4.65828,3.22194 4.53082,3.22194 4.46219,3.22194 4.39356,3.20278 4.33277,3.16829 Z M 5.71528,3.99214 C 5.53487,3.88676 5.47997,3.65683 5.58978,3.48056 5.69959,3.3062 5.93294,3.25063 6.11139,3.35793 6.28983,3.46715 6.3467,3.69515 6.23885,3.86951 6.16629,3.98447 6.04079,4.0477 5.91333,4.0477 5.8447,4.0477 5.77803,4.02854 5.71528,3.99214 Z M 7.09775,4.81798 C 6.91931,4.71259 6.86244,4.48459 6.97225,4.30831 7.08206,4.13395 7.31541,4.07647 7.49582,4.18569 7.67427,4.29298 7.73113,4.52099 7.61936,4.69535 7.55073,4.81031 7.42523,4.87354 7.29581,4.87354 7.22913,4.87354 7.1605,4.8563 7.09775,4.81798 Z M 8.4822,5.64379 C 8.30179,5.53649 8.24493,5.30848 8.35474,5.13412 8.46455,4.95976 8.6979,4.9042 8.87831,5.0115 9.05675,5.11688 9.11362,5.3468 9.00381,5.52116 8.93125,5.63612 8.80772,5.69935 8.67829,5.69935 8.61162,5.69935 8.54299,5.68211 8.4822,5.64379 Z M 9.8646,6.47151 C 9.68615,6.36229 9.62928,6.13429 9.7391,5.95993 9.84695,5.78557 10.0823,5.73 10.2627,5.8373 c 0.1784,0.10538 0.2353,0.33531 0.1235,0.51158 -0.0706,0.11305 -0.1941,0.17628 -0.3235,0.17628 -0.06672,0 -0.13535,-0.01725 -0.1981,-0.05365 z"
            inkscape:connector-curvature="0" style="fill-rule:evenodd" />
        <path id="path55_fill"
            d="m 0.378461,0.736475 c -0.098047,0 -0.196094,-0.03832 -0.266688,-0.107297 C 0.0411797,0.558285 0,0.464399 0,0.364766 0,0.268964 0.0411797,0.171246 0.111773,0.104185 c 0.141188,-0.1398698 0.39611,-0.1379538 0.537297,0 0.070594,0.067061 0.109813,0.162863 0.109813,0.260581 0,0.099633 -0.039219,0.193519 -0.109813,0.264412 C 0.576516,0.698155 0.48043,0.736475 0.378461,0.736475"
            inkscape:connector-curvature="0" style="fill-rule:evenodd" />
        <path id="path56_fill"
            d="m 12.8276,8.17868 c -0.0687,0 -0.1373,-0.01916 -0.1981,-0.05557 L 0.181491,0.688915 C 0.00304566,0.581617 -0.0538215,0.353609 0.055991,0.177335 0.165803,0.0029759 0.399155,-0.052589 0.5776,0.0547087 L 12.8276,7.37203 25.0795,0.0547087 c 0.1785,-0.1072977 0.4118,-0.0517328 0.5216,0.1226263 0.1098,0.176274 0.053,0.404282 -0.1255,0.51158 l -12.45,7.434195 c -0.0608,0.03641 -0.1294,0.05557 -0.198,0.05557"
            inkscape:connector-curvature="0" style="fill-rule:evenodd" />
        <path id="path57_fill"
            d="m 7.2339,8.92976 c -0.06863,0 -0.13531,-0.01724 -0.19806,-0.05365 L 0.180406,4.78156 C 0.0686328,4.7145 0,4.5957 0,4.46541 0,4.33704 0.0686328,4.21633 0.180406,4.14927 L 7.03584,0.0547087 C 7.21625,-0.052589 7.4496,0.0029759 7.55941,0.177335 7.66727,0.353609 7.61236,0.581617 7.43195,0.688915 L 1.10793,4.46541 7.43195,8.24191 C 7.61236,8.3492 7.66727,8.57721 7.55941,8.75349 7.48686,8.86653 7.36136,8.92976 7.2339,8.92976"
            inkscape:connector-curvature="0" style="fill-rule:evenodd" />
        <path id="path58_fill"
            d="M 0.380422,0.738151 C 0.280414,0.738151 0.182367,0.69983 0.111773,0.628937 0.0411797,0.55996 0,0.464158 0,0.366441 0,0.268723 0.0411797,0.172922 0.111773,0.102029 c 0.143149,-0.1360385 0.39611,-0.1360385 0.537297,0 0.070594,0.070893 0.109813,0.166694 0.109813,0.264412 0,0.095801 -0.039219,0.193519 -0.109813,0.262496 C 0.576516,0.69983 0.48043,0.738151 0.380422,0.738151"
            inkscape:connector-curvature="0" style="fill-rule:evenodd" />
        <path id="path59_fill"
            d="M 0.182362,0.68692 C 0.00391632,0.581538 -0.0549118,0.353531 0.0568616,0.179172 0.166674,0.00289711 0.400026,-0.0526678 0.578471,0.0546299 0.756916,0.161928 0.813784,0.389935 0.703971,0.564294 0.633377,0.679256 0.507877,0.742485 0.378455,0.742485 0.313744,0.742485 0.245112,0.725241 0.182362,0.68692 Z M 1.55311,1.50703 C 1.3727,1.39974 1.31779,1.17173 1.42565,0.995454 1.53742,0.821095 1.77077,0.767446 1.94922,0.872828 2.12962,0.980125 2.18453,1.20813 2.07668,1.38441 2.00412,1.49937 1.87862,1.5626 1.75116,1.5626 1.68253,1.5626 1.6139,1.54344 1.55311,1.50703 Z M 2.9238,2.3251 C 2.74536,2.21972 2.68849,1.98979 2.7983,1.81352 2.90615,1.63916 3.14146,1.5836 3.32187,1.69281 3.50032,1.80011 3.55718,2.02812 3.44737,2.20247 3.37482,2.31744 3.25128,2.38066 3.12186,2.38066 3.05518,2.38066 2.98655,2.3615 2.9238,2.3251 Z M 4.29639,3.1433 C 4.11599,3.03792 4.06108,2.80991 4.16893,2.63363 4.27874,2.45927 4.5121,2.40371 4.69054,2.51101 4.86899,2.61639 4.92585,2.84631 4.81604,3.02067 4.74741,3.13755 4.61995,3.19886 4.49445,3.19886 4.42581,3.19886 4.35718,3.18162 4.29639,3.1433 Z"
            inkscape:connector-curvature="0" style="fill-rule:evenodd" />
        <path id="path60_fill"
            d="M 0.378461,0.738151 C 0.280414,0.738151 0.182367,0.695998 0.111773,0.628937 0.0411797,0.55996 0,0.462242 0,0.364525 0,0.268723 0.0411797,0.171006 0.111773,0.102029 c 0.139227,-0.1360385 0.394149,-0.1360385 0.537297,0 0.070594,0.068977 0.109813,0.166694 0.109813,0.262496 0,0.097717 -0.039219,0.195435 -0.109813,0.264412 C 0.576516,0.695998 0.48043,0.738151 0.378461,0.738151"
            inkscape:connector-curvature="0" style="fill-rule:evenodd" />
        <path id="path61_fill"
            d="m 25.6824,23.5299 c -0.0686,0 -0.1373,-0.0172 -0.1981,-0.0536 L 0.182367,8.36453 C 0.0686328,8.29747 0,8.17868 0,8.04839 0,7.92001 0.0686328,7.7993 0.182367,7.73224 L 13.0363,0.0547087 c 0.1804,-0.1072977 0.4138,-0.0517328 0.5236,0.1226263 0.1078,0.176274 0.0529,0.404282 -0.1275,0.51158 L 1.10989,8.04839 25.6824,22.7233 50.2569,8.04839 37.9343,0.688915 C 37.7539,0.581617 37.6971,0.353609 37.8069,0.177335 37.9167,0.0029759 38.15,-0.052589 38.3304,0.0547087 L 51.1844,7.73224 c 0.1118,0.06706 0.1804,0.18777 0.1804,0.31615 0,0.13029 -0.0686,0.24908 -0.1804,0.31614 L 25.8805,23.4763 c -0.0608,0.0364 -0.1295,0.0536 -0.1981,0.0536"
            inkscape:connector-curvature="0" style="fill-rule:evenodd" />
        <path id="path62_fill"
            d="M 0.181491,0.686999 C 0.00304566,0.581617 -0.0538215,0.351693 0.055991,0.177335 0.165803,0.0029759 0.399155,-0.052589 0.579561,0.0547087 0.758007,0.16009 0.814874,0.390014 0.705061,0.566289 0.632507,0.681251 0.508968,0.742564 0.379546,0.742564 0.312874,0.742564 0.244241,0.725319 0.181491,0.686999 Z M 1.57968,1.52436 C 1.40124,1.41515 1.34437,1.18714 1.45418,1.01278 1.564,0.838425 1.79735,0.78286 1.97775,0.890158 2.1562,0.99554 2.21307,1.22546 2.10325,1.40174 2.0307,1.51478 1.90716,1.57801 1.77774,1.57801 1.71107,1.57801 1.64243,1.56077 1.57968,1.52436 Z M 2.97971,2.3597 C 2.80126,2.25049 2.7444,2.02248 2.85421,1.84812 2.96206,1.67185 3.19541,1.6182 3.37582,1.72358 3.55426,1.83088 3.60917,2.0608 3.50132,2.23516 3.42876,2.35012 3.30326,2.41335 3.17776,2.41335 3.10913,2.41335 3.0405,2.39611 2.97971,2.3597 Z"
            inkscape:connector-curvature="0" style="fill-rule:evenodd" />
        <path id="path63_fill"
            d="m 0.380422,0.739588 c -0.101969,0 -0.198055,-0.042153 -0.27061,-0.11113 C 0.0392187,0.559481 0,0.463679 0,0.367878 0,0.268244 0.0392187,0.174359 0.109812,0.103466 c 0.141188,-0.1379546 0.398071,-0.1379546 0.537297,0 0.070594,0.070893 0.113735,0.164778 0.113735,0.264412 0,0.095801 -0.043141,0.191603 -0.113735,0.26058 -0.070593,0.068977 -0.16864,0.11113 -0.266687,0.11113"
            inkscape:connector-curvature="0" style="fill-rule:evenodd" />
        <path id="path64_fill"
            d="M 2.85325,0.566289 C 2.74147,0.390014 2.8003,0.162006 2.97875,0.0547087 3.15915,-0.052589 3.39251,0.0029759 3.50036,0.177335 3.61017,0.353609 3.5533,0.581617 3.37486,0.686999 3.31211,0.725319 3.24347,0.74448 3.1768,0.74448 3.04934,0.74448 2.92384,0.681251 2.85325,0.566289 Z M 1.45323,1.40174 C 1.34538,1.22546 1.40029,0.99554 1.58069,0.890158 1.75914,0.78286 1.99445,0.838425 2.1023,1.01278 2.21212,1.18714 2.15525,1.41515 1.9768,1.52436 1.91601,1.56077 1.84738,1.57801 1.77875,1.57801 1.65129,1.57801 1.52579,1.51478 1.45323,1.40174 Z M 0.0550396,2.23516 C -0.052812,2.0608 0.00209425,1.83088 0.1825,1.72358 0.360946,1.6182 0.594297,1.67185 0.706071,1.84812 0.813922,2.02248 0.759016,2.25049 0.57861,2.3597 0.517821,2.39611 0.449188,2.41335 0.380555,2.41335 0.253094,2.41335 0.127594,2.35012 0.0550396,2.23516 Z"
            inkscape:connector-curvature="0" style="fill-rule:evenodd" />
        <path id="path65_fill"
            d="M 0.380422,0.738151 C 0.280414,0.738151 0.182367,0.69983 0.111773,0.628937 0.0392188,0.55996 0,0.464158 0,0.366441 0,0.268723 0.0392188,0.172922 0.111773,0.102029 c 0.141188,-0.1360385 0.394149,-0.1360385 0.537297,0 0.070594,0.070893 0.109813,0.166694 0.109813,0.264412 0,0.095801 -0.039219,0.193519 -0.109813,0.262496 C 0.576516,0.69983 0.48043,0.738151 0.380422,0.738151"
            inkscape:connector-curvature="0" style="fill-rule:evenodd" />
        <path id="path66_fill"
            d="M 4.16808,0.564294 C 4.06023,0.389935 4.11513,0.161928 4.29554,0.0546299 4.47398,-0.0526678 4.70733,0.00289711 4.81715,0.179172 4.92696,0.353531 4.87009,0.581538 4.69165,0.68692 4.63086,0.725241 4.56026,0.742485 4.49359,0.742485 4.36417,0.742485 4.24063,0.679256 4.16808,0.564294 Z M 2.79732,1.38441 C 2.68751,1.20813 2.74438,0.980125 2.92282,0.872828 3.10127,0.767446 3.33658,0.821095 3.44639,0.995454 3.55621,1.17173 3.49934,1.39974 3.32089,1.50703 3.25814,1.54344 3.18951,1.5626 3.12088,1.5626 2.99342,1.5626 2.86792,1.49937 2.79732,1.38441 Z M 1.42673,2.20247 C 1.31692,2.02812 1.37183,1.80011 1.55419,1.69281 1.73264,1.5836 1.96599,1.63916 2.0758,1.81352 2.18365,1.98979 2.12875,2.21972 1.94834,2.3251 1.88755,2.3615 1.81892,2.38066 1.75029,2.38066 1.62283,2.38066 1.49733,2.31744 1.42673,2.20247 Z M 0.055991,3.02067 C -0.0538215,2.84631 0.00304566,2.61639 0.181491,2.51101 0.359936,2.40371 0.595249,2.45927 0.7031,2.63363 0.814874,2.80991 0.758007,3.03792 0.5776,3.1433 0.516811,3.18162 0.448178,3.19886 0.381507,3.19886 0.252085,3.19886 0.126585,3.13755 0.055991,3.02067 Z"
            inkscape:connector-curvature="0" style="fill-rule:evenodd" />
        <path id="path67_fill"
            d="M 0.380422,0.738871 C 0.282375,0.738871 0.182367,0.696718 0.111773,0.629657 0.0392188,0.558764 0,0.462962 0,0.365245 0,0.269443 0.0392188,0.171725 0.111773,0.102748 c 0.141188,-0.1360378 0.39611,-0.1379538 0.537297,0 0.070594,0.068977 0.111774,0.166695 0.111774,0.262497 0,0.097717 -0.04118,0.195435 -0.111774,0.264412 C 0.578477,0.696718 0.48043,0.738871 0.380422,0.738871"
            inkscape:connector-curvature="0" style="fill-rule:evenodd" />
        <path id="path68_fill"
            d="M 0.380555,4.83712 C 0.253094,4.83712 0.127594,4.77389 0.0550396,4.65893 -0.052812,4.48457 0.00209425,4.25465 0.1825,4.14927 L 7.03794,0.0547087 C 7.21638,-0.052589 7.44973,0.0029759 7.55955,0.177335 7.66936,0.353609 7.61249,0.581617 7.43405,0.688915 L 0.57861,4.78156 C 0.51586,4.81988 0.449188,4.83712 0.380555,4.83712"
            inkscape:connector-curvature="0" style="fill-rule:evenodd" />
        <path id="path69_fill"
            d="m 38.1324,23.5298 c -0.1294,0 -0.253,-0.0632 -0.3255,-0.1763 -0.1098,-0.1762 -0.053,-0.4042 0.1274,-0.5115 L 50.2569,15.4825 25.6824,0.805691 1.10989,15.4825 13.4324,22.842 c 0.1804,0.1073 0.2353,0.3353 0.1275,0.5115 -0.1098,0.1744 -0.3432,0.23 -0.5236,0.1227 L 0.182367,15.7986 C 0.0686328,15.7316 0,15.6109 0,15.4825 0,15.3522 0.0686328,15.2334 0.182367,15.1663 L 25.4843,0.0546069 c 0.1216,-0.0728092 0.2746,-0.0728092 0.3962,0 L 51.1844,15.1663 c 0.1118,0.0671 0.1804,0.1859 0.1804,0.3162 0,0.1284 -0.0686,0.2491 -0.1804,0.3161 l -12.854,7.6776 c -0.0627,0.0364 -0.1313,0.0536 -0.198,0.0536"
            inkscape:connector-curvature="0" style="fill-rule:evenodd" />
        <path id="path70_fill"
            d="M 5.97402,4.0822 C 5.90539,4.0822 5.83675,4.06496 5.77597,4.02856 L 0.183371,0.686999 C 0.00296502,0.581617 -0.0539022,0.351693 0.0559103,0.177335 0.165723,0.0029759 0.399074,-0.052589 0.579481,0.0547087 L 5.97402,3.27556 11.3705,0.0547087 c 0.1785,-0.1072977 0.4118,-0.0517328 0.5216,0.1226263 0.1098,0.174358 0.053,0.404282 -0.1255,0.509664 L 6.17207,4.02856 C 6.11129,4.06496 6.04265,4.0822 5.97402,4.0822"
            inkscape:connector-curvature="0" style="fill-rule:evenodd" />
        <path id="path71_fill"
            d="m 7.23302,4.83712 c -0.06667,0 -0.1353,-0.01724 -0.19609,-0.05556 L 0.181491,0.688915 C 0.00304566,0.581617 -0.0538215,0.353609 0.055991,0.177335 0.165803,0.0029759 0.399155,-0.052589 0.5776,0.0547087 L 7.43304,4.14927 c 0.17844,0.10538 0.23531,0.3353 0.1255,0.50966 -0.0706,0.11496 -0.1961,0.17819 -0.32552,0.17819"
            inkscape:connector-curvature="0" style="fill-rule:evenodd" />
        <path id="path72_fill"
            d="m 0.380422,0.736475 c -0.101969,0 -0.198055,-0.03832 -0.268649,-0.107297 C 0.0411797,0.558285 0,0.464399 0,0.366682 0,0.267048 0.0411797,0.173163 0.111773,0.104185 c 0.143149,-0.1398698 0.39611,-0.1379538 0.537297,0 0.070594,0.068978 0.111774,0.164779 0.111774,0.262497 0,0.097717 -0.04118,0.191603 -0.111774,0.262496 C 0.578477,0.698155 0.48043,0.736475 0.380422,0.736475"
            inkscape:connector-curvature="0" style="fill-rule:evenodd" />
        <path id="path73_fill"
            d="m 22.3804,0.565359 c -0.1079,-0.176275 -0.053,-0.404282 0.1274,-0.5115799 0.1785,-0.1053817 0.4118,-0.05173281 0.5236,0.1245419 0.1078,0.174359 0.0529,0.402367 -0.1275,0.509664 -0.0608,0.036405 -0.1294,0.055565 -0.198,0.055565 -0.1275,0 -0.253,-0.063229 -0.3255,-0.178191 z M 20.8919,1.45435 C 20.7841,1.27999 20.839,1.05007 21.0174,0.94277 21.1978,0.835473 21.4312,0.891037 21.541,1.0654 c 0.1098,0.17627 0.0529,0.40428 -0.1255,0.51158 -0.0628,0.0364 -0.1314,0.05556 -0.1981,0.05556 -0.1274,0 -0.2529,-0.06323 -0.3255,-0.17819 z m -1.4883,0.88904 c -0.1098,-0.17628 -0.053,-0.40428 0.1274,-0.51158 0.1765,-0.1073 0.4138,-0.05173 0.5216,0.12262 0.1098,0.17436 0.053,0.40429 -0.1255,0.51158 -0.0627,0.03641 -0.1313,0.05365 -0.198,0.05365 -0.1294,0 -0.253,-0.06323 -0.3255,-0.17627 z M 17.9172,3.23055 C 17.8054,3.0562 17.8623,2.82819 18.0427,2.72089 c 0.1784,-0.1073 0.4118,-0.05173 0.5216,0.12454 0.1098,0.17436 0.0529,0.40237 -0.1255,0.50967 -0.0628,0.0364 -0.1314,0.05364 -0.2,0.05364 -0.1255,0 -0.251,-0.06322 -0.3216,-0.17819 z m -1.4883,0.889 C 16.3191,3.94519 16.376,3.71718 16.5544,3.60988 c 0.1785,-0.10729 0.4118,-0.05173 0.5216,0.12263 0.1098,0.17628 0.053,0.40428 -0.1274,0.50966 -0.0608,0.03833 -0.1295,0.05557 -0.1961,0.05557 -0.1275,0 -0.253,-0.06323 -0.3236,-0.17819 z M 14.9386,5.0105 c -0.1079,-0.17627 -0.053,-0.4062 0.1274,-0.51158 0.1785,-0.1073 0.4118,-0.05173 0.5197,0.12263 0.1118,0.17436 0.0569,0.40236 -0.1235,0.51158 -0.0608,0.0364 -0.1295,0.05365 -0.1981,0.05365 -0.1275,0 -0.253,-0.06323 -0.3255,-0.17628 z m -1.4884,0.88718 c -0.1099,-0.17436 -0.053,-0.40237 0.1255,-0.51158 0.1804,-0.10538 0.4137,-0.04982 0.5235,0.12454 0.1098,0.17436 0.053,0.40428 -0.1255,0.51158 -0.0627,0.0364 -0.1294,0.05365 -0.198,0.05365 -0.1275,0 -0.253,-0.06323 -0.3255,-0.17819 z M 11.9638,6.78674 C 11.852,6.61239 11.9089,6.38438 12.0873,6.27708 c 0.1804,-0.10921 0.4157,-0.05365 0.5236,0.12263 0.1098,0.17627 0.0529,0.40428 -0.1255,0.50966 -0.0628,0.0364 -0.1314,0.05556 -0.1981,0.05556 -0.1294,0 -0.2529,-0.06322 -0.3235,-0.17819 z M 10.4754,7.6757 c -0.1118,-0.17436 -0.0549,-0.40237 0.1255,-0.50966 0.1785,-0.1073 0.4118,-0.05174 0.5216,0.12262 0.1079,0.17436 0.053,0.40429 -0.1255,0.50967 -0.0627,0.03832 -0.1314,0.05556 -0.198,0.05556 -0.1295,0 -0.255,-0.06323 -0.3236,-0.17819 z M 8.98714,8.56474 C 8.87733,8.38846 8.9342,8.16046 9.11264,8.05507 9.29109,7.94778 9.52444,8.00334 9.63425,8.1777 9.7421,8.35206 9.6872,8.58007 9.50679,8.68736 9.446,8.72569 9.37933,8.74293 9.30874,8.74293 c -0.1255,0 -0.251,-0.06323 -0.3216,-0.17819 z M 7.49679,9.45387 C 7.38697,9.27951 7.44384,9.04958 7.62229,8.94229 7.80269,8.8369 8.03604,8.89055 8.1439,9.06491 8.25567,9.24119 8.1988,9.46919 8.02036,9.57841 7.95957,9.61481 7.89094,9.63206 7.8223,9.63206 7.69484,9.63206 7.56934,9.56883 7.49679,9.45387 Z M 6.00851,10.3429 C 5.89869,10.1685 5.95556,9.94053 6.13401,9.83132 6.31441,9.72402 6.54776,9.77959 6.65758,9.95395 6.76739,10.1302 6.71052,10.3601 6.53208,10.4655 6.46933,10.5019 6.40069,10.5211 6.33402,10.5211 6.2046,10.5211 6.08106,10.4579 6.00851,10.3429 Z M 4.5201,11.2319 C 4.41029,11.0557 4.46716,10.8277 4.6456,10.7223 4.82601,10.6131 5.06132,10.6686 5.16917,10.8449 5.27899,11.0193 5.22212,11.2473 5.04367,11.3546 4.98092,11.391 4.91229,11.4082 4.84562,11.4082 4.7162,11.4082 4.5907,11.345 4.5201,11.2319 Z M 3.03174,12.119 C 2.92193,11.9446 2.9788,11.7166 3.1592,11.6112 c 0.17845,-0.1073 0.4118,-0.0517 0.52161,0.1227 0.10785,0.1743 0.05295,0.4023 -0.12746,0.5096 -0.06079,0.0383 -0.12942,0.0537 -0.19805,0.0537 -0.12747,0 -0.25297,-0.0633 -0.32356,-0.1782 z M 1.54344,13.01 C 1.43559,12.8337 1.4905,12.6057 1.6709,12.4984 1.84935,12.3911 2.0827,12.4467 2.19251,12.6211 2.30036,12.7973 2.24546,13.0253 2.06505,13.1307 2.00426,13.169 1.93563,13.1882 1.867,13.1882 1.7415,13.1882 1.616,13.125 1.54344,13.01 Z M 0.0550396,13.8991 C -0.052812,13.7247 0.00209425,13.4929 0.1825,13.3875 c 0.178446,-0.1073 0.411797,-0.0518 0.52161,0.1226 0.109812,0.1744 0.052945,0.4024 -0.1255,0.5116 -0.060789,0.0364 -0.129422,0.0555 -0.198055,0.0555 -0.127461,0 -0.252961,-0.0632 -0.3255154,-0.1781 z"
            inkscape:connector-curvature="0" style="fill-rule:evenodd" />
        <path id="path74_fill"
            d="m 0.380422,0.736475 c -0.101969,0 -0.200016,-0.03832 -0.27061,-0.107297 C 0.0392187,0.558285 0,0.464399 0,0.364766 0,0.267048 0.0392187,0.171246 0.109812,0.104185 c 0.143149,-0.1379538 0.39611,-0.1398698 0.539258,0 0.068633,0.067061 0.111774,0.162863 0.111774,0.260581 0,0.099633 -0.043141,0.193519 -0.111774,0.264412 C 0.578477,0.698155 0.478469,0.736475 0.380422,0.736475"
            inkscape:connector-curvature="0" style="fill-rule:evenodd" />
        <path id="path75_fill"
            d="m 0.380422,0.735756 c -0.100008,0 -0.200016,-0.038321 -0.27061,-0.107298 C 0.0411797,0.559481 0,0.463679 0,0.364046 0,0.268244 0.0411797,0.172443 0.109812,0.103466 c 0.141188,-0.1379546 0.398071,-0.1379546 0.539258,0 0.070594,0.068977 0.111774,0.164778 0.111774,0.26058 0,0.099633 -0.04118,0.195435 -0.111774,0.264412 C 0.578477,0.697435 0.482391,0.735756 0.380422,0.735756"
            inkscape:connector-curvature="0" style="fill-rule:evenodd" />
        <path id="path76_fill"
            d="m 22.3832,0.563443 c -0.1118,-0.174359 -0.0549,-0.402366 0.1236,-0.5096639 0.1804,-0.1053817 0.4157,-0.05173281 0.5235,0.1245419 0.1098,0.174359 0.053,0.402367 -0.1255,0.509664 -0.0627,0.038321 -0.1314,0.053649 -0.2,0.053649 -0.1275,0 -0.253,-0.063229 -0.3216,-0.178191 z M 20.8948,1.45435 C 20.785,1.28 20.8399,1.05007 21.0203,0.942774 21.1988,0.837392 21.4321,0.891041 21.5419,1.0654 c 0.1079,0.17627 0.053,0.40428 -0.1255,0.51158 -0.0627,0.0364 -0.1313,0.05557 -0.198,0.05557 -0.1275,0 -0.253,-0.06323 -0.3236,-0.1782 z M 19.4045,2.34339 C 19.2967,2.16711 19.3516,1.93911 19.532,1.83181 c 0.1784,-0.1073 0.4118,-0.05173 0.5216,0.12262 0.1098,0.17436 0.0529,0.4062 -0.1275,0.51158 -0.0608,0.03641 -0.1274,0.05557 -0.1961,0.05557 -0.1274,0 -0.2529,-0.06515 -0.3255,-0.17819 z m -1.4883,0.8872 c -0.1098,-0.17436 -0.0529,-0.40237 0.1255,-0.50775 0.1804,-0.10921 0.4138,-0.05365 0.5236,0.12071 0.1098,0.17627 0.0529,0.40428 -0.1255,0.51158 -0.0628,0.0364 -0.1314,0.05365 -0.1981,0.05365 -0.1274,0 -0.2529,-0.06323 -0.3255,-0.17819 z m -1.4884,0.889 C 16.318,3.94523 16.3749,3.71723 16.5533,3.60993 c 0.1804,-0.1073 0.4157,-0.05174 0.5236,0.12454 0.1098,0.17436 0.0529,0.40237 -0.1255,0.50966 -0.0628,0.03641 -0.1314,0.05365 -0.1981,0.05365 -0.1294,0 -0.2529,-0.06323 -0.3255,-0.17819 z m -1.4864,0.889 C 14.8297,4.83423 14.8865,4.60622 15.065,4.49892 c 0.1804,-0.1073 0.4137,-0.05173 0.5235,0.12263 0.1099,0.17436 0.053,0.40428 -0.1255,0.50966 -0.0627,0.03832 -0.1313,0.05748 -0.2,0.05748 -0.1274,0 -0.2529,-0.06323 -0.3216,-0.1801 z m -1.4883,0.89095 c -0.1098,-0.17627 -0.053,-0.4062 0.1255,-0.51158 0.1784,-0.1073 0.4118,-0.05173 0.5216,0.12263 0.1078,0.17436 0.0529,0.40236 -0.1275,0.51158 -0.0608,0.0364 -0.1294,0.05365 -0.1961,0.05365 -0.1274,0 -0.2529,-0.06323 -0.3235,-0.17628 z m -1.4903,0.88713 c -0.1079,-0.17436 -0.053,-0.40236 0.1274,-0.51158 0.1785,-0.10538 0.4118,-0.05173 0.5197,0.12454 0.1117,0.17436 0.0549,0.40429 -0.1255,0.51158 -0.0608,0.03641 -0.1275,0.05365 -0.1961,0.05365 -0.1275,0 -0.253,-0.06323 -0.3255,-0.17819 z m -1.4884,0.88911 c -0.1098,-0.17436 -0.0529,-0.40236 0.1255,-0.50966 0.1805,-0.10922 0.4138,-0.05365 0.5236,0.12262 0.1098,0.17628 0.053,0.40429 -0.1255,0.50967 -0.0627,0.0364 -0.1314,0.05556 -0.198,0.05556 -0.1295,0 -0.253,-0.06323 -0.3256,-0.17819 z M 8.98604,8.56474 C 8.87623,8.38846 8.9331,8.16046 9.11154,8.05507 9.28999,7.94778 9.5253,8.00334 9.63511,8.1777 9.74493,8.35206 9.68806,8.58007 9.50962,8.68736 9.44687,8.72569 9.37823,8.74101 9.31156,8.74101 9.18214,8.74101 9.0586,8.67778 8.98604,8.56474 Z M 7.4978,9.45386 C 7.38799,9.27759 7.44486,9.04958 7.62527,8.9442 7.80371,8.8369 8.03706,8.89055 8.14688,9.06682 8.25473,9.24118 8.19982,9.46919 8.02138,9.57649 7.95863,9.61481 7.88999,9.63205 7.82136,9.63205 7.6939,9.63205 7.5684,9.56882 7.4978,9.45386 Z M 6.00943,10.3429 C 5.89962,10.1685 5.95845,9.93862 6.13689,9.83132 6.31534,9.72594 6.54869,9.77959 6.6585,9.95395 6.76636,10.1302 6.71145,10.3582 6.53104,10.4655 c -0.06079,0.0364 -0.12942,0.0556 -0.19805,0.0556 -0.1255,0 -0.25296,-0.0632 -0.32356,-0.1782 z m -1.48837,0.889 c -0.10785,-0.1762 -0.05294,-0.4023 0.1255,-0.5115 0.18041,-0.1073 0.41376,-0.0518 0.52161,0.1226 0.11178,0.1782 0.05491,0.4062 -0.1255,0.5116 -0.06079,0.0364 -0.12942,0.0555 -0.19609,0.0555 -0.12746,0 -0.25296,-0.0632 -0.32552,-0.1782 z M 3.03268,12.121 c -0.10982,-0.1763 -0.05295,-0.4043 0.1255,-0.5097 0.1804,-0.1092 0.41375,-0.0536 0.52357,0.1226 0.10981,0.1744 0.05294,0.4024 -0.1255,0.5097 -0.06275,0.0383 -0.13139,0.0536 -0.19806,0.0536 -0.12942,0 -0.25296,-0.0632 -0.32551,-0.1762 z m -1.48829,0.8871 c -0.10981,-0.1744 -0.05294,-0.4024 0.1255,-0.5097 0.17845,-0.1054 0.41376,-0.0498 0.52357,0.1245 0.10982,0.1744 0.05295,0.4024 -0.1255,0.5097 -0.06275,0.0364 -0.13138,0.0537 -0.19805,0.0537 -0.12942,0 -0.25492,-0.0614 -0.32552,-0.1782 z m -1.488399,0.891 c -0.1098125,-0.1744 -0.05294534,-0.4043 0.1255,-0.5116 0.178445,-0.1073 0.413758,-0.0518 0.52357,0.1226 0.107852,0.1763 0.052946,0.4043 -0.1255,0.5116 -0.06275,0.0364 -0.131383,0.0555 -0.200015,0.0555 -0.127461,0 -0.252961,-0.0632 -0.323555,-0.1781 z"
            inkscape:connector-curvature="0" style="fill-rule:evenodd" />
        <path id="path77_fill"
            d="M 0.378461,0.736235 C 0.278453,0.736235 0.182367,0.695998 0.111773,0.628937 0.0392188,0.558044 0,0.462242 0,0.364525 0,0.268723 0.0392188,0.171006 0.111773,0.102029 c 0.139227,-0.1360385 0.394149,-0.1360385 0.535336,0 0.072555,0.068977 0.111774,0.166694 0.111774,0.262496 0,0.097717 -0.039219,0.193519 -0.109813,0.264412 C 0.576516,0.695998 0.48043,0.736235 0.378461,0.736235"
            inkscape:connector-curvature="0" style="fill-rule:evenodd" />
        <path id="path78_fill"
            d="M 1.10791,4.66842 7.57312,8.5273 14.0364,4.66842 7.57312,0.807617 Z M 7.57314,9.33394 C 7.50451,9.33394 7.43587,9.3167 7.37509,9.28029 L 0.182367,4.98455 C 0.0686328,4.91749 0,4.79678 0,4.66841 0,4.53812 0.0686328,4.41741 0.182367,4.35035 L 7.37509,0.0546069 c 0.12157,-0.0728092 0.27453,-0.0728092 0.39611,0 L 14.9639,4.35035 c 0.1118,0.06706 0.1824,0.18777 0.1824,0.31806 0,0.12837 -0.0706,0.24908 -0.1824,0.31614 L 7.7712,9.28029 C 7.71041,9.3167 7.64177,9.33394 7.57314,9.33394 Z"
            inkscape:connector-curvature="0" style="fill-rule:evenodd" />
        <path id="path79_fill" d="M 0,0 H 50 V 47.3232 H 0 Z" inkscape:connector-curvature="0"
            style="fill-rule:evenodd" />
        <path id="path80_stroke_2x"
            d="m 0,0 v -2 h -2 v 2 z m 50,0 h 2 v -2 h -2 z m 0,47.3232 v 2 h 2 v -2 z m -50,0 h -2 v 2 H 0 Z M 0,2 H 50 V -2 H 0 Z M 48,0 v 47.3232 h 4 V 0 Z m 2,45.3232 H 0 v 4 h 50 z m -48,2 V 0 h -4 v 47.3232 z"
            inkscape:connector-curvature="0" />
        <path id="path81_fill" d="m 0,0 2,1 v 41 l 20,15 v 3 L 0,44 Z" inkscape:connector-curvature="0"
            style="fill-rule:evenodd" />
        <path id="path82_fill"
            d="M 2,45.496 24,61.757 46,45.496 V 2.618 l -8.553,4.277 c -0.47,0.233 -1.036,0.067 -1.304,-0.38 L 33.434,2 H 14.566 L 11.857,6.515 C 11.59,6.963 11.023,7.129 10.553,6.895 L 2,2.618 Z M 24,64 c -0.209,0 -0.418,-0.065 -0.595,-0.196 l -23,-17 C 0.15,46.615 0,46.317 0,46 V 1 C 0,0.653004 0.18,0.332004 0.475,0.149004 0.77,-0.0329959 1.137,-0.0489959 1.447,0.105004 L 10.619,4.691 13.143,0.485004 C 13.323,0.185004 13.648,4.10868e-6 14,4.10868e-6 h 20 c 0.352,0 0.677,0.18499989132 0.857,0.48499989132 L 37.381,4.691 46.553,0.105004 c 0.309,-0.1539999 0.677,-0.1379999 0.972,0.044 C 47.82,0.332004 48,0.653004 48,1 v 45 c 0,0.317 -0.15,0.615 -0.405,0.804 l -23,17 C 24.418,63.935 24.209,64 24,64 Z"
            inkscape:connector-curvature="0" style="fill-rule:evenodd" />
        <path id="path83_fill"
            d="m 20,56 c -0.208,0 -0.417,-0.065 -0.593,-0.195 l -19,-14 C 0.151,41.616 0,41.317 0,41 V 0 H 2 V 40.495 L 20,53.758 38,40.495 V 0 h 2 v 41 c 0,0.317 -0.151,0.616 -0.407,0.805 l -19,14 C 20.417,55.935 20.208,56 20,56"
            inkscape:connector-curvature="0" style="fill-rule:evenodd" />
        <path id="path84_fill" d="M 0,5 H 2 V 0 H 0 Z" inkscape:connector-curvature="0" style="fill-rule:evenodd" />
        <path id="path85_fill"
            d="M 8,2 C 4.691,2 2,4.691 2,8 c 0,3.309 2.691,6 6,6 3.309,0 6,-2.691 6,-6 C 14,4.691 11.309,2 8,2 Z M 8,16 C 3.589,16 0,12.411 0,8 0,3.589 3.589,0 8,0 c 4.411,0 8,3.589 8,8 0,4.411 -3.589,8 -8,8 z"
            inkscape:connector-curvature="0" style="fill-rule:evenodd" />
        <path id="path86_fill" d="M 4,10 H 0 V 0 h 2 v 8 h 2 v 2" inkscape:connector-curvature="0"
            style="fill-rule:evenodd" />
        <path id="path87_fill" d="M 6,21 H 0 V 0 H 2 V 19 H 4 V 16 H 6 V 14 H 4 v -2 h 4 v 6 H 6 v 3"
            inkscape:connector-curvature="0" style="fill-rule:evenodd" />
        <path id="path88_fill" d="M 0,2 H 4 V 0 H 0 Z" inkscape:connector-curvature="0" style="fill-rule:evenodd" />
        <path id="path89_fill"
            d="M 0,4 C 0,1.79086 1.79086,0 4,0 h 56 c 2.2091,0 4,1.79086 4,4 v 37 c 0,2.2091 -1.7909,4 -4,4 H 4 C 1.79086,45 0,43.2091 0,41 Z"
            inkscape:connector-curvature="0" style="fill-rule:evenodd" />
        <path id="path90_fill"
            d="M 4,2 C 2.897,2 2,2.897 2,4 v 40 c 0,1.103 0.897,2 2,2 h 56 c 1.103,0 2,-0.897 2,-2 V 4 C 62,2.897 61.103,2 60,2 Z M 60,48 H 4 C 1.794,48 0,46.206 0,44 V 4 C 0,1.794 1.794,0 4,0 h 56 c 2.206,0 4,1.794 4,4 v 40 c 0,2.206 -1.794,4 -4,4 z"
            inkscape:connector-curvature="0" style="fill-rule:evenodd" />
        <path id="path91_fill" d="M 0,0 H 52 V 32 H 0 Z" inkscape:connector-curvature="0" style="fill-rule:evenodd" />
        <path id="path92_fill" d="M 3,10.574 0,0.574 1.916,0 4.916,10 3,10.574" inkscape:connector-curvature="0"
            style="fill-rule:evenodd" />
        <path id="path93_fill" d="M 1.916,10.574 0,10 3,0 l 1.916,0.574 -3,10" inkscape:connector-curvature="0"
            style="fill-rule:evenodd" />
        <path id="path94_fill" d="M 0,2 H 26 V 0 H 0 Z" inkscape:connector-curvature="0" style="fill-rule:evenodd" />
        <path id="path95_fill"
            d="M 2,34 H 54 V 2 H 2 Z M 1,36 C 0.447,36 0,35.552 0,35 V 1 C 0,0.448 0.447,0 1,0 h 54 c 0.553,0 1,0.448 1,1 v 34 c 0,0.552 -0.447,1 -1,1 z"
            inkscape:connector-curvature="0" style="fill-rule:evenodd" />
        <path id="path96_fill" d="M 0,2 H 6 V 0 H 0 Z" inkscape:connector-curvature="0" style="fill-rule:evenodd" />
        <path id="path97_fill" d="M 0,2 H 8 V 0 H 0 Z" inkscape:connector-curvature="0" style="fill-rule:evenodd" />
        <path id="path98_fill"
            d="M 2,34 H 54 V 2 H 2 Z m 53,2 H 1 C 0.447,36 0,35.553 0,35 V 1 C 0,0.447 0.447,0 1,0 h 54 c 0.553,0 1,0.447 1,1 v 34 c 0,0.553 -0.447,1 -1,1 z"
            inkscape:connector-curvature="0" style="fill-rule:evenodd" />
        <path id="path99_fill"
            d="m 2.39423,12 c 2.357,2.344 10.73597,10 19.60597,10 8.87,0 17.249,-7.656 19.606,-10 C 39.2492,9.656 30.8702,2 22.0002,2 13.1302,2 4.75123,9.656 2.39423,12 Z M 22.0002,24 C 10.6882,24 0.68125,13.135 0.26025,12.673 c -0.347,-0.382 -0.347,-0.964 0,-1.346 C 0.68125,10.865 10.6882,0 22.0002,0 c 11.313,0 21.319,10.865 21.74,11.327 0.347,0.382 0.347,0.964 0,1.346 C 43.3192,13.135 33.3132,24 22.0002,24 Z"
            inkscape:connector-curvature="0" style="fill-rule:evenodd" />
        <path id="path100_fill"
            d="M 0,12 H 2 C 2,17.514 6.486,22 12,22 17.514,22 22,17.514 22,12 22,6.486 17.514,2 12,2 V 0 C 18.617,0 24,5.383 24,12 24,18.617 18.617,24 12,24 5.383,24 0,18.617 0,12 Z"
            inkscape:connector-curvature="0" style="fill-rule:evenodd" />
        <path id="path101_fill" d="M 2,8 H 0 C 0,3.589 3.589,0 8,0 V 2 C 4.691,2 2,4.691 2,8"
            inkscape:connector-curvature="0" style="fill-rule:evenodd" />
        <path id="path102_fill" d="M 0,8 V 6 C 3.309,6 6,3.309 6,0 H 8 C 8,4.411 4.411,8 0,8"
            inkscape:connector-curvature="0" style="fill-rule:evenodd" />


        clip-path=&quot;url(#clip-0)&quot; clip-path=&quot;url(#clip-1)&quot; clip-path=&quot;url(#clip-2)&quot;
        clip-path=&quot;url(#clip-3)&quot; clip-path=&quot;url(#clip-4)&quot; clip-path=&quot;url(#clip-5)&quot;
        clip-path=&quot;url(#clip-6)&quot; clip-path=&quot;url(#clip-7)&quot; clip-path=&quot;url(#clip-8)&quot;<mask
        mask-type="alpha" id="mask0_outline">
        <g id="Mask">
            <use height="100%" width="100%" y="0" x="0" style="fill:#ffffff" id="use49" transform="translate(891,-1610)"
                xlink:href="#path9_fill" />
        </g>
    </mask>
        <mask id="mask1_outline_ins">
            <use height="100%" width="100%" y="0" x="0" style="fill:#ffffff" id="use480"
                transform="translate(1135,-1495.32)" xlink:href="#path79_fill" />
        </mask>
    </defs>
    <g inkscape:groupmode="layer" id="layer1" inkscape:label="icons" transform="translate(0,-84)" />
</svg>
