<?xml version="1.0" encoding="UTF-8" standalone="no"?>
<!DOCTYPE svg PUBLIC "-//W3C//DTD SVG 1.1//EN" "http://www.w3.org/Graphics/SVG/1.1/DTD/svg11.dtd">
<svg width="100%" height="100%" viewBox="0 0 930 650" version="1.1" xmlns="http://www.w3.org/2000/svg" xmlns:xlink="http://www.w3.org/1999/xlink" xml:space="preserve" style="fill-rule:evenodd;clip-rule:evenodd;stroke-linejoin:round;stroke-miterlimit:1.41421;">
    <g transform="matrix(1,0,0,1,-75,-170)">
        <g transform="matrix(1,0,0,1,-38.8551,-133.74)">
            <g id="whats_new_accounts" transform="matrix(1,0,0,1,44.421,-1.52921)">
                <g transform="matrix(-0.0897127,0,0,1.48794,1035.51,211.032)">
                    <rect x="0" y="69.783" width="839.741" height="422.729" style="fill:url(#_Radial1);"/>
                </g>
                <g transform="matrix(1,0,0,1,-5.81713,0)">
                    <g transform="matrix(2.5719,0,0,1.20304,-831.678,11.1355)">
                        <rect x="367.892" y="252.469" width="331.074" height="351.385" style="fill-opacity:0.2;"/>
                    </g>
                    <g transform="matrix(1,0,0,1,-5.68434e-14,145.352)">
                        <g transform="matrix(1.53979,0,0,1.53979,-495.106,-538.408)">
                            <clipPath id="_clip2">
                                <circle cx="495.359" cy="567.229" r="62.962"/>
                            </clipPath>
                            <g clip-path="url(#_clip2)">
                                <g transform="matrix(0.799878,0,0,0.799878,36.1705,67.0232)">
                                    <circle cx="574.073" cy="625.352" r="78.714" style="fill:white;"/>
                                </g>
                                <g transform="matrix(7.083,0,0,7.083,436.553,523.945)">
                                    <path d="M8.404,1C6.672,1 5.204,2.266 5.204,3.9C5.216,4.416 5.262,5.053 5.57,6.4L5.57,6.433L5.604,6.467C5.703,6.75 5.847,6.912 6.037,7.133C6.227,7.354 6.454,7.615 6.67,7.833C6.696,7.859 6.712,7.875 6.737,7.9C6.78,8.086 6.832,8.287 6.87,8.467C6.973,8.945 6.963,9.284 6.937,9.4C6.193,9.661 5.268,9.972 4.437,10.333C3.971,10.536 3.549,10.717 3.204,10.933C2.859,11.15 2.516,11.313 2.404,11.8C2.244,12.433 2.205,12.554 2.004,13.333C1.977,13.542 2.087,13.763 2.271,13.867C3.779,14.681 6.095,15.009 8.404,15C10.713,14.991 13.01,14.644 14.47,13.867C14.587,13.793 14.613,13.758 14.603,13.633C14.56,12.944 14.522,12.266 14.47,11.867C14.452,11.768 14.405,11.674 14.337,11.6C13.873,11.046 13.18,10.708 12.37,10.367C11.63,10.055 10.763,9.732 9.904,9.367C9.855,9.26 9.808,8.948 9.904,8.467C9.929,8.338 9.97,8.199 10.004,8.067C10.084,7.976 10.147,7.902 10.237,7.8C10.428,7.582 10.633,7.353 10.803,7.133C10.974,6.913 11.113,6.725 11.203,6.467L11.237,6.433C11.585,5.027 11.585,4.441 11.603,3.933L11.603,3.9C11.603,2.266 10.135,1 8.404,1L8.404,1Z" style="fill:rgb(69,79,91);fill-rule:nonzero;"/>
                                </g>
                            </g>
                        </g>
                        <g transform="matrix(1.0451,0,0,1.0451,180.229,-296.871)">
                            <clipPath id="_clip3">
                                <circle cx="495.359" cy="567.229" r="62.962"/>
                            </clipPath>
                            <g clip-path="url(#_clip3)">
                                <g transform="matrix(0.799878,0,0,0.799878,36.1705,67.0232)">
                                    <circle cx="574.073" cy="625.352" r="78.714" style="fill:white;"/>
                                </g>
                                <g transform="matrix(7.083,0,0,7.083,436.553,523.945)">
                                    <path d="M8.404,1C6.672,1 5.204,2.266 5.204,3.9C5.216,4.416 5.262,5.053 5.57,6.4L5.57,6.433L5.604,6.467C5.703,6.75 5.847,6.912 6.037,7.133C6.227,7.354 6.454,7.615 6.67,7.833C6.696,7.859 6.712,7.875 6.737,7.9C6.78,8.086 6.832,8.287 6.87,8.467C6.973,8.945 6.963,9.284 6.937,9.4C6.193,9.661 5.268,9.972 4.437,10.333C3.971,10.536 3.549,10.717 3.204,10.933C2.859,11.15 2.516,11.313 2.404,11.8C2.244,12.433 2.205,12.554 2.004,13.333C1.977,13.542 2.087,13.763 2.271,13.867C3.779,14.681 6.095,15.009 8.404,15C10.713,14.991 13.01,14.644 14.47,13.867C14.587,13.793 14.613,13.758 14.603,13.633C14.56,12.944 14.522,12.266 14.47,11.867C14.452,11.768 14.405,11.674 14.337,11.6C13.873,11.046 13.18,10.708 12.37,10.367C11.63,10.055 10.763,9.732 9.904,9.367C9.855,9.26 9.808,8.948 9.904,8.467C9.929,8.338 9.97,8.199 10.004,8.067C10.084,7.976 10.147,7.902 10.237,7.8C10.428,7.582 10.633,7.353 10.803,7.133C10.974,6.913 11.113,6.725 11.203,6.467L11.237,6.433C11.585,5.027 11.585,4.441 11.603,3.933L11.603,3.9C11.603,2.266 10.135,1 8.404,1L8.404,1Z" style="fill:rgb(69,79,91);fill-rule:nonzero;"/>
                                </g>
                            </g>
                        </g>
                        <g transform="matrix(1.0451,0,0,1.0451,336.555,-296.871)">
                            <clipPath id="_clip4">
                                <circle cx="495.359" cy="567.229" r="62.962"/>
                            </clipPath>
                            <g clip-path="url(#_clip4)">
                                <g transform="matrix(0.799878,0,0,0.799878,36.1705,67.0232)">
                                    <circle cx="574.073" cy="625.352" r="78.714" style="fill:rgb(69,79,91);"/>
                                </g>
                            </g>
                        </g>
                        <g transform="matrix(4.0395,0,0,4.0395,237.79,-1108.77)">
                            <path d="M152.608,331.455C143.614,331.455 136.32,338.748 136.32,347.745C136.32,354.942 140.987,361.047 147.46,363.201C148.275,363.351 148.572,362.848 148.572,362.416C148.572,362.029 148.558,361.005 148.55,359.646C144.019,360.63 143.063,357.462 143.063,357.462C142.322,355.58 141.254,355.079 141.254,355.079C139.775,354.069 141.366,354.089 141.366,354.089C143.001,354.204 143.861,355.768 143.861,355.768C145.314,358.257 147.674,357.538 148.602,357.121C148.75,356.069 149.171,355.351 149.636,354.944C146.019,354.533 142.216,353.135 142.216,346.893C142.216,345.115 142.851,343.66 143.893,342.522C143.725,342.11 143.166,340.453 144.053,338.211C144.053,338.211 145.42,337.773 148.532,339.881C149.831,339.519 151.225,339.339 152.61,339.332C153.994,339.339 155.387,339.519 156.688,339.881C159.798,337.773 161.163,338.211 161.163,338.211C162.052,340.453 161.493,342.11 161.326,342.522C162.37,343.66 163,345.115 163,346.893C163,353.151 159.191,354.528 155.563,354.931C156.147,355.434 156.668,356.428 156.668,357.947C156.668,360.125 156.648,361.882 156.648,362.416C156.648,362.852 156.942,363.359 157.768,363.2C164.236,361.041 168.899,354.94 168.899,347.745C168.899,338.748 161.605,331.455 152.608,331.455Z" style="fill:white;"/>
                        </g>
                    </g>
                    <g transform="matrix(0.905159,0,0,1,-136.157,365.1)">
                        <rect x="343.154" y="229.121" width="458.246" height="43.544" style="fill:rgb(78,103,132);"/>
                    </g>
                    <g transform="matrix(0.948175,0,0,0.717909,-150.919,505.721)">
                        <rect x="343.154" y="229.121" width="458.246" height="43.544" style="fill:rgb(74,115,161);"/>
                    </g>
                </g>
            </g>
        </g>
    </g>
    <defs>
        <radialGradient id="_Radial1" cx="0" cy="0" r="1" gradientUnits="userSpaceOnUse" gradientTransform="matrix(-213.83,-6.98445e-15,1.55954e-12,-211.365,839.741,281.148)"><stop offset="0%" style="stop-color:black;stop-opacity:0.25"/><stop offset="100%" style="stop-color:black;stop-opacity:0"/></radialGradient>
    </defs>
</svg>
