<?xml version="1.0" encoding="UTF-8" standalone="no"?>
<!DOCTYPE svg PUBLIC "-//W3C//DTD SVG 1.1//EN" "http://www.w3.org/Graphics/SVG/1.1/DTD/svg11.dtd">
<svg width="100%" height="100%" viewBox="0 0 930 650" version="1.1" xmlns="http://www.w3.org/2000/svg"  xml:space="preserve" style="fill-rule:evenodd;clip-rule:evenodd;stroke-linejoin:round;stroke-miterlimit:1.41421;">
    <g transform="matrix(1,0,0,1,-75,-170)">
        <g id="what_new_instant_upload">
            <g id="_-Rectangle-" transform="matrix(1,0,0,3.20705,9,-1776.05)">
                <rect x="202.235" y="761.353" width="291.229" height="43.366" style="fill:url(#_Radial1);"/>
            </g>
            <g>
                <rect x="230.594" y="264.037" width="234.511" height="424.509" style="fill:url(#_Linear2);"/>
                <path d="M465.104,688.546L230.594,688.546L230.594,538.764L250.135,538.764L328.306,460.594L386.934,519.222L445.562,441.051L465.104,460.594L465.104,688.546Z" style="fill:url(#_Radial3);"/>
                <path d="M279.451,382.423C263.261,382.423 250.137,395.547 250.137,411.737C250.137,427.927 263.261,441.051 279.451,441.051C295.641,441.051 308.765,427.927 308.765,411.737C308.765,395.547 295.641,382.423 279.451,382.423Z" style="fill:url(#_Linear4);"/>
                <g>
                    <g transform="matrix(0.175283,0,0,0.175283,355.366,244.014)">
                        <path d="M428.378,321.853L432.417,354.54L465.104,358.58L432.417,362.619L428.378,395.306L424.339,362.619L391.652,358.58L424.339,354.54L428.378,321.853Z" style="fill:url(#_Linear5);"/>
                    </g>
                    <g transform="matrix(0.140592,0,0,0.140592,354.045,362.636)">
                        <path d="M428.378,321.853L432.417,354.54L465.104,358.58L432.417,362.619L428.378,395.306L424.339,362.619L391.652,358.58L424.339,354.54L428.378,321.853Z" style="fill:url(#_Linear6);"/>
                    </g>
                    <g transform="matrix(0.168563,0,0,0.168563,252.63,234.114)">
                        <path d="M428.378,321.853L432.417,354.54L465.104,358.58L432.417,362.619L428.378,395.306L424.339,362.619L391.652,358.58L424.339,354.54L428.378,321.853Z" style="fill:url(#_Linear7);"/>
                    </g>
                    <g transform="matrix(0.222605,0,0,0.210514,236.013,267.415)">
                        <path d="M428.378,321.853L432.417,354.54L465.104,358.58L432.417,362.619L428.378,395.306L424.339,362.619L391.652,358.58L424.339,354.54L428.378,321.853Z" style="fill:url(#_Linear8);"/>
                    </g>
                    <g transform="matrix(0.237653,0,0,0.237653,281.118,335.027)">
                        <path d="M428.378,321.853L432.417,354.54L465.104,358.58L432.417,362.619L428.378,395.306L424.339,362.619L391.652,358.58L424.339,354.54L428.378,321.853Z" style="fill:url(#_Linear9);"/>
                    </g>
                    <g transform="matrix(0.237653,0,0,0.237653,167.153,222.014)">
                        <path d="M428.378,321.853L432.417,354.54L465.104,358.58L432.417,362.619L428.378,395.306L424.339,362.619L391.652,358.58L424.339,354.54L428.378,321.853Z" style="fill:url(#_Linear10);"/>
                    </g>
                </g>
            </g>
            <path d="M448.992,191.23C473.578,191.272 493.463,211.183 493.463,235.701L493.463,716.882C493.463,741.426 473.536,761.353 448.992,761.353L246.706,761.353C222.162,761.353 202.235,741.426 202.235,716.882L202.235,235.701C202.235,211.183 222.119,191.272 246.706,191.23L448.992,191.23ZM465.104,264.037L230.594,264.037L230.594,688.546L465.104,688.546L465.104,264.037Z"/>
            <g transform="matrix(0.731297,0,0,0.731297,143.487,345.186)">
                <path d="M279.451,382.423C263.261,382.423 250.137,395.547 250.137,411.737C250.137,427.927 263.261,441.051 279.451,441.051C295.641,441.051 308.765,427.927 308.765,411.737C308.765,395.547 295.641,382.423 279.451,382.423Z" style="fill:none;stroke:white;stroke-width:9.57px;"/>
            </g>
            <g transform="matrix(1,0,0,1,105.39,-106.478)">
                <g transform="matrix(1,0,0,1,32.9856,-32.9856)">
                    <g transform="matrix(9.74822,0,0,9.74822,524.99,301.556)">
                        <path d="M2.688,4C2.293,4.077 1.993,4.467 2,4.875L2,27.125C2,27.585 2.424,28.001 2.875,28.001L29.125,28.001C29.576,28.001 30,27.584 30,27.126L30,5.22C29.999,4.547 29.471,3.997 28.969,4.001L2.688,4Z" style="fill:white;fill-rule:nonzero;"/>
                    </g>
                    <g transform="matrix(1,0,0,1,333.113,-3.62306)">
                        <clipPath id="_clip11">
                            <rect x="230.594" y="362.896" width="234.511" height="196.518"/>
                        </clipPath>
                        <g clip-path="url(#_clip11)">
                            <rect x="230.594" y="264.037" width="234.511" height="424.509" style="fill:url(#_Linear12);"/>
                            <path d="M465.104,688.546L230.594,688.546L230.594,538.764L250.135,538.764L328.306,460.594L386.934,519.222L445.562,441.051L465.104,460.594L465.104,688.546Z" style="fill:url(#_Radial13);"/>
                            <path d="M279.451,382.423C263.261,382.423 250.137,395.547 250.137,411.737C250.137,427.927 263.261,441.051 279.451,441.051C295.641,441.051 308.765,427.927 308.765,411.737C308.765,395.547 295.641,382.423 279.451,382.423Z" style="fill:url(#_Linear14);"/>
                            <g>
                                <g transform="matrix(0.175283,0,0,0.175283,355.366,244.014)">
                                    <path d="M428.378,321.853L432.417,354.54L465.104,358.58L432.417,362.619L428.378,395.306L424.339,362.619L391.652,358.58L424.339,354.54L428.378,321.853Z" style="fill:url(#_Linear15);"/>
                                </g>
                                <g transform="matrix(0.140592,0,0,0.140592,354.045,362.636)">
                                    <path d="M428.378,321.853L432.417,354.54L465.104,358.58L432.417,362.619L428.378,395.306L424.339,362.619L391.652,358.58L424.339,354.54L428.378,321.853Z" style="fill:url(#_Linear16);"/>
                                </g>
                                <g transform="matrix(0.222605,0,0,0.210514,236.013,267.415)">
                                    <path d="M428.378,321.853L432.417,354.54L465.104,358.58L432.417,362.619L428.378,395.306L424.339,362.619L391.652,358.58L424.339,354.54L428.378,321.853Z" style="fill:url(#_Linear17);"/>
                                </g>
                                <g transform="matrix(0.237653,0,0,0.237653,281.118,335.027)">
                                    <path d="M428.378,321.853L432.417,354.54L465.104,358.58L432.417,362.619L428.378,395.306L424.339,362.619L391.652,358.58L424.339,354.54L428.378,321.853Z" style="fill:url(#_Linear18);"/>
                                </g>
                                <g transform="matrix(0.237653,0,0,0.237653,167.153,222.014)">
                                    <path d="M428.378,321.853L432.417,354.54L465.104,358.58L432.417,362.619L428.378,395.306L424.339,362.619L391.652,358.58L424.339,354.54L428.378,321.853Z" style="fill:url(#_Linear19);"/>
                                </g>
                            </g>
                        </g>
                    </g>
                </g>
                <g>
                    <g transform="matrix(9.74822,0,0,9.74822,524.99,301.556)">
                        <path d="M2.688,4C2.293,4.077 1.993,4.467 2,4.875L2,27.125C2,27.585 2.424,28.001 2.875,28.001L29.125,28.001C29.576,28.001 30,27.584 30,27.126L30,5.22C29.999,4.547 29.471,3.997 28.969,4.001L2.688,4Z" style="fill:white;fill-rule:nonzero;"/>
                    </g>
                    <g transform="matrix(1,0,0,1,333.113,-3.62306)">
                        <clipPath id="_clip20">
                            <rect x="230.594" y="362.896" width="234.511" height="196.518"/>
                        </clipPath>
                        <g clip-path="url(#_clip20)">
                            <rect x="230.594" y="264.037" width="234.511" height="424.509" style="fill:url(#_Linear21);"/>
                            <path d="M465.104,688.546L230.594,688.546L230.594,538.764L250.135,538.764L328.306,460.594L386.934,519.222L445.562,441.051L465.104,460.594L465.104,688.546Z" style="fill:url(#_Radial22);"/>
                            <path d="M279.451,382.423C263.261,382.423 250.137,395.547 250.137,411.737C250.137,427.927 263.261,441.051 279.451,441.051C295.641,441.051 308.765,427.927 308.765,411.737C308.765,395.547 295.641,382.423 279.451,382.423Z" style="fill:url(#_Linear23);"/>
                            <g>
                                <g transform="matrix(0.175283,0,0,0.175283,355.366,244.014)">
                                    <path d="M428.378,321.853L432.417,354.54L465.104,358.58L432.417,362.619L428.378,395.306L424.339,362.619L391.652,358.58L424.339,354.54L428.378,321.853Z" style="fill:url(#_Linear24);"/>
                                </g>
                                <g transform="matrix(0.140592,0,0,0.140592,354.045,362.636)">
                                    <path d="M428.378,321.853L432.417,354.54L465.104,358.58L432.417,362.619L428.378,395.306L424.339,362.619L391.652,358.58L424.339,354.54L428.378,321.853Z" style="fill:url(#_Linear25);"/>
                                </g>
                                <g transform="matrix(0.168563,0,0,0.168563,252.63,234.114)">
                                    <path d="M428.378,321.853L432.417,354.54L465.104,358.58L432.417,362.619L428.378,395.306L424.339,362.619L391.652,358.58L424.339,354.54L428.378,321.853Z" style="fill:url(#_Linear26);"/>
                                </g>
                                <g transform="matrix(0.222605,0,0,0.210514,236.013,267.415)">
                                    <path d="M428.378,321.853L432.417,354.54L465.104,358.58L432.417,362.619L428.378,395.306L424.339,362.619L391.652,358.58L424.339,354.54L428.378,321.853Z" style="fill:url(#_Linear27);"/>
                                </g>
                                <g transform="matrix(0.237653,0,0,0.237653,281.118,335.027)">
                                    <path d="M428.378,321.853L432.417,354.54L465.104,358.58L432.417,362.619L428.378,395.306L424.339,362.619L391.652,358.58L424.339,354.54L428.378,321.853Z" style="fill:url(#_Linear28);"/>
                                </g>
                                <g transform="matrix(0.237653,0,0,0.237653,167.153,222.014)">
                                    <path d="M428.378,321.853L432.417,354.54L465.104,358.58L432.417,362.619L428.378,395.306L424.339,362.619L391.652,358.58L424.339,354.54L428.378,321.853Z" style="fill:url(#_Linear29);"/>
                                </g>
                            </g>
                        </g>
                    </g>
                </g>
                <g>
                    <g transform="matrix(9.74822,0,0,9.74822,493.361,333.185)">
                        <path d="M2.688,4C2.293,4.077 1.993,4.467 2,4.875L2,27.125C2,27.585 2.424,28.001 2.875,28.001L29.125,28.001C29.576,28.001 30,27.584 30,27.126L30,5.22C29.999,4.547 29.471,3.997 28.969,4.001L2.688,4Z" style="fill:white;fill-rule:nonzero;"/>
                    </g>
                    <g transform="matrix(1,0,0,1,301.484,28.0059)">
                        <clipPath id="_clip30">
                            <rect x="230.594" y="362.896" width="234.511" height="196.518"/>
                        </clipPath>
                        <g clip-path="url(#_clip30)">
                            <rect x="230.594" y="264.037" width="234.511" height="424.509" style="fill:url(#_Linear31);"/>
                            <path d="M465.104,688.546L230.594,688.546L230.594,538.764L250.135,538.764L328.306,460.594L386.934,519.222L445.562,441.051L465.104,460.594L465.104,688.546Z" style="fill:url(#_Radial32);"/>
                            <path d="M279.451,382.423C263.261,382.423 250.137,395.547 250.137,411.737C250.137,427.927 263.261,441.051 279.451,441.051C295.641,441.051 308.765,427.927 308.765,411.737C308.765,395.547 295.641,382.423 279.451,382.423Z" style="fill:url(#_Linear33);"/>
                            <g>
                                <g transform="matrix(0.175283,0,0,0.175283,355.366,244.014)">
                                    <path d="M428.378,321.853L432.417,354.54L465.104,358.58L432.417,362.619L428.378,395.306L424.339,362.619L391.652,358.58L424.339,354.54L428.378,321.853Z" style="fill:url(#_Linear34);"/>
                                </g>
                                <g transform="matrix(0.140592,0,0,0.140592,354.045,362.636)">
                                    <path d="M428.378,321.853L432.417,354.54L465.104,358.58L432.417,362.619L428.378,395.306L424.339,362.619L391.652,358.58L424.339,354.54L428.378,321.853Z" style="fill:url(#_Linear35);"/>
                                </g>
                                <g transform="matrix(0.168563,0,0,0.168563,252.63,234.114)">
                                    <path d="M428.378,321.853L432.417,354.54L465.104,358.58L432.417,362.619L428.378,395.306L424.339,362.619L391.652,358.58L424.339,354.54L428.378,321.853Z" style="fill:url(#_Linear36);"/>
                                </g>
                                <g transform="matrix(0.222605,0,0,0.210514,236.013,267.415)">
                                    <path d="M428.378,321.853L432.417,354.54L465.104,358.58L432.417,362.619L428.378,395.306L424.339,362.619L391.652,358.58L424.339,354.54L428.378,321.853Z" style="fill:url(#_Linear37);"/>
                                </g>
                                <g transform="matrix(0.237653,0,0,0.237653,281.118,335.027)">
                                    <path d="M428.378,321.853L432.417,354.54L465.104,358.58L432.417,362.619L428.378,395.306L424.339,362.619L391.652,358.58L424.339,354.54L428.378,321.853Z" style="fill:url(#_Linear38);"/>
                                </g>
                                <g transform="matrix(0.237653,0,0,0.237653,167.153,222.014)">
                                    <path d="M428.378,321.853L432.417,354.54L465.104,358.58L432.417,362.619L428.378,395.306L424.339,362.619L391.652,358.58L424.339,354.54L428.378,321.853Z" style="fill:url(#_Linear39);"/>
                                </g>
                            </g>
                        </g>
                    </g>
                </g>
                <g transform="matrix(0.414687,0,0,0.414687,420.251,292.709)">
                    <g transform="matrix(0.844902,0,0,0.844902,149.744,12.4534)">
                        <circle cx="811.26" cy="269.872" r="108.537" style="fill:rgb(0,212,0);"/>
                    </g>
                    <g transform="matrix(-10.6831,0,0,-10.6831,941.452,11440.7)">
                        <path d="M11.362,1043.8L16.312,1048.75L14.898,1050.16L11.362,1046.63L5.017,1053.01L3.584,1051.58L11.362,1043.8Z" style="fill:white;fill-rule:nonzero;"/>
                    </g>
                </g>
            </g>
        </g>
    </g>
    <defs>
        <radialGradient id="_Radial1" cx="0" cy="0" r="1" gradientUnits="userSpaceOnUse" gradientTransform="matrix(-145.614,4.073e-14,-1.82237e-14,-15.8805,347.849,788.838)"><stop offset="0%" style="stop-color:rgb(0,16,43);stop-opacity:0.480776"/><stop offset="100%" style="stop-color:black;stop-opacity:0"/></radialGradient>
        <linearGradient id="_Linear2" x1="0" y1="0" x2="1" y2="0" gradientUnits="userSpaceOnUse" gradientTransform="matrix(-42.6192,-320.496,320.496,-42.6192,347.849,572.965)"><stop offset="0%" style="stop-color:rgb(0,114,167);stop-opacity:1"/><stop offset="100%" style="stop-color:rgb(8,0,101);stop-opacity:1"/></linearGradient>
        <radialGradient id="_Radial3" cx="0" cy="0" r="1" gradientUnits="userSpaceOnUse" gradientTransform="matrix(7.50764,112.339,-276.186,18.4576,292.027,425.187)"><stop offset="0%" style="stop-color:rgb(0,31,53);stop-opacity:1"/><stop offset="100%" style="stop-color:rgb(52,52,92);stop-opacity:1"/></radialGradient>
        <linearGradient id="_Linear4" x1="0" y1="0" x2="1" y2="0" gradientUnits="userSpaceOnUse" gradientTransform="matrix(4.36862,55.7957,-55.7957,4.36862,273.59,385.426)"><stop offset="0%" style="stop-color:rgb(220,234,255);stop-opacity:1"/><stop offset="100%" style="stop-color:rgb(255,255,235);stop-opacity:1"/></linearGradient>
        <linearGradient id="_Linear5" x1="0" y1="0" x2="1" y2="0" gradientUnits="userSpaceOnUse" gradientTransform="matrix(-13.3491,-55.4555,100.385,-7.37441,428.378,375.307)"><stop offset="0%" style="stop-color:rgb(220,234,255);stop-opacity:1"/><stop offset="100%" style="stop-color:rgb(255,255,235);stop-opacity:1"/></linearGradient>
        <linearGradient id="_Linear6" x1="0" y1="0" x2="1" y2="0" gradientUnits="userSpaceOnUse" gradientTransform="matrix(-13.3491,-55.4555,100.385,-7.37441,428.378,375.307)"><stop offset="0%" style="stop-color:rgb(220,234,255);stop-opacity:1"/><stop offset="100%" style="stop-color:rgb(255,255,235);stop-opacity:1"/></linearGradient>
        <linearGradient id="_Linear7" x1="0" y1="0" x2="1" y2="0" gradientUnits="userSpaceOnUse" gradientTransform="matrix(-13.3491,-55.4555,100.385,-7.37441,428.378,375.307)"><stop offset="0%" style="stop-color:rgb(220,234,255);stop-opacity:1"/><stop offset="100%" style="stop-color:rgb(255,255,235);stop-opacity:1"/></linearGradient>
        <linearGradient id="_Linear8" x1="0" y1="0" x2="1" y2="0" gradientUnits="userSpaceOnUse" gradientTransform="matrix(-13.3491,-55.4555,100.385,-7.37441,428.378,375.307)"><stop offset="0%" style="stop-color:rgb(220,234,255);stop-opacity:1"/><stop offset="100%" style="stop-color:rgb(255,255,235);stop-opacity:1"/></linearGradient>
        <linearGradient id="_Linear9" x1="0" y1="0" x2="1" y2="0" gradientUnits="userSpaceOnUse" gradientTransform="matrix(-13.3491,-55.4555,100.385,-7.37441,428.378,375.307)"><stop offset="0%" style="stop-color:rgb(220,234,255);stop-opacity:1"/><stop offset="100%" style="stop-color:rgb(255,255,235);stop-opacity:1"/></linearGradient>
        <linearGradient id="_Linear10" x1="0" y1="0" x2="1" y2="0" gradientUnits="userSpaceOnUse" gradientTransform="matrix(-13.3491,-55.4555,100.385,-7.37441,428.378,375.307)"><stop offset="0%" style="stop-color:rgb(220,234,255);stop-opacity:1"/><stop offset="100%" style="stop-color:rgb(255,255,235);stop-opacity:1"/></linearGradient>
        <linearGradient id="_Linear12" x1="0" y1="0" x2="1" y2="0" gradientUnits="userSpaceOnUse" gradientTransform="matrix(-42.6192,-320.496,320.496,-42.6192,347.849,572.965)"><stop offset="0%" style="stop-color:rgb(0,114,167);stop-opacity:1"/><stop offset="100%" style="stop-color:rgb(8,0,101);stop-opacity:1"/></linearGradient>
        <radialGradient id="_Radial13" cx="0" cy="0" r="1" gradientUnits="userSpaceOnUse" gradientTransform="matrix(7.50764,112.339,-276.186,18.4576,292.027,425.187)"><stop offset="0%" style="stop-color:rgb(0,31,53);stop-opacity:1"/><stop offset="100%" style="stop-color:rgb(52,52,92);stop-opacity:1"/></radialGradient>
        <linearGradient id="_Linear14" x1="0" y1="0" x2="1" y2="0" gradientUnits="userSpaceOnUse" gradientTransform="matrix(4.36862,55.7957,-55.7957,4.36862,273.59,385.426)"><stop offset="0%" style="stop-color:rgb(220,234,255);stop-opacity:1"/><stop offset="100%" style="stop-color:rgb(255,255,235);stop-opacity:1"/></linearGradient>
        <linearGradient id="_Linear15" x1="0" y1="0" x2="1" y2="0" gradientUnits="userSpaceOnUse" gradientTransform="matrix(-13.3491,-55.4555,100.385,-7.37441,428.378,375.307)"><stop offset="0%" style="stop-color:rgb(220,234,255);stop-opacity:1"/><stop offset="100%" style="stop-color:rgb(255,255,235);stop-opacity:1"/></linearGradient>
        <linearGradient id="_Linear16" x1="0" y1="0" x2="1" y2="0" gradientUnits="userSpaceOnUse" gradientTransform="matrix(-13.3491,-55.4555,100.385,-7.37441,428.378,375.307)"><stop offset="0%" style="stop-color:rgb(220,234,255);stop-opacity:1"/><stop offset="100%" style="stop-color:rgb(255,255,235);stop-opacity:1"/></linearGradient>
        <linearGradient id="_Linear17" x1="0" y1="0" x2="1" y2="0" gradientUnits="userSpaceOnUse" gradientTransform="matrix(-13.3491,-55.4555,100.385,-7.37441,428.378,375.307)"><stop offset="0%" style="stop-color:rgb(220,234,255);stop-opacity:1"/><stop offset="100%" style="stop-color:rgb(255,255,235);stop-opacity:1"/></linearGradient>
        <linearGradient id="_Linear18" x1="0" y1="0" x2="1" y2="0" gradientUnits="userSpaceOnUse" gradientTransform="matrix(-13.3491,-55.4555,100.385,-7.37441,428.378,375.307)"><stop offset="0%" style="stop-color:rgb(220,234,255);stop-opacity:1"/><stop offset="100%" style="stop-color:rgb(255,255,235);stop-opacity:1"/></linearGradient>
        <linearGradient id="_Linear19" x1="0" y1="0" x2="1" y2="0" gradientUnits="userSpaceOnUse" gradientTransform="matrix(-13.3491,-55.4555,100.385,-7.37441,428.378,375.307)"><stop offset="0%" style="stop-color:rgb(220,234,255);stop-opacity:1"/><stop offset="100%" style="stop-color:rgb(255,255,235);stop-opacity:1"/></linearGradient>
        <linearGradient id="_Linear21" x1="0" y1="0" x2="1" y2="0" gradientUnits="userSpaceOnUse" gradientTransform="matrix(-42.6192,-320.496,320.496,-42.6192,347.849,572.965)"><stop offset="0%" style="stop-color:rgb(0,114,167);stop-opacity:1"/><stop offset="100%" style="stop-color:rgb(8,0,101);stop-opacity:1"/></linearGradient>
        <radialGradient id="_Radial22" cx="0" cy="0" r="1" gradientUnits="userSpaceOnUse" gradientTransform="matrix(7.50764,112.339,-276.186,18.4576,292.027,425.187)"><stop offset="0%" style="stop-color:rgb(0,31,53);stop-opacity:1"/><stop offset="100%" style="stop-color:rgb(52,52,92);stop-opacity:1"/></radialGradient>
        <linearGradient id="_Linear23" x1="0" y1="0" x2="1" y2="0" gradientUnits="userSpaceOnUse" gradientTransform="matrix(4.36862,55.7957,-55.7957,4.36862,273.59,385.426)"><stop offset="0%" style="stop-color:rgb(220,234,255);stop-opacity:1"/><stop offset="100%" style="stop-color:rgb(255,255,235);stop-opacity:1"/></linearGradient>
        <linearGradient id="_Linear24" x1="0" y1="0" x2="1" y2="0" gradientUnits="userSpaceOnUse" gradientTransform="matrix(-13.3491,-55.4555,100.385,-7.37441,428.378,375.307)"><stop offset="0%" style="stop-color:rgb(220,234,255);stop-opacity:1"/><stop offset="100%" style="stop-color:rgb(255,255,235);stop-opacity:1"/></linearGradient>
        <linearGradient id="_Linear25" x1="0" y1="0" x2="1" y2="0" gradientUnits="userSpaceOnUse" gradientTransform="matrix(-13.3491,-55.4555,100.385,-7.37441,428.378,375.307)"><stop offset="0%" style="stop-color:rgb(220,234,255);stop-opacity:1"/><stop offset="100%" style="stop-color:rgb(255,255,235);stop-opacity:1"/></linearGradient>
        <linearGradient id="_Linear26" x1="0" y1="0" x2="1" y2="0" gradientUnits="userSpaceOnUse" gradientTransform="matrix(-13.3491,-55.4555,100.385,-7.37441,428.378,375.307)"><stop offset="0%" style="stop-color:rgb(220,234,255);stop-opacity:1"/><stop offset="100%" style="stop-color:rgb(255,255,235);stop-opacity:1"/></linearGradient>
        <linearGradient id="_Linear27" x1="0" y1="0" x2="1" y2="0" gradientUnits="userSpaceOnUse" gradientTransform="matrix(-13.3491,-55.4555,100.385,-7.37441,428.378,375.307)"><stop offset="0%" style="stop-color:rgb(220,234,255);stop-opacity:1"/><stop offset="100%" style="stop-color:rgb(255,255,235);stop-opacity:1"/></linearGradient>
        <linearGradient id="_Linear28" x1="0" y1="0" x2="1" y2="0" gradientUnits="userSpaceOnUse" gradientTransform="matrix(-13.3491,-55.4555,100.385,-7.37441,428.378,375.307)"><stop offset="0%" style="stop-color:rgb(220,234,255);stop-opacity:1"/><stop offset="100%" style="stop-color:rgb(255,255,235);stop-opacity:1"/></linearGradient>
        <linearGradient id="_Linear29" x1="0" y1="0" x2="1" y2="0" gradientUnits="userSpaceOnUse" gradientTransform="matrix(-13.3491,-55.4555,100.385,-7.37441,428.378,375.307)"><stop offset="0%" style="stop-color:rgb(220,234,255);stop-opacity:1"/><stop offset="100%" style="stop-color:rgb(255,255,235);stop-opacity:1"/></linearGradient>
        <linearGradient id="_Linear31" x1="0" y1="0" x2="1" y2="0" gradientUnits="userSpaceOnUse" gradientTransform="matrix(-42.6192,-320.496,320.496,-42.6192,347.849,572.965)"><stop offset="0%" style="stop-color:rgb(0,114,167);stop-opacity:1"/><stop offset="100%" style="stop-color:rgb(8,0,101);stop-opacity:1"/></linearGradient>
        <radialGradient id="_Radial32" cx="0" cy="0" r="1" gradientUnits="userSpaceOnUse" gradientTransform="matrix(7.50764,112.339,-276.186,18.4576,292.027,425.187)"><stop offset="0%" style="stop-color:rgb(0,31,53);stop-opacity:1"/><stop offset="100%" style="stop-color:rgb(52,52,92);stop-opacity:1"/></radialGradient>
        <linearGradient id="_Linear33" x1="0" y1="0" x2="1" y2="0" gradientUnits="userSpaceOnUse" gradientTransform="matrix(4.36862,55.7957,-55.7957,4.36862,273.59,385.426)"><stop offset="0%" style="stop-color:rgb(220,234,255);stop-opacity:1"/><stop offset="100%" style="stop-color:rgb(255,255,235);stop-opacity:1"/></linearGradient>
        <linearGradient id="_Linear34" x1="0" y1="0" x2="1" y2="0" gradientUnits="userSpaceOnUse" gradientTransform="matrix(-13.3491,-55.4555,100.385,-7.37441,428.378,375.307)"><stop offset="0%" style="stop-color:rgb(220,234,255);stop-opacity:1"/><stop offset="100%" style="stop-color:rgb(255,255,235);stop-opacity:1"/></linearGradient>
        <linearGradient id="_Linear35" x1="0" y1="0" x2="1" y2="0" gradientUnits="userSpaceOnUse" gradientTransform="matrix(-13.3491,-55.4555,100.385,-7.37441,428.378,375.307)"><stop offset="0%" style="stop-color:rgb(220,234,255);stop-opacity:1"/><stop offset="100%" style="stop-color:rgb(255,255,235);stop-opacity:1"/></linearGradient>
        <linearGradient id="_Linear36" x1="0" y1="0" x2="1" y2="0" gradientUnits="userSpaceOnUse" gradientTransform="matrix(-13.3491,-55.4555,100.385,-7.37441,428.378,375.307)"><stop offset="0%" style="stop-color:rgb(220,234,255);stop-opacity:1"/><stop offset="100%" style="stop-color:rgb(255,255,235);stop-opacity:1"/></linearGradient>
        <linearGradient id="_Linear37" x1="0" y1="0" x2="1" y2="0" gradientUnits="userSpaceOnUse" gradientTransform="matrix(-13.3491,-55.4555,100.385,-7.37441,428.378,375.307)"><stop offset="0%" style="stop-color:rgb(220,234,255);stop-opacity:1"/><stop offset="100%" style="stop-color:rgb(255,255,235);stop-opacity:1"/></linearGradient>
        <linearGradient id="_Linear38" x1="0" y1="0" x2="1" y2="0" gradientUnits="userSpaceOnUse" gradientTransform="matrix(-13.3491,-55.4555,100.385,-7.37441,428.378,375.307)"><stop offset="0%" style="stop-color:rgb(220,234,255);stop-opacity:1"/><stop offset="100%" style="stop-color:rgb(255,255,235);stop-opacity:1"/></linearGradient>
        <linearGradient id="_Linear39" x1="0" y1="0" x2="1" y2="0" gradientUnits="userSpaceOnUse" gradientTransform="matrix(-13.3491,-55.4555,100.385,-7.37441,428.378,375.307)"><stop offset="0%" style="stop-color:rgb(220,234,255);stop-opacity:1"/><stop offset="100%" style="stop-color:rgb(255,255,235);stop-opacity:1"/></linearGradient>
    </defs>
</svg>
