<?xml version="1.0" encoding="UTF-8" standalone="no"?>
<!DOCTYPE svg PUBLIC "-//W3C//DTD SVG 1.1//EN" "http://www.w3.org/Graphics/SVG/1.1/DTD/svg11.dtd">
<svg width="100%" height="100%" viewBox="0 0 16 16" version="1.1" xmlns="http://www.w3.org/2000/svg" xmlns:xlink="http://www.w3.org/1999/xlink" xml:space="preserve" xmlns:serif="http://www.serif.com/" style="fill-rule:evenodd;clip-rule:evenodd;stroke-linejoin:round;stroke-miterlimit:2;">
    <path d="M2.5,1L11,1L14,4L14,14.5C14,14.78 13.78,15 13.5,15L2.5,15C2.22,15 2,14.78 2,14.5L2,1.5C2,1.22 2.22,1 2.5,1ZM5.126,8.72L6.698,6.972C6.751,6.987 6.808,6.996 6.866,6.996C6.966,6.996 7.06,6.971 7.143,6.927L8.562,7.992C8.554,8.03 8.55,8.07 8.55,8.11C8.55,8.439 8.821,8.71 9.15,8.71C9.479,8.71 9.75,8.439 9.75,8.11C9.75,8.071 9.746,8.032 9.738,7.995L11.166,6.932C11.246,6.973 11.338,6.996 11.434,6.996C11.763,6.996 12.034,6.725 12.034,6.396C12.032,6.068 11.762,5.798 11.434,5.796C11.105,5.796 10.834,6.067 10.834,6.396C10.834,6.417 10.835,6.438 10.837,6.458L9.391,7.562C9.317,7.529 9.235,7.511 9.15,7.511C9.063,7.511 8.981,7.529 8.906,7.563L7.459,6.483C7.464,6.454 7.466,6.426 7.466,6.396C7.464,6.068 7.194,5.798 6.866,5.796C6.537,5.796 6.266,6.067 6.266,6.396C6.266,6.459 6.276,6.52 6.294,6.577L4.696,8.38C4.659,8.372 4.621,8.368 4.582,8.368C4.253,8.368 3.982,8.639 3.982,8.968C3.982,9.296 4.253,9.567 4.582,9.567C4.911,9.567 5.182,9.296 5.182,8.968C5.181,8.879 5.161,8.796 5.126,8.72ZM8.58,9.852L8.58,12.993L9.722,12.993L9.722,9.852L8.58,9.852ZM6.294,8.71L6.294,12.993L7.436,12.993L7.436,8.71L6.294,8.71ZM4.01,10.709L4.01,12.993L5.152,12.993L5.152,10.709L4.01,10.709ZM10.864,8.71L10.864,12.993L12.006,12.993L12.006,8.71L10.864,8.71Z" style="fill:rgb(73,171,234);fill-rule:nonzero;"/>
</svg>
